<svg width="584" height="530" viewBox="0 0 584 530" fill="none" xmlns="http://www.w3.org/2000/svg">
<path opacity="0.5" d="M400 494C481.738 494 548 427.738 548 346C548 264.262 481.738 198 400 198C318.262 198 252 264.262 252 346C252 427.738 318.262 494 400 494Z" stroke="white" stroke-width="71"></path>
<path opacity="0.3" fill-rule="evenodd" clip-rule="evenodd" d="M552.175 232.126C548.886 232.126 546.214 229.459 546.214 226.169C546.214 222.879 548.886 220.212 552.175 220.212C555.464 220.212 558.127 222.879 558.127 226.169C558.127 229.459 555.464 232.126 552.175 232.126ZM552.175 237.338C545.999 237.338 541 232.337 541 226.169C541 220.001 545.999 215 552.175 215C558.342 215 563.341 220.001 563.341 226.169C563.341 232.337 558.342 237.338 552.175 237.338Z" fill="#1B2B7C"></path>
<path opacity="0.3" fill-rule="evenodd" clip-rule="evenodd" d="M481.223 510.586C482.251 508.805 484.522 508.195 486.306 509.223C488.091 510.251 488.698 512.528 487.67 514.308C486.643 516.089 484.363 516.699 482.588 515.672C480.803 514.644 480.196 512.367 481.223 510.586ZM478 508.725C480.055 505.163 484.606 503.943 488.166 505.999C491.726 508.055 492.95 512.609 490.894 516.17C488.838 519.731 484.279 520.952 480.719 518.896C477.159 516.839 475.944 512.285 478 508.725Z" fill="#FB5472"></path>
<path opacity="0.3" fill-rule="evenodd" clip-rule="evenodd" d="M297.175 500.126C293.886 500.126 291.214 497.459 291.214 494.169C291.214 490.879 293.886 488.212 297.175 488.212C300.464 488.212 303.127 490.879 303.127 494.169C303.127 497.459 300.464 500.126 297.175 500.126ZM297.175 505.338C290.999 505.338 286 500.337 286 494.169C286 488.001 290.999 483 297.175 483C303.342 483 308.341 488.001 308.341 494.169C308.341 500.337 303.342 505.338 297.175 505.338Z" fill="#FFDA32"></path>
<path opacity="0.3" d="M10.5 358C14.6421 358 18 354.642 18 350.5C18 346.358 14.6421 343 10.5 343C6.35786 343 3 346.358 3 350.5C3 354.642 6.35786 358 10.5 358Z" stroke="#6258C4" stroke-width="5"></path>
</svg>
