<svg width="567" height="551" viewBox="0 0 567 551" fill="none" xmlns="http://www.w3.org/2000/svg">
<path opacity="0.3" fill-rule="evenodd" clip-rule="evenodd" d="M310.437 14.1693C308.382 14.1693 306.719 12.5024 306.719 10.4468C306.719 8.39031 308.382 6.72343 310.437 6.72343C312.502 6.72343 314.166 8.39031 314.166 10.4468C314.166 12.5024 312.502 14.1693 310.437 14.1693ZM310.437 17.8927C306.326 17.8927 303 14.5589 303 10.4468C303 6.33379 306.326 3 310.437 3C314.558 3 317.884 6.33379 317.884 10.4468C317.884 14.5589 314.558 17.8927 310.437 17.8927Z" fill="#FB5472"></path>
<path opacity="0.5" d="M158.5 281C226.155 281 281 226.155 281 158.5C281 90.8451 226.155 36 158.5 36C90.8451 36 36 90.8451 36 158.5C36 226.155 90.8451 281 158.5 281Z" stroke="#EAF0FE" stroke-width="71"></path>
<path opacity="0.3" fill-rule="evenodd" clip-rule="evenodd" d="M70.6403 289.513C72.2847 286.664 75.9193 285.688 78.7691 287.333C81.6189 288.977 82.6 292.621 80.9555 295.47C79.311 298.319 75.6671 299.296 72.8173 297.65C69.9675 296.006 68.9865 292.363 70.6403 289.513ZM66.1179 286.907C69.2013 281.565 76.0408 279.735 81.376 282.819C86.7206 285.903 88.5519 292.734 85.4685 298.076C82.3851 303.418 75.5549 305.248 70.2104 302.164C64.8659 299.08 63.0345 292.249 66.1179 286.907Z" fill="#1B2B7C"></path>
<path opacity="0.2" fill-rule="evenodd" clip-rule="evenodd" d="M166.776 199.038C168.756 195.604 173.148 194.428 176.577 196.411C180.015 198.392 181.193 202.783 179.212 206.216C177.222 209.65 172.84 210.826 169.401 208.843C165.972 206.861 164.795 202.471 166.776 199.038ZM160.329 195.315C164.365 188.32 173.307 185.923 180.305 189.962C187.294 194 189.695 202.945 185.659 209.939C181.613 216.934 172.671 219.33 165.682 215.292C158.684 211.254 156.292 202.309 160.329 195.315Z" fill="#1B2B7C"></path>
<path opacity="0.3" fill-rule="evenodd" clip-rule="evenodd" d="M55.0266 212.883C56.0544 211.103 58.3249 210.492 60.1096 211.52C61.8942 212.549 62.5015 214.826 61.4737 216.606C60.4459 218.387 58.1661 218.997 56.3908 217.969C54.6062 216.941 53.9988 214.664 55.0266 212.883ZM51.8031 211.022C53.8587 207.46 58.409 206.24 61.9689 208.297C65.5288 210.352 66.7528 214.906 64.6972 218.468C62.6416 222.029 58.082 223.249 54.5221 221.194C50.9622 219.137 49.7475 214.583 51.8031 211.022Z" fill="#FB5472"></path>
<path opacity="0.3" fill-rule="evenodd" clip-rule="evenodd" d="M555.175 334.126C551.886 334.126 549.214 331.459 549.214 328.169C549.214 324.879 551.886 322.212 555.175 322.212C558.464 322.212 561.127 324.879 561.127 328.169C561.127 331.459 558.464 334.126 555.175 334.126ZM555.175 339.338C548.999 339.338 544 334.337 544 328.169C544 322.001 548.999 317 555.175 317C561.342 317 566.341 322.001 566.341 328.169C566.341 334.337 561.342 339.338 555.175 339.338Z" fill="#1B2B7C"></path>
<path opacity="0.3" fill-rule="evenodd" clip-rule="evenodd" d="M17.175 232.126C13.8861 232.126 11.2138 229.459 11.2138 226.169C11.2138 222.879 13.8861 220.212 17.175 220.212C20.4639 220.212 23.1269 222.879 23.1269 226.169C23.1269 229.459 20.4639 232.126 17.175 232.126ZM17.175 237.338C10.9989 237.338 6 232.337 6 226.169C6 220.001 10.9989 215 17.175 215C23.3418 215 28.3405 220.001 28.3405 226.169C28.3405 232.337 23.3418 237.338 17.175 237.338Z" fill="#FFDD33"></path>
<path opacity="0.2" fill-rule="evenodd" clip-rule="evenodd" d="M464.406 384.893C460.445 384.893 457.231 381.68 457.231 377.715C457.231 373.751 460.445 370.537 464.406 370.537C468.368 370.537 471.582 373.751 471.582 377.715C471.582 381.68 468.368 384.893 464.406 384.893ZM464.406 392.339C456.334 392.339 449.784 385.792 449.784 377.715C449.784 369.638 456.334 363.091 464.406 363.091C472.489 363.091 479.029 369.638 479.029 377.715C479.029 385.792 472.489 392.339 464.406 392.339Z" fill="#1B2B7C"></path>
<path opacity="0.3" fill-rule="evenodd" clip-rule="evenodd" d="M337.994 546C335.232 546 332.997 543.761 332.997 541.001C332.997 538.239 335.232 536 337.994 536C340.768 536 343.003 538.239 343.003 541.001C343.003 543.761 340.768 546 337.994 546ZM337.994 551C332.47 551 328 546.523 328 541.001C328 535.477 332.47 531 337.994 531C343.53 531 348 535.477 348 541.001C348 546.523 343.53 551 337.994 551Z" fill="#FB5472"></path>
</svg>
