<svg width="591" height="427" viewBox="0 0 591 427" fill="none" xmlns="http://www.w3.org/2000/svg">
<path d="M381.317 123.14C380.924 117.416 375.743 112.073 370.038 111.522C368.539 111.375 367.026 111.495 365.57 111.876C365.37 111.943 365.157 111.959 364.95 111.923C364.742 111.887 364.547 111.8 364.382 111.67C364.216 111.54 364.086 111.371 364.002 111.178C363.917 110.985 363.882 110.774 363.9 110.564V63.2139C363.9 58.118 361.877 53.2309 358.277 49.6276C354.677 46.0243 349.794 44 344.703 44H215.689C210.598 44 205.715 46.0242 202.114 49.6273C198.513 53.2305 196.489 58.1176 196.488 63.2139V108.577C196.489 109.075 196.602 109.566 196.819 110.014C197.036 110.462 197.351 110.855 197.741 111.164C198.132 111.473 198.586 111.69 199.072 111.798C199.557 111.906 200.061 111.903 200.545 111.789C202.407 111.354 204.343 111.349 206.206 111.776C208.069 112.203 209.811 113.05 211.297 114.252C212.784 115.455 213.977 116.981 214.785 118.714C215.594 120.448 215.996 122.344 215.962 124.256C215.927 126.169 215.457 128.049 214.587 129.752C213.717 131.456 212.47 132.938 210.942 134.086C209.413 135.235 207.642 136.018 205.765 136.378C203.887 136.738 201.953 136.664 200.108 136.162C199.685 136.043 199.239 136.024 198.807 136.106C198.375 136.188 197.967 136.369 197.617 136.635C197.266 136.9 196.981 137.243 196.785 137.637C196.588 138.031 196.485 138.465 196.484 138.905V192.338C196.484 194.861 196.981 197.36 197.946 199.692C198.91 202.024 200.325 204.142 202.108 205.927C203.891 207.712 206.008 209.127 208.337 210.093C210.667 211.059 213.164 211.556 215.685 211.556H266.399C266.634 211.557 266.866 211.608 267.08 211.706C267.294 211.804 267.485 211.946 267.64 212.123C267.795 212.3 267.91 212.508 267.979 212.733C268.048 212.958 268.068 213.195 268.038 213.429C267.836 215.198 268.013 216.99 268.555 218.687C269.098 220.383 269.995 221.944 271.186 223.267C272.377 224.59 273.836 225.644 275.465 226.361C277.094 227.077 278.857 227.438 280.636 227.42C282.416 227.403 284.171 227.007 285.786 226.259C287.401 225.511 288.838 224.428 290.003 223.082C291.169 221.736 292.034 220.157 292.544 218.451C293.053 216.744 293.194 214.949 292.958 213.184C292.933 212.979 292.952 212.771 293.014 212.574C293.075 212.377 293.178 212.195 293.316 212.041C293.453 211.887 293.622 211.764 293.81 211.681C293.999 211.597 294.203 211.554 294.409 211.556H344.685C349.778 211.556 354.662 209.531 358.263 205.927C361.864 202.323 363.887 197.435 363.887 192.338V138.013C363.885 137.751 363.942 137.492 364.053 137.256C364.164 137.019 364.327 136.81 364.53 136.645C364.732 136.479 364.97 136.361 365.224 136.3C365.478 136.238 365.742 136.234 365.998 136.289C367.908 136.721 369.892 136.701 371.793 136.229C373.693 135.757 375.457 134.847 376.943 133.572C378.43 132.297 379.598 130.691 380.354 128.884C381.111 127.076 381.435 125.117 381.3 123.162L381.317 123.14Z" fill="#1A2578"></path>
<path d="M345.582 211.202H320.614C318.939 205.01 317.392 199.51 316.111 195.173C314.484 189.638 313.304 185.984 312.893 185.223C311.249 182.16 317.562 172.765 322.787 169.908C323.693 169.389 324.673 169.013 325.694 168.792C328.92 168.158 331.137 169.995 333.227 172.595C334.779 174.52 337.974 176.095 340.698 180.348C341.564 181.711 342.286 183.16 342.853 184.672C345.501 191.683 347.738 198.842 349.555 206.113C349.704 206.717 349.713 207.346 349.583 207.955C349.452 208.563 349.186 209.133 348.803 209.623C348.421 210.113 347.932 210.51 347.374 210.783C346.816 211.057 346.203 211.2 345.582 211.202Z" fill="#E0E0E0"></path>
<path d="M305.833 103.79C305.833 103.79 308.416 91.1008 297.15 88.913C285.884 86.7251 287.703 95.5772 285.451 97.5857C283.2 99.5942 287.851 106.538 293.242 107.886C298.632 109.234 305.833 103.79 305.833 103.79Z" fill="#30262A"></path>
<path d="M334.967 211.201H245.693C245.693 211.201 242.1 198.451 242.799 192.491C243.114 189.795 243.486 187.179 243.927 184.671C244.219 182.968 244.545 181.322 244.907 179.735C244.99 179.354 245.097 178.979 245.226 178.611C245.455 177.925 245.808 177.288 246.266 176.729C249.895 172.454 258.166 178.418 260.82 172.765C260.82 172.765 265.419 162.377 277.652 157.45C279.676 156.637 281.774 156.02 283.917 155.608C288.086 154.828 292.349 154.691 296.56 155.201L297.771 155.341H297.802L299.034 155.498C308.84 156.78 320.08 159.581 325.703 168.792C327.142 171.186 328.144 173.817 328.662 176.563C329.362 180.064 330.105 183.652 330.848 187.406C332.291 194.582 333.729 202.362 334.967 211.201Z" fill="#BF0830"></path>
<path d="M231.345 175.959L256.807 193.589C256.807 193.589 302.519 200.249 314.865 195.659C328.977 190.408 342.255 179.066 342.255 179.066C342.255 179.066 333.1 158.872 298.995 155.407C295.03 155.004 280.358 155.599 276.48 156.185C241.304 161.528 231.345 175.959 231.345 175.959Z" fill="#BF0830"></path>
<path d="M231.345 175.959C229.74 178.436 231.314 185.621 239.852 190.815C248.391 196.009 254.914 197.173 256.807 193.589C258.232 190.889 254.542 181.6 246.406 176.808C238.021 171.868 232.495 174.196 231.345 175.959Z" fill="#30262A"></path>
<path d="M253.239 195.637C252.522 196.591 249.628 202.542 245.693 211.202H220.839C220.053 211.202 219.279 211.005 218.589 210.627C217.899 210.25 217.315 209.706 216.89 209.043C216.465 208.381 216.213 207.623 216.158 206.838C216.102 206.052 216.245 205.266 216.572 204.551C218.834 199.632 221.209 194.965 223.699 190.548C227.126 184.492 228.997 181.609 230.908 179.561C231.258 179.189 231.607 178.847 231.966 178.515C232.435 178.089 232.958 177.727 233.522 177.438C236.722 175.776 241.496 176.034 245.226 178.589C245.405 178.707 245.584 178.834 245.759 178.97C248.999 181.451 252.277 187.017 253.366 191.183C253.864 193.13 253.895 194.753 253.239 195.637Z" fill="#E0E0E0"></path>
<path d="M276.427 156.221C280.799 161.323 291.344 164.569 297.089 161.703C301.985 159.266 298.995 155.429 298.995 155.429C296.608 155.372 293.661 151.679 293.46 149.302L293.224 146.375L293.106 144.927L292.721 140.288L292.38 136.123L290.977 119.057L286.513 136.403L285.752 139.361L283.129 149.552C282.713 151.147 281.88 152.602 280.716 153.768C279.552 154.934 278.099 155.768 276.506 156.186L276.427 156.221Z" fill="#E0E0E0"></path>
<path d="M285.73 139.361C285.73 139.361 288.598 144.406 293.106 144.896L292.721 140.258C289.91 139.698 285.73 139.361 285.73 139.361Z" fill="#30262A"></path>
<path d="M271.47 119.197C271.47 119.197 272.55 121.866 271.841 127.796C270.801 136.473 280.83 138.468 282.893 135.716C283.147 135.379 280.554 121.298 280.554 121.298L277.241 119.985L271.47 119.197Z" fill="#30262A"></path>
<path d="M295.184 141.243C303.943 139.882 309.684 130.012 308.007 119.196C306.33 108.381 297.871 100.716 289.112 102.076C280.353 103.436 274.612 113.307 276.288 124.122C277.965 134.938 286.425 142.603 295.184 141.243Z" fill="#E0E0E0"></path>
<path d="M296.131 105.589C295.786 106.258 299.843 115.942 281.573 121.245C263.303 126.549 270.989 102.167 284.668 99.5153C304.416 95.6909 309.382 108.612 308.219 113.719C307.056 118.825 296.131 105.589 296.131 105.589Z" fill="#30262A"></path>
<path d="M283.108 117.714C283.108 117.714 276.734 126.938 280.651 134.749C280.651 134.749 275.483 130.601 275.107 128.815C274.731 127.03 274.893 120.326 274.893 120.326L283.108 117.714Z" fill="#30262A"></path>
<path d="M278.88 126.684C280.944 128.119 283.484 127.905 284.563 126.203C285.643 124.501 284.826 121.958 282.762 120.514C280.699 119.07 278.163 119.294 277.079 120.996C275.995 122.698 276.821 125.245 278.88 126.684Z" fill="#E0E0E0"></path>
<path d="M293.723 121.547C293.792 121.516 293.85 121.463 293.889 121.398C293.927 121.332 293.944 121.256 293.937 121.18C293.931 121.104 293.901 121.032 293.851 120.974C293.802 120.916 293.735 120.874 293.662 120.856C292.822 120.603 291.922 120.638 291.105 120.955C290.288 121.272 289.6 121.853 289.15 122.606C289.095 122.686 289.075 122.784 289.092 122.879C289.109 122.974 289.163 123.058 289.242 123.114C289.324 123.161 289.421 123.178 289.514 123.161C289.608 123.145 289.693 123.095 289.753 123.022C290.805 122.133 292.12 121.616 293.495 121.551C293.57 121.574 293.649 121.573 293.723 121.547Z" fill="#080435"></path>
<path d="M291.484 125.958C291.594 126.833 292.188 127.463 292.796 127.384C293.404 127.306 293.845 126.544 293.74 125.678C293.635 124.812 293.041 124.173 292.429 124.251C291.817 124.33 291.379 125.092 291.484 125.958Z" fill="#080435"></path>
<path d="M306.891 121.429C306.968 121.427 307.042 121.401 307.103 121.354C307.164 121.308 307.209 121.244 307.232 121.17C307.254 121.097 307.253 121.018 307.229 120.945C307.205 120.872 307.158 120.809 307.096 120.764C306.412 120.215 305.565 119.91 304.688 119.895C303.812 119.88 302.955 120.156 302.252 120.681C302.172 120.734 302.115 120.816 302.095 120.91C302.074 121.004 302.092 121.102 302.143 121.184C302.201 121.259 302.284 121.311 302.377 121.331C302.469 121.351 302.566 121.338 302.65 121.293C303.962 120.873 305.375 120.896 306.672 121.359C306.736 121.405 306.812 121.429 306.891 121.429Z" fill="#080435"></path>
<path d="M303.127 124.654C302.895 125.494 303.201 126.313 303.813 126.479C304.425 126.645 305.103 126.102 305.334 125.262C305.566 124.422 305.256 123.604 304.648 123.433C304.04 123.263 303.376 123.81 303.127 124.654Z" fill="#080435"></path>
<g opacity="0.3">
<path opacity="0.3" d="M291.335 133.546C294.754 133.334 297.274 129.078 296.963 124.039C296.651 119 293.627 115.087 290.207 115.299C286.787 115.511 284.268 119.767 284.579 124.806C284.89 129.845 287.915 133.758 291.335 133.546Z" fill="white"></path>
</g>
<g opacity="0.3">
<path opacity="0.3" d="M300.94 122.527C300.766 127.341 303.074 132.128 306.095 133.187C309.116 134.246 311.713 131.178 311.888 126.347C312.063 121.516 309.754 116.721 306.733 115.688C303.712 114.655 301.128 117.714 300.94 122.527Z" fill="white"></path>
</g>
<path d="M285.202 120.024C285.154 120.164 285.11 120.3 285.071 120.462C285.055 120.502 285.042 120.543 285.031 120.585C285.005 120.663 284.988 120.746 284.966 120.834C284.944 120.921 284.926 120.974 284.909 121.048L284.856 121.28C284.846 121.319 284.837 121.359 284.83 121.398C284.832 121.438 284.832 121.477 284.83 121.517C284.83 121.556 284.83 121.595 284.804 121.63C284.778 121.783 284.751 121.945 284.725 122.107C284.699 122.269 284.682 122.422 284.664 122.58C284.664 122.58 284.664 122.646 284.664 122.676V122.711L284.69 122.768C284.69 122.768 284.69 122.768 284.69 122.794V122.829C284.694 122.842 284.694 122.856 284.69 122.869C284.694 122.882 284.694 122.895 284.69 122.908C284.69 122.956 284.725 123.004 284.743 123.048C284.745 123.057 284.745 123.066 284.743 123.074C284.756 122.525 284.805 121.976 284.891 121.433C284.965 120.938 285.073 120.448 285.215 119.968L285.202 120.024ZM285.202 120.024C285.154 120.164 285.11 120.3 285.071 120.462C285.055 120.502 285.042 120.543 285.031 120.585C285.005 120.663 284.988 120.746 284.966 120.834C284.944 120.921 284.926 120.974 284.909 121.048L284.856 121.28C284.846 121.319 284.837 121.359 284.83 121.398C284.832 121.438 284.832 121.477 284.83 121.517C284.83 121.556 284.83 121.595 284.804 121.63C284.778 121.783 284.751 121.945 284.725 122.107C284.699 122.269 284.682 122.422 284.664 122.58C284.664 122.58 284.664 122.646 284.664 122.676V122.711L284.69 122.768C284.69 122.768 284.69 122.768 284.69 122.794V122.829C284.694 122.842 284.694 122.856 284.69 122.869C284.694 122.882 284.694 122.895 284.69 122.908C284.69 122.956 284.725 123.004 284.743 123.048C284.745 123.057 284.745 123.066 284.743 123.074C284.756 122.525 284.805 121.976 284.891 121.433C284.965 120.938 285.073 120.448 285.215 119.968L285.202 120.024ZM285.202 120.024C285.154 120.164 285.11 120.3 285.071 120.462C285.055 120.502 285.042 120.543 285.031 120.585C285.005 120.663 284.988 120.746 284.966 120.834C284.944 120.921 284.926 120.974 284.909 121.048L284.856 121.28C284.846 121.319 284.837 121.359 284.83 121.398C284.832 121.438 284.832 121.477 284.83 121.517C284.83 121.556 284.83 121.595 284.804 121.63C284.778 121.783 284.751 121.945 284.725 122.107C284.699 122.269 284.682 122.422 284.664 122.58C284.664 122.58 284.664 122.646 284.664 122.676C284.665 122.689 284.665 122.702 284.664 122.716L284.69 122.772C284.69 122.772 284.69 122.772 284.69 122.799V122.834C284.694 122.847 284.694 122.86 284.69 122.873C284.694 122.886 284.694 122.9 284.69 122.912C284.69 122.961 284.725 123.009 284.743 123.052C284.745 123.061 284.745 123.07 284.743 123.079C284.756 122.529 284.805 121.981 284.891 121.438C284.965 120.942 285.073 120.452 285.215 119.972L285.202 120.024ZM285.202 120.024C285.154 120.164 285.11 120.3 285.071 120.462C285.055 120.502 285.042 120.543 285.031 120.585C285.005 120.663 284.988 120.746 284.966 120.834C284.944 120.921 284.926 120.974 284.909 121.048L284.856 121.28C284.846 121.319 284.837 121.359 284.83 121.398C284.832 121.438 284.832 121.477 284.83 121.517C284.83 121.556 284.83 121.595 284.804 121.63C284.778 121.783 284.751 121.945 284.725 122.107C284.699 122.269 284.682 122.422 284.664 122.58C284.664 122.58 284.664 122.646 284.664 122.676V122.724L284.69 122.781C284.69 122.781 284.69 122.781 284.69 122.807V122.842C284.694 122.855 284.694 122.869 284.69 122.882C284.694 122.895 284.694 122.908 284.69 122.921C284.69 122.969 284.725 123.017 284.743 123.061C284.745 123.07 284.745 123.079 284.743 123.087C284.756 122.538 284.805 121.99 284.891 121.447C284.965 120.951 285.073 120.461 285.215 119.981L285.202 120.024ZM298.016 123.652C298.016 123.267 297.963 122.895 297.915 122.514C297.478 119.162 295.821 116.191 293.521 114.839C293.242 114.671 292.949 114.525 292.647 114.402C291.935 114.118 291.166 114.005 290.402 114.069C289.638 114.134 288.9 114.375 288.245 114.774C286.496 115.797 285.184 117.762 284.568 120.269C284.476 120.633 284.41 120.996 284.349 121.372C284.314 121.595 284.284 121.81 284.266 122.042C284.196 122.688 284.174 123.339 284.201 123.989C284.22 124.517 284.272 125.043 284.354 125.564C284.393 125.814 284.441 126.067 284.498 126.308C284.905 128.527 285.995 130.563 287.615 132.132C288.191 132.659 288.86 133.074 289.587 133.357C290.243 133.616 290.946 133.733 291.65 133.699C291.835 133.691 292.019 133.672 292.201 133.642C292.831 133.533 293.437 133.312 293.989 132.99C295.51 132.026 296.655 130.57 297.233 128.863C297.534 128.061 297.753 127.229 297.885 126.382C298.015 125.478 298.053 124.564 297.998 123.652H298.016ZM297.281 126.304C297.157 127.108 296.949 127.897 296.66 128.658C296.329 129.558 295.847 130.395 295.235 131.134C295.235 131.134 295.235 131.134 295.235 131.165C294.804 131.687 294.286 132.131 293.705 132.478C293.127 132.828 292.476 133.04 291.802 133.096C291.128 133.153 290.451 133.052 289.823 132.802C289.065 132.511 288.377 132.063 287.803 131.489C286.325 130.062 285.307 127.857 284.948 125.398C284.9 125.022 284.861 124.641 284.835 124.251C284.808 123.862 284.804 123.521 284.835 123.149C284.848 122.599 284.897 122.051 284.983 121.508C285.057 121.012 285.165 120.523 285.307 120.042C285.378 119.778 285.464 119.518 285.565 119.263C285.562 119.249 285.562 119.234 285.565 119.219C285.566 119.206 285.566 119.193 285.565 119.18C285.564 119.165 285.564 119.151 285.565 119.136C285.739 118.661 285.955 118.203 286.212 117.767C286.759 116.766 287.558 115.926 288.529 115.329C289.156 114.952 289.866 114.737 290.597 114.704C291.216 114.678 291.833 114.781 292.411 115.005C292.64 115.093 292.862 115.199 293.075 115.321C295.31 116.546 296.905 119.425 297.312 122.689C297.366 123.071 297.398 123.455 297.408 123.84C297.437 124.664 297.389 125.489 297.264 126.304H297.281ZM285.202 120.024C285.154 120.164 285.11 120.3 285.071 120.462C285.055 120.502 285.042 120.543 285.031 120.585C285.005 120.663 284.988 120.746 284.966 120.834C284.944 120.921 284.926 120.974 284.909 121.048L284.856 121.28C284.846 121.319 284.837 121.359 284.83 121.398C284.832 121.438 284.832 121.477 284.83 121.517C284.83 121.556 284.83 121.595 284.804 121.63C284.778 121.783 284.751 121.945 284.725 122.107C284.699 122.269 284.682 122.422 284.664 122.58C284.664 122.58 284.664 122.646 284.664 122.676V122.72L284.69 122.777C284.69 122.777 284.69 122.777 284.69 122.803V122.838C284.694 122.851 284.694 122.865 284.69 122.877C284.694 122.89 284.694 122.904 284.69 122.917C284.69 122.965 284.725 123.013 284.743 123.057C284.745 123.065 284.745 123.074 284.743 123.083C284.756 122.533 284.805 121.985 284.891 121.442C284.965 120.947 285.073 120.457 285.215 119.976L285.202 120.024ZM285.202 120.024C285.154 120.164 285.11 120.3 285.071 120.462C285.055 120.502 285.042 120.543 285.031 120.585C285.005 120.663 284.988 120.746 284.966 120.834C284.944 120.921 284.926 120.974 284.909 121.048L284.856 121.28C284.846 121.319 284.837 121.359 284.83 121.398C284.832 121.438 284.832 121.477 284.83 121.517C284.83 121.556 284.83 121.595 284.804 121.63C284.778 121.783 284.751 121.945 284.725 122.107C284.699 122.269 284.682 122.422 284.664 122.58C284.664 122.58 284.664 122.646 284.664 122.676V122.711L284.69 122.768C284.69 122.768 284.69 122.768 284.69 122.794V122.829C284.694 122.842 284.694 122.856 284.69 122.869C284.694 122.882 284.694 122.895 284.69 122.908C284.69 122.956 284.725 123.004 284.743 123.048C284.745 123.057 284.745 123.066 284.743 123.074C284.756 122.525 284.805 121.976 284.891 121.433C284.965 120.938 285.073 120.448 285.215 119.968L285.202 120.024ZM285.202 120.024C285.154 120.164 285.11 120.3 285.071 120.462C285.055 120.502 285.042 120.543 285.031 120.585C285.005 120.663 284.988 120.746 284.966 120.834C284.944 120.921 284.926 120.974 284.909 121.048L284.856 121.28C284.846 121.319 284.837 121.359 284.83 121.398C284.832 121.438 284.832 121.477 284.83 121.517C284.83 121.556 284.83 121.595 284.804 121.63C284.778 121.783 284.751 121.945 284.725 122.107C284.699 122.269 284.682 122.422 284.664 122.58C284.664 122.58 284.664 122.646 284.664 122.676V122.711L284.69 122.768C284.69 122.768 284.69 122.768 284.69 122.794V122.829C284.694 122.842 284.694 122.856 284.69 122.869C284.694 122.882 284.694 122.895 284.69 122.908C284.69 122.956 284.725 123.004 284.743 123.048C284.745 123.057 284.745 123.066 284.743 123.074C284.756 122.525 284.805 121.976 284.891 121.433C284.965 120.938 285.073 120.448 285.215 119.968L285.202 120.024Z" fill="#30262A"></path>
<path d="M301.047 120.024C300.999 120.164 300.955 120.3 300.916 120.462C300.9 120.502 300.887 120.543 300.876 120.585C300.85 120.663 300.833 120.746 300.811 120.834C300.789 120.921 300.772 120.974 300.754 121.048L300.702 121.28C300.691 121.319 300.682 121.359 300.675 121.398C300.677 121.438 300.677 121.477 300.675 121.517C300.675 121.556 300.675 121.595 300.649 121.63C300.623 121.783 300.597 121.945 300.57 122.107C300.544 122.269 300.527 122.422 300.509 122.58C300.509 122.58 300.509 122.646 300.509 122.676V122.711L300.535 122.768C300.535 122.768 300.535 122.768 300.535 122.794V122.829C300.539 122.842 300.539 122.856 300.535 122.869C300.539 122.882 300.539 122.895 300.535 122.908C300.535 122.956 300.57 123.004 300.588 123.048C300.59 123.057 300.59 123.066 300.588 123.074C300.601 122.525 300.651 121.976 300.737 121.433C300.811 120.938 300.919 120.448 301.06 119.968L301.047 120.024ZM301.047 120.024C300.999 120.164 300.955 120.3 300.916 120.462C300.9 120.502 300.887 120.543 300.876 120.585C300.85 120.663 300.833 120.746 300.811 120.834C300.789 120.921 300.772 120.974 300.754 121.048L300.702 121.28C300.691 121.319 300.682 121.359 300.675 121.398C300.677 121.438 300.677 121.477 300.675 121.517C300.675 121.556 300.675 121.595 300.649 121.63C300.623 121.783 300.597 121.945 300.57 122.107C300.544 122.269 300.527 122.422 300.509 122.58C300.509 122.58 300.509 122.646 300.509 122.676V122.711L300.535 122.768C300.535 122.768 300.535 122.768 300.535 122.794V122.829C300.539 122.842 300.539 122.856 300.535 122.869C300.539 122.882 300.539 122.895 300.535 122.908C300.535 122.956 300.57 123.004 300.588 123.048C300.59 123.057 300.59 123.066 300.588 123.074C300.601 122.525 300.651 121.976 300.737 121.433C300.811 120.938 300.919 120.448 301.06 119.968L301.047 120.024ZM301.047 120.024C300.999 120.164 300.955 120.3 300.916 120.462C300.9 120.502 300.887 120.543 300.876 120.585C300.85 120.663 300.833 120.746 300.811 120.834C300.789 120.921 300.772 120.974 300.754 121.048L300.702 121.28C300.691 121.319 300.682 121.359 300.675 121.398C300.677 121.438 300.677 121.477 300.675 121.517C300.675 121.556 300.675 121.595 300.649 121.63C300.623 121.783 300.597 121.945 300.57 122.107C300.544 122.269 300.527 122.422 300.509 122.58C300.509 122.58 300.509 122.646 300.509 122.676C300.511 122.689 300.511 122.702 300.509 122.716L300.535 122.772C300.535 122.772 300.535 122.772 300.535 122.799V122.834C300.539 122.847 300.539 122.86 300.535 122.873C300.539 122.886 300.539 122.9 300.535 122.912C300.535 122.961 300.57 123.009 300.588 123.052C300.59 123.061 300.59 123.07 300.588 123.079C300.601 122.529 300.651 121.981 300.737 121.438C300.811 120.942 300.919 120.452 301.06 119.972L301.047 120.024ZM301.047 120.024C300.999 120.164 300.955 120.3 300.916 120.462C300.9 120.502 300.887 120.543 300.876 120.585C300.85 120.663 300.833 120.746 300.811 120.834C300.789 120.921 300.772 120.974 300.754 121.048L300.702 121.28C300.691 121.319 300.682 121.359 300.675 121.398C300.677 121.438 300.677 121.477 300.675 121.517C300.675 121.556 300.675 121.595 300.649 121.63C300.623 121.783 300.597 121.945 300.57 122.107C300.544 122.269 300.527 122.422 300.509 122.58C300.509 122.58 300.509 122.646 300.509 122.676V122.724L300.535 122.781C300.535 122.781 300.535 122.781 300.535 122.807V122.842C300.539 122.855 300.539 122.869 300.535 122.882C300.539 122.895 300.539 122.908 300.535 122.921C300.535 122.969 300.57 123.017 300.588 123.061C300.59 123.07 300.59 123.079 300.588 123.087C300.601 122.538 300.651 121.99 300.737 121.447C300.811 120.951 300.919 120.461 301.06 119.981L301.047 120.024ZM313.861 123.652C313.861 123.267 313.808 122.895 313.76 122.514C313.323 119.162 311.666 116.191 309.367 114.839C309.087 114.671 308.795 114.525 308.492 114.402C307.78 114.118 307.011 114.005 306.247 114.069C305.483 114.134 304.745 114.375 304.09 114.774C302.341 115.797 301.03 117.762 300.413 120.269C300.321 120.633 300.256 120.996 300.195 121.372C300.16 121.595 300.129 121.81 300.111 122.042C300.042 122.688 300.02 123.339 300.046 123.989C300.066 124.517 300.117 125.043 300.199 125.564C300.238 125.814 300.286 126.067 300.343 126.308C300.75 128.527 301.84 130.563 303.46 132.132C304.036 132.659 304.705 133.074 305.432 133.357C306.088 133.616 306.791 133.733 307.495 133.699C307.68 133.691 307.864 133.672 308.046 133.642C308.676 133.533 309.282 133.312 309.834 132.99C311.355 132.026 312.5 130.57 313.078 128.863C313.38 128.061 313.598 127.229 313.73 126.382C313.86 125.478 313.898 124.564 313.843 123.652H313.861ZM313.126 126.304C313.002 127.108 312.794 127.897 312.506 128.658C312.174 129.558 311.692 130.395 311.08 131.134C311.08 131.134 311.08 131.134 311.08 131.165C310.649 131.687 310.132 132.131 309.55 132.478C308.972 132.828 308.321 133.04 307.647 133.096C306.974 133.153 306.296 133.052 305.668 132.802C304.91 132.511 304.222 132.063 303.648 131.489C302.171 130.062 301.152 127.857 300.793 125.398C300.745 125.022 300.706 124.641 300.68 124.251C300.654 123.862 300.649 123.521 300.68 123.149C300.693 122.599 300.742 122.051 300.828 121.508C300.902 121.012 301.01 120.523 301.152 120.042C301.223 119.778 301.309 119.518 301.41 119.263C301.407 119.249 301.407 119.234 301.41 119.219C301.411 119.206 301.411 119.193 301.41 119.18C301.409 119.165 301.409 119.151 301.41 119.136C301.584 118.661 301.801 118.203 302.057 117.767C302.605 116.766 303.403 115.926 304.374 115.329C305.001 114.952 305.711 114.737 306.442 114.704C307.061 114.678 307.679 114.781 308.256 115.005C308.485 115.093 308.707 115.199 308.921 115.321C311.155 116.546 312.75 119.425 313.157 122.689C313.211 123.071 313.243 123.455 313.253 123.84C313.282 124.664 313.234 125.489 313.109 126.304H313.126ZM301.047 120.024C300.999 120.164 300.955 120.3 300.916 120.462C300.9 120.502 300.887 120.543 300.876 120.585C300.85 120.663 300.833 120.746 300.811 120.834C300.789 120.921 300.772 120.974 300.754 121.048L300.702 121.28C300.691 121.319 300.682 121.359 300.675 121.398C300.677 121.438 300.677 121.477 300.675 121.517C300.675 121.556 300.675 121.595 300.649 121.63C300.623 121.783 300.597 121.945 300.57 122.107C300.544 122.269 300.527 122.422 300.509 122.58C300.509 122.58 300.509 122.646 300.509 122.676V122.72L300.535 122.777C300.535 122.777 300.535 122.777 300.535 122.803V122.838C300.539 122.851 300.539 122.865 300.535 122.877C300.539 122.89 300.539 122.904 300.535 122.917C300.535 122.965 300.57 123.013 300.588 123.057C300.59 123.065 300.59 123.074 300.588 123.083C300.601 122.533 300.651 121.985 300.737 121.442C300.811 120.947 300.919 120.457 301.06 119.976L301.047 120.024ZM301.047 120.024C300.999 120.164 300.955 120.3 300.916 120.462C300.9 120.502 300.887 120.543 300.876 120.585C300.85 120.663 300.833 120.746 300.811 120.834C300.789 120.921 300.772 120.974 300.754 121.048L300.702 121.28C300.691 121.319 300.682 121.359 300.675 121.398C300.677 121.438 300.677 121.477 300.675 121.517C300.675 121.556 300.675 121.595 300.649 121.63C300.623 121.783 300.597 121.945 300.57 122.107C300.544 122.269 300.527 122.422 300.509 122.58C300.509 122.58 300.509 122.646 300.509 122.676V122.711L300.535 122.768C300.535 122.768 300.535 122.768 300.535 122.794V122.829C300.539 122.842 300.539 122.856 300.535 122.869C300.539 122.882 300.539 122.895 300.535 122.908C300.535 122.956 300.57 123.004 300.588 123.048C300.59 123.057 300.59 123.066 300.588 123.074C300.601 122.525 300.651 121.976 300.737 121.433C300.811 120.938 300.919 120.448 301.06 119.968L301.047 120.024ZM301.047 120.024C300.999 120.164 300.955 120.3 300.916 120.462C300.9 120.502 300.887 120.543 300.876 120.585C300.85 120.663 300.833 120.746 300.811 120.834C300.789 120.921 300.772 120.974 300.754 121.048L300.702 121.28C300.691 121.319 300.682 121.359 300.675 121.398C300.677 121.438 300.677 121.477 300.675 121.517C300.675 121.556 300.675 121.595 300.649 121.63C300.623 121.783 300.597 121.945 300.57 122.107C300.544 122.269 300.527 122.422 300.509 122.58C300.509 122.58 300.509 122.646 300.509 122.676V122.711L300.535 122.768C300.535 122.768 300.535 122.768 300.535 122.794V122.829C300.539 122.842 300.539 122.856 300.535 122.869C300.539 122.882 300.539 122.895 300.535 122.908C300.535 122.956 300.57 123.004 300.588 123.048C300.59 123.057 300.59 123.066 300.588 123.074C300.601 122.525 300.651 121.976 300.737 121.433C300.811 120.938 300.919 120.448 301.06 119.968L301.047 120.024Z" fill="#30262A"></path>
<path d="M298.886 135.488C297.513 135.492 296.185 134.997 295.148 134.097C295.11 134.065 295.087 134.019 295.083 133.97C295.079 133.921 295.094 133.872 295.126 133.834C295.141 133.815 295.161 133.8 295.182 133.788C295.204 133.777 295.228 133.77 295.252 133.768C295.277 133.766 295.301 133.769 295.325 133.776C295.348 133.784 295.37 133.796 295.388 133.812C298.715 136.609 302.457 134.106 302.615 133.996C302.635 133.982 302.658 133.971 302.682 133.965C302.706 133.96 302.732 133.959 302.756 133.964C302.781 133.968 302.804 133.978 302.825 133.992C302.846 134.005 302.863 134.023 302.877 134.044C302.904 134.086 302.915 134.136 302.906 134.185C302.897 134.234 302.869 134.278 302.829 134.307C301.644 135.047 300.282 135.455 298.886 135.488Z" fill="#020202"></path>
<path d="M294.951 134.863C294.902 134.862 294.856 134.842 294.821 134.808C294.786 134.774 294.765 134.728 294.763 134.679C294.796 134.066 295.052 133.487 295.484 133.051L295.511 133.021C295.542 132.982 295.586 132.957 295.635 132.951C295.684 132.944 295.733 132.957 295.773 132.986C295.793 133 295.809 133.018 295.822 133.039C295.834 133.06 295.843 133.083 295.847 133.107C295.85 133.131 295.849 133.155 295.843 133.179C295.837 133.202 295.827 133.224 295.812 133.244L295.773 133.296C295.399 133.659 295.174 134.147 295.139 134.666C295.14 134.691 295.135 134.715 295.127 134.738C295.118 134.761 295.104 134.782 295.087 134.8C295.07 134.818 295.05 134.833 295.027 134.843C295.005 134.853 294.98 134.858 294.956 134.859L294.951 134.863Z" fill="#020202"></path>
<path d="M301.579 123.954C301.696 123.937 301.806 123.884 301.891 123.802C301.977 123.72 302.034 123.613 302.056 123.496C302.077 123.379 302.061 123.259 302.01 123.152C301.959 123.044 301.875 122.956 301.771 122.899C301.684 122.851 299.585 121.718 296.678 122.877C296.538 122.935 296.427 123.047 296.369 123.186C296.312 123.326 296.312 123.484 296.37 123.623C296.428 123.763 296.539 123.874 296.679 123.932C296.818 123.99 296.975 123.99 297.115 123.932C299.537 122.965 301.22 123.879 301.233 123.888C301.338 123.948 301.46 123.971 301.579 123.954Z" fill="#30262A"></path>
<path d="M280.83 103.76C280.83 103.76 277.363 91.2626 266.35 94.4613C255.338 97.6599 258.617 103.65 259.867 107.514C260.798 110.385 266.066 114.393 271.483 113.141C276.9 111.89 280.83 103.76 280.83 103.76Z" fill="#30262A"></path>
<path d="M275.632 143.671C275.562 143.671 275.494 143.652 275.435 143.614C275.397 143.589 275.364 143.556 275.339 143.518C275.313 143.479 275.295 143.437 275.286 143.391C275.278 143.346 275.278 143.3 275.287 143.255C275.296 143.21 275.313 143.167 275.339 143.129C277.05 140.777 279.377 138.945 282.063 137.834C282.149 137.799 282.246 137.8 282.331 137.837C282.417 137.873 282.485 137.942 282.52 138.029C282.554 138.115 282.553 138.212 282.517 138.298C282.48 138.383 282.411 138.451 282.325 138.486C279.778 139.555 277.566 141.294 275.925 143.518C275.892 143.566 275.848 143.604 275.797 143.631C275.746 143.658 275.689 143.672 275.632 143.671Z" fill="#30262A"></path>
<path d="M173.536 315.922C172.039 315.776 170.528 315.897 169.073 316.281C168.873 316.346 168.661 316.361 168.454 316.325C168.247 316.288 168.052 316.201 167.887 316.071C167.722 315.941 167.591 315.773 167.507 315.58C167.422 315.388 167.387 315.177 167.403 314.968V267.618C167.403 265.094 166.906 262.595 165.941 260.263C164.976 257.932 163.562 255.813 161.779 254.029C159.996 252.244 157.879 250.828 155.549 249.863C153.22 248.897 150.723 248.4 148.201 248.4H96.8934C96.4652 248.401 96.0445 248.513 95.6723 248.724C95.3 248.936 94.9887 249.241 94.7688 249.608C94.5488 249.976 94.4275 250.394 94.4168 250.823C94.4061 251.251 94.5062 251.675 94.7075 252.053C95.7595 253.962 96.2975 256.111 96.2687 258.291C96.2399 260.47 95.6452 262.605 94.5432 264.484C93.4411 266.364 91.8695 267.925 89.9827 269.013C88.0958 270.101 85.9586 270.68 83.781 270.691C81.6034 270.703 79.4601 270.148 77.5618 269.08C75.6634 268.012 74.0753 266.468 72.9531 264.6C71.831 262.732 71.2136 260.604 71.1614 258.425C71.1093 256.246 71.6243 254.091 72.6558 252.172C72.8607 251.777 72.9602 251.336 72.9448 250.892C72.9293 250.447 72.7994 250.014 72.5676 249.635C72.3358 249.255 72.0101 248.942 71.6219 248.726C71.2337 248.509 70.7962 248.397 70.3519 248.4H19.2012C14.1087 248.4 9.22483 250.424 5.62391 254.029C2.02299 257.633 0 262.521 0 267.618V396.742C0.00115901 401.838 2.02452 406.726 5.62519 410.33C9.22586 413.934 14.1091 415.959 19.2012 415.96H148.21C153.303 415.959 158.187 413.933 161.788 410.328C165.389 406.723 167.411 401.835 167.411 396.737V342.412C167.41 342.152 167.468 341.894 167.579 341.658C167.69 341.422 167.853 341.214 168.055 341.049C168.257 340.885 168.493 340.767 168.747 340.705C169 340.644 169.264 340.639 169.519 340.693C170.431 340.897 171.364 341 172.299 340.999C174.023 340.999 175.729 340.644 177.31 339.956C178.892 339.267 180.314 338.26 181.49 336.997C182.665 335.735 183.568 334.243 184.143 332.616C184.717 330.989 184.951 329.261 184.829 327.539C184.422 321.816 179.242 316.473 173.536 315.922Z" fill="#1A2578"></path>
<path d="M146.4 415.711H121.437C119.767 409.515 118.215 404.019 116.938 399.678C115.308 394.148 114.127 390.489 113.716 389.732C112.073 386.669 118.385 377.275 123.614 374.417C124.519 373.895 125.5 373.519 126.522 373.302C129.744 372.667 131.96 374.5 134.054 377.1C135.602 379.029 138.798 380.6 141.521 384.853C142.387 386.218 143.109 387.668 143.677 389.181C146.328 396.191 148.566 403.35 150.379 410.622C150.527 411.227 150.536 411.857 150.406 412.465C150.275 413.073 150.008 413.644 149.625 414.134C149.242 414.624 148.753 415.021 148.194 415.294C147.635 415.567 147.022 415.71 146.4 415.711Z" fill="white"></path>
<path d="M135.781 415.711H46.5075C46.5075 415.711 42.9183 402.96 43.6177 397C43.9282 394.305 44.2997 391.688 44.7413 389.181C45.0327 387.48 45.3592 385.834 45.7206 384.241C45.8061 383.86 45.9127 383.485 46.0398 383.116C46.2711 382.432 46.6235 381.794 47.0803 381.235C50.7133 376.96 58.9804 382.924 61.6385 377.275C61.6385 377.275 66.2333 366.882 78.4658 361.959C80.491 361.143 82.5906 360.524 84.7351 360.113C88.9025 359.331 93.165 359.194 97.3741 359.706L98.5851 359.846H98.62L99.8485 359.999C109.655 361.286 120.899 364.086 126.517 373.297C127.952 375.691 128.953 378.321 129.472 381.064C130.172 384.565 130.915 388.157 131.658 391.911C133.105 399.092 134.561 406.872 135.781 415.711Z" fill="#BF0830"></path>
<path d="M32.1641 380.469L57.6214 398.099C57.6214 398.099 103.333 404.754 115.68 400.169C129.792 394.918 143.074 383.576 143.074 383.576C143.074 383.576 133.915 363.382 99.8141 359.916C95.8445 359.514 81.1725 360.104 77.2947 360.695C42.1231 366.038 32.1641 380.469 32.1641 380.469Z" fill="#BF0830"></path>
<path d="M32.1635 380.469C30.5547 382.941 32.1329 390.131 40.6711 395.324C49.2093 400.518 55.7278 401.682 57.6208 398.099C59.0504 395.399 55.3605 386.109 47.2201 381.318C38.8349 376.378 33.3089 378.705 32.1635 380.469Z" fill="#30262A"></path>
<path d="M54.0536 400.146C53.341 401.096 50.4425 407.047 46.5078 415.711H21.6582C20.8719 415.711 20.0982 415.513 19.4081 415.136C18.718 414.759 18.1336 414.214 17.7084 413.552C17.2833 412.89 17.0311 412.132 16.9749 411.347C16.9187 410.562 17.0604 409.776 17.3869 409.06C19.6457 404.139 22.0225 399.471 24.5174 395.058C27.9449 388.997 29.8117 386.118 31.7266 384.07C32.072 383.698 32.4217 383.357 32.7846 383.024C33.2509 382.597 33.773 382.235 34.3366 381.948C37.5368 380.285 42.3152 380.543 46.04 383.094C46.2193 383.217 46.3985 383.344 46.5734 383.479C49.8129 385.956 53.0962 391.526 54.1804 395.692C54.6788 397.639 54.7094 399.263 54.0536 400.146Z" fill="white"></path>
<path d="M75.8083 360.984C77.5528 360.802 79.2179 360.161 80.6335 359.124C82.0491 358.088 83.1644 356.694 83.8656 355.085L88.2943 344.789L89.5796 341.8L97.1342 324.232L95.8226 342.439L95.0313 353.378L94.8083 356.494C94.7208 357.722 95.0917 358.939 95.8493 359.909C96.6069 360.879 97.6972 361.533 98.9091 361.745H98.9528C100.295 363.933 102.153 368.383 96.6052 370.151C90.0824 372.229 79.555 367.088 75.7471 361.001L75.8083 360.984Z" fill="white"></path>
<path d="M88.2722 344.487C88.2722 344.588 88.2722 344.689 88.2722 344.789C88.7094 350.657 94.9787 353.401 94.9787 353.401L95.0136 353.366L95.8049 342.426C93.8857 341.722 91.1533 341 89.5575 341.788C88.7444 342.212 88.2154 343.035 88.2722 344.487Z" fill="#30262A"></path>
<path d="M97.9607 348.246C107.401 348.246 115.055 338.797 115.055 327.141C115.055 315.486 107.401 306.037 97.9607 306.037C88.52 306.037 80.8667 315.486 80.8667 327.141C80.8667 338.797 88.52 348.246 97.9607 348.246Z" fill="white"></path>
<path d="M107.172 340.798C103.202 340.789 99.2593 340.142 95.4944 338.882C95.4944 338.882 95.0092 344.64 101.331 345.008C104.986 345.253 107.172 340.798 107.172 340.798Z" fill="white"></path>
<path d="M99.6132 327.348C99.6721 327.332 99.7266 327.304 99.7722 327.263C99.8178 327.223 99.8533 327.172 99.8755 327.116C99.913 327.019 99.911 326.912 99.8701 326.817C99.8292 326.722 99.7527 326.647 99.6569 326.608C98.8121 326.212 97.8597 326.107 96.949 326.31C96.0384 326.514 95.221 327.014 94.625 327.733C94.5539 327.807 94.5142 327.906 94.5142 328.008C94.5142 328.111 94.5539 328.21 94.625 328.284C94.7028 328.347 94.8001 328.382 94.9004 328.382C95.0007 328.382 95.0979 328.347 95.1758 328.284C96.4281 327.52 97.8967 327.189 99.3553 327.343C99.4383 327.374 99.5292 327.375 99.6132 327.348Z" fill="#080435"></path>
<path d="M96.5394 331.623C96.5088 332.55 97.029 333.32 97.7022 333.342C98.3755 333.364 98.9439 332.629 98.9745 331.701C99.0051 330.774 98.4848 330.004 97.8115 329.982C97.1383 329.96 96.57 330.695 96.5394 331.623Z" fill="#080435"></path>
<path d="M113.493 329.373C113.553 329.381 113.614 329.375 113.671 329.356C113.728 329.336 113.779 329.303 113.821 329.26C113.893 329.186 113.934 329.087 113.934 328.984C113.934 328.881 113.893 328.782 113.821 328.708C113.191 328.02 112.35 327.561 111.43 327.403C110.511 327.244 109.565 327.396 108.741 327.833C108.647 327.876 108.574 327.954 108.537 328.051C108.5 328.148 108.503 328.255 108.544 328.349C108.594 328.436 108.672 328.502 108.765 328.538C108.858 328.574 108.961 328.577 109.056 328.546C110.505 328.313 111.991 328.569 113.279 329.273C113.337 329.329 113.413 329.364 113.493 329.373Z" fill="#080435"></path>
<path d="M109.021 332.156C108.64 333.001 108.828 333.907 109.458 334.187C110.087 334.467 110.874 334.003 111.255 333.154C111.635 332.305 111.447 331.404 110.817 331.124C110.188 330.844 109.401 331.307 109.021 332.156Z" fill="#080435"></path>
<path d="M108.68 349.637C107.285 349.631 105.913 349.282 104.684 348.622C104.601 348.557 104.545 348.464 104.525 348.36C104.506 348.256 104.524 348.149 104.577 348.057C104.631 347.966 104.715 347.897 104.815 347.864C104.915 347.83 105.024 347.834 105.121 347.874C106.478 348.64 108.052 348.927 109.591 348.689C111.131 348.451 112.545 347.701 113.607 346.561C117.507 342.623 114.792 338.313 114.674 338.133C114.61 338.036 114.588 337.917 114.611 337.803C114.635 337.689 114.703 337.589 114.801 337.525C114.898 337.461 115.017 337.439 115.131 337.463C115.245 337.486 115.345 337.555 115.408 337.652C115.439 337.705 118.635 342.706 114.228 347.174C113.521 347.943 112.664 348.558 111.71 348.982C110.755 349.406 109.724 349.629 108.68 349.637Z" fill="#74BBFB"></path>
<path d="M92.7441 312.207C93.3606 316.027 92.3813 318.994 104.111 321.834C104.111 321.834 106.043 323.112 106.153 321.033C106.262 318.955 103.32 315.782 104.898 313.371C104.898 313.371 113.327 330.835 116.134 327.137C118.94 323.44 122.621 311.477 116.134 304.178C109.646 296.879 89.2948 295.317 85.8847 301.259C80.8702 310.019 92.2195 308.939 92.7441 312.207Z" fill="#30262A"></path>
<path d="M85.557 305.272C85.557 305.272 90.7246 306.558 90.4972 308.873C90.2699 311.188 93.9073 315.555 90.4972 317.016C87.0872 318.478 86.2565 319.353 86.2696 321.913C86.2696 323.698 83.1613 327.636 82.0421 331.216C81.5568 332.773 82.4792 336.073 82.4792 336.073C82.4792 336.073 69.4205 331.662 71.7551 316.745C73.2677 307.035 82.2869 303.955 85.557 305.272Z" fill="#30262A"></path>
<path d="M81.1896 330.327C83.1263 332.174 85.8325 332.366 87.2359 330.765C88.6393 329.163 88.2064 326.341 86.2741 324.49C84.3417 322.639 81.6268 322.451 80.2234 324.052C78.8201 325.654 79.2529 328.476 81.1896 330.327Z" fill="white"></path>
<path d="M82.9125 345.165C82.5493 345.166 82.1868 345.136 81.8283 345.078C78.803 344.592 76.2411 342.273 76.1186 339.906C75.8913 335.578 80.1495 332.139 80.3287 331.994C80.3738 331.959 80.4255 331.932 80.4809 331.916C80.5363 331.9 80.5942 331.895 80.6515 331.902C80.7087 331.908 80.7641 331.926 80.8145 331.954C80.8649 331.982 80.9093 332.019 80.9452 332.064C80.9811 332.11 81.0077 332.161 81.0236 332.217C81.0395 332.272 81.0444 332.33 81.0379 332.387C81.0314 332.445 81.0137 332.5 80.9858 332.551C80.9578 332.601 80.9203 332.646 80.8752 332.681C80.8315 332.716 76.7875 335.99 76.993 339.858C77.0936 341.805 79.3713 343.796 81.9682 344.233C84.8973 344.702 87.3194 343.065 88.6134 339.74C89.5578 337.311 89.584 335.211 88.6921 333.495C87.2363 330.699 83.8131 329.828 83.7781 329.82C83.7205 329.808 83.6659 329.784 83.6176 329.751C83.5692 329.717 83.5281 329.674 83.4967 329.624C83.4654 329.575 83.4444 329.519 83.435 329.461C83.4257 329.403 83.4281 329.343 83.4422 329.286C83.4564 329.229 83.4819 329.175 83.5173 329.128C83.5527 329.081 83.5971 329.042 83.6481 329.012C83.699 328.983 83.7554 328.964 83.8138 328.957C83.8723 328.95 83.9315 328.954 83.988 328.971C84.141 329.006 87.8352 329.947 89.4703 333.093C90.4802 335.04 90.4671 337.385 89.431 340.059C87.7391 344.387 84.8012 345.165 82.9125 345.165Z" fill="#74BBFB"></path>
<path d="M75.7508 304.182C75.654 304.183 75.5597 304.152 75.4827 304.093C75.4057 304.034 75.3504 303.952 75.3254 303.858C75.3004 303.764 75.3071 303.665 75.3445 303.576C75.382 303.486 75.448 303.412 75.5322 303.364C76.6442 302.676 77.9256 302.312 79.2329 302.312C80.5402 302.312 81.8217 302.676 82.9338 303.364C82.9842 303.395 83.0277 303.437 83.0616 303.485C83.0956 303.534 83.1193 303.589 83.1313 303.647C83.1433 303.705 83.1434 303.765 83.1315 303.824C83.1196 303.882 83.096 303.937 83.0622 303.986C83.0283 304.034 82.9849 304.076 82.9346 304.107C82.8842 304.139 82.828 304.159 82.7694 304.168C82.7107 304.177 82.6509 304.174 82.5934 304.16C82.536 304.145 82.4822 304.118 82.4354 304.082C81.4628 303.484 80.3437 303.167 79.2024 303.167C78.061 303.167 76.9419 303.484 75.9694 304.082C75.9073 304.135 75.8316 304.17 75.7508 304.182Z" fill="#30262A"></path>
<path d="M83.7301 302.576C83.6142 302.576 83.503 302.53 83.421 302.448C83.339 302.366 83.293 302.255 83.293 302.139C83.293 302.012 83.293 298.997 84.6701 297.855C84.7596 297.782 84.8741 297.748 84.9887 297.759C85.1033 297.771 85.2088 297.827 85.2822 297.916C85.319 297.96 85.3467 298.011 85.3638 298.066C85.3808 298.121 85.3869 298.179 85.3816 298.236C85.3764 298.294 85.3598 298.349 85.333 298.4C85.3061 298.451 85.2696 298.496 85.2253 298.533C84.351 299.259 84.163 301.377 84.1673 302.13C84.1673 302.246 84.1213 302.357 84.0393 302.439C83.9573 302.521 83.8461 302.568 83.7301 302.568V302.576Z" fill="#30262A"></path>
<g filter="url('#filter0_d_1_90251')">
<path d="M574.527 391.054C574.527 393.578 574.03 396.077 573.064 398.409C572.099 400.741 570.685 402.86 568.901 404.645C567.118 406.429 565 407.845 562.67 408.81C560.34 409.776 557.843 410.273 555.321 410.272H426.316C421.225 410.272 416.341 408.248 412.741 404.645C409.14 401.041 407.116 396.154 407.115 391.058V337.622C407.117 337.181 407.221 336.747 407.418 336.353C407.615 335.959 407.9 335.616 408.251 335.351C408.602 335.085 409.01 334.904 409.442 334.822C409.875 334.74 410.32 334.759 410.744 334.878C412.587 335.377 414.52 335.448 416.394 335.087C418.269 334.726 420.037 333.941 421.564 332.794C423.09 331.646 424.335 330.164 425.203 328.462C426.072 326.761 426.541 324.883 426.575 322.972C426.609 321.061 426.208 319.168 425.401 317.436C424.594 315.704 423.403 314.179 421.919 312.977C420.435 311.775 418.696 310.927 416.835 310.499C414.975 310.071 413.041 310.073 411.181 310.505C410.697 310.62 410.193 310.624 409.707 310.516C409.222 310.408 408.766 310.192 408.376 309.884C407.985 309.575 407.669 309.183 407.452 308.735C407.234 308.287 407.121 307.796 407.12 307.298V261.934C407.12 256.837 409.143 251.949 412.743 248.345C416.344 244.741 421.228 242.716 426.321 242.716H477.471C477.916 242.714 478.353 242.826 478.741 243.042C479.13 243.259 479.455 243.572 479.687 243.951C479.919 244.331 480.049 244.763 480.064 245.208C480.08 245.652 479.98 246.093 479.775 246.488C478.71 248.47 478.196 250.702 478.287 252.951C478.378 255.2 479.07 257.383 480.291 259.273C481.512 261.163 483.217 262.69 485.229 263.695C487.241 264.701 489.485 265.147 491.728 264.989C493.83 264.839 495.861 264.161 497.633 263.019C499.406 261.877 500.862 260.308 501.869 258.454C502.876 256.601 503.4 254.524 503.395 252.414C503.389 250.305 502.853 248.231 501.836 246.383C501.631 246.004 501.529 245.579 501.538 245.149C501.547 244.718 501.668 244.298 501.888 243.928C502.108 243.558 502.421 243.252 502.795 243.04C503.169 242.827 503.592 242.716 504.022 242.716H555.325C557.847 242.716 560.344 243.213 562.673 244.179C565.003 245.145 567.12 246.56 568.903 248.345C570.686 250.13 572.1 252.248 573.065 254.58C574.03 256.912 574.527 259.411 574.527 261.934V391.054Z" fill="white"></path>
</g>
<path d="M429.914 409.902H454.878C456.552 403.71 458.1 398.21 459.381 393.874C461.007 388.338 462.188 384.685 462.598 383.923C464.242 380.86 457.929 371.465 452.705 368.608C451.799 368.089 450.818 367.713 449.798 367.492C446.571 366.858 444.355 368.696 442.261 371.295C440.713 373.22 437.517 374.795 434.794 379.049C433.928 380.411 433.206 381.86 432.638 383.372C429.987 390.381 427.749 397.541 425.936 404.813C425.787 405.417 425.777 406.048 425.907 406.657C426.037 407.265 426.304 407.836 426.688 408.327C427.071 408.817 427.561 409.214 428.12 409.487C428.679 409.759 429.292 409.902 429.914 409.902Z" fill="#D6D6D6"></path>
<path d="M440.542 409.902H529.816C529.816 409.902 533.409 397.151 532.71 391.191C532.395 388.495 532.024 385.879 531.582 383.371C531.291 381.671 530.964 380.025 530.603 378.436C530.519 378.055 530.413 377.679 530.284 377.311C530.054 376.626 529.702 375.988 529.243 375.429C525.614 371.154 517.343 377.119 514.685 371.465C514.685 371.465 510.09 361.077 497.858 356.15C495.833 355.337 493.735 354.72 491.593 354.308C487.423 353.528 483.16 353.391 478.949 353.901L477.738 354.041H477.703L476.47 354.198C466.664 355.48 455.42 358.281 449.802 367.492C448.363 369.886 447.361 372.518 446.842 375.263C446.143 378.764 445.4 382.352 444.656 386.106C443.209 393.283 441.753 401.063 440.542 409.902Z" fill="#BF0830"></path>
<path d="M544.156 374.66L518.694 392.29C518.694 392.29 472.982 398.949 460.636 394.359C446.523 389.108 433.246 377.766 433.246 377.766C433.246 377.766 442.401 357.572 476.527 354.107C480.493 353.704 495.165 354.299 499.042 354.886C534.197 360.228 544.156 374.66 544.156 374.66Z" fill="#BF0830"></path>
<path d="M544.156 374.659C545.765 377.136 544.191 384.321 535.653 389.537C527.114 394.753 520.592 395.895 518.699 392.311C517.273 389.611 520.963 380.322 529.099 375.53C537.48 370.568 543.006 372.896 544.156 374.659Z" fill="#30262A"></path>
<path d="M522.261 394.337C522.973 395.291 525.872 401.238 529.807 409.902H554.648C555.434 409.902 556.208 409.704 556.898 409.327C557.588 408.95 558.172 408.405 558.597 407.743C559.023 407.081 559.275 406.323 559.331 405.538C559.387 404.753 559.246 403.967 558.919 403.251C556.657 398.332 554.282 393.665 551.793 389.248C548.365 383.192 546.494 380.309 544.579 378.261C544.234 377.889 543.884 377.548 543.526 377.215C543.057 376.789 542.533 376.427 541.969 376.139C538.769 374.476 533.991 374.734 530.266 377.289C530.087 377.408 529.907 377.535 529.732 377.67C526.493 380.151 523.21 385.717 522.125 389.883C521.636 391.852 521.605 393.453 522.261 394.337Z" fill="#D6D6D6"></path>
<path d="M461.768 346.252L461.891 345.871C461.847 345.871 457.593 344.471 456.588 341.421C456.067 339.837 456.504 338.065 457.899 336.17C458.55 335.269 459.149 334.455 459.7 333.711C463.482 328.574 464.898 326.653 464.304 322.172L463.91 322.225C464.483 326.548 463.198 328.294 459.381 333.475C458.83 334.219 458.231 335.032 457.58 335.934C456.115 337.96 455.656 339.872 456.22 341.565C457.278 344.79 461.589 346.195 461.768 346.252Z" fill="#30262A"></path>
<path d="M464.098 322.181C464.098 322.181 465.091 329.125 460.032 335.934C454.974 342.743 459.503 348.335 465.834 346.046C472.164 343.758 473.913 351.735 482.066 348.02C490.22 344.305 464.098 322.181 464.098 322.181Z" fill="#30262A"></path>
<path d="M490.767 348.912L487.269 338.796L486.259 335.859L480.327 318.588L480.27 336.017L480.239 346.479V349.459C480.301 353.472 476.445 354.185 476.445 354.185C475.011 356.172 472.396 360.25 477.551 362.333C483.61 364.779 494.544 360.351 498.584 354.824C498.571 354.824 491.877 352.142 490.767 348.912Z" fill="#D6D6D6"></path>
<path d="M487.321 338.511C487.321 338.603 487.299 338.699 487.282 338.796C486.451 344.353 480.287 346.51 480.287 346.51L480.252 346.48L480.282 336.017C482.162 335.488 484.812 334.993 486.276 335.86C487.046 336.31 487.483 337.155 487.321 338.511Z" fill="#A6A6A6"></path>
<path d="M463.076 320.089C463.911 308.993 471.872 300.547 480.86 301.226C489.849 301.904 496.455 311.447 495.62 322.544C494.785 333.641 486.824 342.086 477.835 341.408C468.846 340.73 462.241 331.173 463.076 320.089Z" fill="#D6D6D6"></path>
<path d="M493.215 325.397C491.239 327.016 488.646 327.003 487.426 325.367C486.207 323.73 486.819 321.083 488.795 319.459C490.771 317.836 493.363 317.849 494.583 319.49C495.803 321.131 495.191 323.774 493.215 325.397Z" fill="#D6D6D6"></path>
<path d="M469.607 333.654C473.387 333.929 477.186 333.595 480.86 332.665C480.86 332.665 480.908 338.183 474.862 338.096C471.343 338.03 469.607 333.654 469.607 333.654Z" fill="#1A2578"></path>
<path d="M469.607 333.654C469.607 333.654 470.866 334.871 474.005 335.094C477.144 335.317 480.86 332.665 480.86 332.665C480.86 332.665 474.023 333.991 469.607 333.654Z" fill="white"></path>
<path d="M477.76 321.376C477.705 321.358 477.655 321.327 477.615 321.286C477.575 321.245 477.545 321.195 477.528 321.14C477.513 321.093 477.508 321.044 477.511 320.995C477.515 320.946 477.529 320.899 477.551 320.856C477.574 320.812 477.604 320.773 477.642 320.742C477.679 320.71 477.722 320.686 477.769 320.671C478.602 320.354 479.516 320.323 480.369 320.582C481.222 320.84 481.965 321.375 482.481 322.102C482.543 322.179 482.572 322.277 482.563 322.376C482.553 322.474 482.505 322.564 482.429 322.627C482.349 322.682 482.253 322.706 482.157 322.696C482.061 322.687 481.972 322.644 481.904 322.575C480.762 321.751 479.377 321.332 477.97 321.385C477.9 321.401 477.828 321.398 477.76 321.376Z" fill="#080435"></path>
<path d="M480.379 325.669C480.344 326.544 479.789 327.253 479.151 327.222C478.513 327.191 478.019 326.456 478.054 325.568C478.088 324.68 478.644 323.988 479.286 324.015C479.929 324.041 480.419 324.785 480.379 325.669Z" fill="#080435"></path>
<path d="M464.405 322.313C464.347 322.316 464.289 322.306 464.236 322.284C464.183 322.261 464.135 322.226 464.098 322.181C464.036 322.105 464.006 322.007 464.015 321.909C464.024 321.811 464.071 321.72 464.147 321.656C464.795 321.046 465.628 320.669 466.514 320.583C467.4 320.498 468.29 320.709 469.043 321.184C469.129 321.231 469.193 321.31 469.222 321.404C469.251 321.498 469.241 321.6 469.196 321.687C469.145 321.768 469.065 321.829 468.973 321.857C468.881 321.885 468.781 321.879 468.693 321.84C467.331 321.516 465.9 321.653 464.623 322.229C464.56 322.279 464.484 322.308 464.405 322.313Z" fill="#080435"></path>
<path d="M468.461 325.283C468.763 326.115 468.518 326.968 467.911 327.187C467.303 327.406 466.573 326.907 466.271 326.075C465.969 325.244 466.214 324.386 466.822 324.168C467.43 323.949 468.16 324.465 468.461 325.283Z" fill="#080435"></path>
<path d="M473.677 304.337C473.677 304.337 473.502 311.338 482.11 313.176C490.718 315.014 496.441 319.157 494.789 325.34C493.136 331.523 478.149 343.478 488.073 349.293C497.997 355.108 496.511 345.547 507.519 348.571C518.528 351.595 521.667 336.813 514.628 327.568C507.589 318.322 512.442 295.625 483.505 294.469C454.567 293.314 463.394 317.145 463.394 317.145C463.394 317.145 473.113 312.034 473.677 304.337Z" fill="#30262A"></path>
<path d="M490.955 350.803C488.852 349.766 487.614 348.357 487.282 346.624C486.368 341.854 492.34 335.199 497.613 329.331C498.999 327.786 500.31 326.329 501.482 324.929C504.726 321.048 505.334 316.366 503.104 312.406C500.656 308.065 495.536 305.921 489.744 306.813C483.951 307.706 480.152 306.218 477.97 304.818C476.602 303.988 475.439 302.858 474.569 301.514L474.774 301.401C474.814 301.466 478.814 308.257 489.704 306.581C495.602 305.671 500.813 307.859 503.309 312.27C505.552 316.256 504.923 321.157 501.661 325.06C500.49 326.46 499.178 327.922 497.788 329.467C492.542 335.295 486.622 341.902 487.514 346.558C487.837 348.239 488.996 349.551 491.059 350.571L490.955 350.803Z" fill="white"></path>
<path d="M462.839 335.12C460.465 334.035 458.515 331.182 457.637 327.463C456.203 321.411 458.017 314.944 461.68 313.023C462.332 312.669 463.057 312.476 463.797 312.459C464.538 312.441 465.272 312.6 465.939 312.922C468.313 314.007 470.262 316.86 471.141 320.571C472.575 326.609 470.761 333.09 467.097 335.011C466.318 335.432 465.436 335.622 464.553 335.558C463.96 335.513 463.38 335.365 462.839 335.12ZM470.433 320.768C469.607 317.267 467.81 314.598 465.624 313.605C465.057 313.333 464.434 313.199 463.805 313.212C463.176 313.225 462.56 313.385 462.004 313.679C458.611 315.429 456.968 321.555 458.332 327.292C459.158 330.792 460.955 333.462 463.141 334.459C463.708 334.728 464.33 334.861 464.957 334.848C465.584 334.835 466.2 334.676 466.756 334.385C470.149 332.608 471.797 326.509 470.433 320.768Z" fill="#1A2578"></path>
<g opacity="0.3">
<path opacity="0.3" d="M490.246 318.173C491.12 324.01 488.567 330.014 484.563 331.58C480.558 333.147 476.575 329.69 475.701 323.857C474.827 318.024 477.38 312.042 481.384 310.45C485.389 308.857 489.372 312.34 490.246 318.173Z" fill="white"></path>
</g>
<g opacity="0.3">
<path opacity="0.3" d="M471.25 321.083C472.125 326.946 469.912 333.064 466.31 334.748C462.708 336.433 459.07 333.046 458.196 327.187C457.321 321.328 459.534 315.206 463.136 313.522C466.738 311.837 470.376 315.224 471.25 321.083Z" fill="white"></path>
</g>
<path d="M479.128 331.252C476.72 329.847 475.015 326.959 474.455 323.327C473.493 317.092 476.309 310.638 480.737 308.957C481.592 308.62 482.513 308.484 483.429 308.56C484.345 308.636 485.231 308.922 486.019 309.395C488.423 310.795 490.119 313.683 490.675 317.306C491.641 323.555 488.825 329.996 484.392 331.676C483.56 332.01 482.663 332.15 481.769 332.088C480.837 332.012 479.934 331.726 479.128 331.252ZM480.991 309.631C476.873 311.206 474.263 317.298 475.172 323.196C475.692 326.561 477.31 329.322 479.496 330.609C480.192 331.014 480.971 331.259 481.774 331.325C482.577 331.391 483.385 331.276 484.139 330.989C488.261 329.414 490.871 323.323 489.962 317.424C489.446 314.064 487.833 311.298 485.651 310.021C484.956 309.602 484.175 309.349 483.367 309.281C482.559 309.212 481.746 309.331 480.991 309.627V309.631Z" fill="#1A2578"></path>
<path d="M470.324 323.174C470.48 323.184 470.634 323.139 470.761 323.047C470.84 322.99 472.698 321.735 475.679 322.553C475.852 322.595 476.035 322.57 476.19 322.482C476.346 322.394 476.461 322.251 476.514 322.08C476.539 321.995 476.546 321.905 476.535 321.817C476.524 321.728 476.495 321.643 476.451 321.566C476.406 321.489 476.347 321.421 476.276 321.368C476.205 321.314 476.124 321.275 476.038 321.253C472.444 320.216 470.083 321.87 469.978 321.936C469.906 321.988 469.845 322.053 469.798 322.129C469.751 322.204 469.719 322.289 469.705 322.376C469.691 322.464 469.694 322.554 469.715 322.641C469.735 322.727 469.773 322.809 469.825 322.881C469.88 322.965 469.954 323.035 470.041 323.085C470.127 323.136 470.224 323.167 470.324 323.174Z" fill="#1A2578"></path>
<path d="M555.927 44H426.918C421.826 44 416.943 46.0242 413.342 49.6273C409.741 53.2305 407.718 58.1176 407.717 63.2139V108.577C407.718 109.075 407.832 109.567 408.049 110.015C408.267 110.463 408.582 110.856 408.973 111.164C409.363 111.473 409.818 111.69 410.304 111.798C410.79 111.906 411.294 111.903 411.778 111.789C413.64 111.354 415.576 111.349 417.439 111.776C419.302 112.203 421.043 113.05 422.53 114.252C424.017 115.455 425.21 116.981 426.018 118.714C426.827 120.448 427.229 122.344 427.195 124.256C427.16 126.169 426.69 128.049 425.82 129.752C424.95 131.456 423.703 132.938 422.174 134.086C420.645 135.235 418.875 136.018 416.997 136.378C415.12 136.738 413.186 136.664 411.341 136.162C410.917 136.042 410.471 136.023 410.039 136.104C409.606 136.186 409.198 136.367 408.846 136.632C408.495 136.898 408.21 137.241 408.013 137.636C407.816 138.03 407.713 138.465 407.712 138.905V192.338C407.712 194.861 408.209 197.36 409.174 199.692C410.139 202.024 411.553 204.142 413.336 205.927C415.119 207.712 417.236 209.127 419.566 210.093C421.895 211.059 424.392 211.556 426.914 211.556H476.368C476.751 211.559 477.129 211.638 477.48 211.79C477.831 211.942 478.148 212.163 478.412 212.441C478.676 212.718 478.882 213.046 479.016 213.404C479.151 213.762 479.212 214.144 479.197 214.527C479.184 215.053 479.201 215.579 479.249 216.102C479.567 219.312 481.105 222.276 483.545 224.383C485.985 226.489 489.14 227.576 492.359 227.419C495.577 227.263 498.612 225.874 500.837 223.54C503.061 221.207 504.304 218.107 504.309 214.881C504.309 214.689 504.309 214.496 504.309 214.308C504.286 213.956 504.336 213.604 504.455 213.272C504.574 212.94 504.759 212.637 504.999 212.379C505.24 212.121 505.53 211.915 505.852 211.774C506.175 211.632 506.523 211.558 506.875 211.556H555.931C561.024 211.556 565.909 209.531 569.51 205.927C573.112 202.323 575.136 197.435 575.137 192.338V63.2139C575.137 60.6896 574.64 58.19 573.674 55.858C572.709 53.526 571.294 51.4073 569.51 49.623C567.726 47.8386 565.608 46.4236 563.277 45.4588C560.947 44.494 558.449 43.9983 555.927 44Z" fill="#F5F6FC"></path>
<path d="M486.121 232.853C485.876 232.853 485.636 232.853 485.396 232.853C482.345 232.667 479.459 231.403 477.252 229.286C475.046 227.168 473.664 224.335 473.351 221.292C473.301 220.758 473.284 220.222 473.299 219.686C473.31 219.33 473.25 218.975 473.122 218.643C472.993 218.31 472.799 218.007 472.551 217.752C472.315 217.507 472.032 217.312 471.719 217.179C471.405 217.047 471.068 216.98 470.728 216.982H421.278C416.118 216.976 411.17 214.922 407.522 211.27C403.873 207.617 401.82 202.666 401.815 197.501V144.051C401.811 143.574 401.92 143.103 402.131 142.675C402.342 142.248 402.65 141.875 403.03 141.588C403.414 141.292 403.862 141.09 404.338 140.997C404.813 140.904 405.304 140.924 405.771 141.054C407.577 141.545 409.471 141.618 411.309 141.266C413.147 140.915 414.88 140.148 416.377 139.024C417.874 137.9 419.095 136.45 419.947 134.782C420.8 133.115 421.26 131.275 421.295 129.402C421.329 127.53 420.936 125.674 420.145 123.976C419.355 122.279 418.188 120.784 416.733 119.606C415.278 118.428 413.574 117.598 411.75 117.179C409.926 116.76 408.031 116.764 406.208 117.189C405.686 117.31 405.143 117.313 404.62 117.195C404.097 117.078 403.607 116.844 403.187 116.511C402.767 116.178 402.427 115.754 402.193 115.272C401.96 114.789 401.838 114.26 401.836 113.723V68.3597C401.843 63.1956 403.896 58.2451 407.545 54.594C411.194 50.9428 416.14 48.8891 421.3 48.8833H550.309C555.468 48.8891 560.414 50.9429 564.062 54.5942C567.71 58.2455 569.762 63.196 569.768 68.3597V197.479C569.762 202.644 567.71 207.596 564.061 211.249C560.412 214.902 555.465 216.957 550.304 216.964H501.222C500.913 216.963 500.608 217.025 500.325 217.146C500.041 217.267 499.786 217.445 499.573 217.669C499.352 217.902 499.181 218.177 499.068 218.477C498.955 218.778 498.904 219.098 498.918 219.419C498.918 219.612 498.918 219.809 498.918 220.001C498.918 223.402 497.568 226.664 495.166 229.07C492.764 231.476 489.506 232.828 486.108 232.831L486.121 232.853ZM404.932 141.461C404.358 141.463 403.8 141.654 403.345 142.003C403.03 142.243 402.775 142.553 402.601 142.909C402.426 143.264 402.337 143.655 402.339 144.051V197.483C402.344 202.509 404.341 207.328 407.891 210.882C411.442 214.436 416.257 216.435 421.278 216.439H470.728C471.136 216.44 471.539 216.523 471.915 216.682C472.29 216.842 472.63 217.074 472.914 217.367C473.208 217.674 473.436 218.037 473.587 218.435C473.737 218.833 473.805 219.257 473.788 219.682C473.775 220.196 473.793 220.71 473.841 221.222C474.14 224.141 475.466 226.859 477.581 228.891C479.697 230.922 482.465 232.136 485.391 232.314C487.062 232.408 488.733 232.159 490.304 231.584C491.875 231.008 493.313 230.118 494.528 228.967C495.743 227.817 496.712 226.43 497.373 224.892C498.035 223.354 498.376 221.697 498.376 220.023C498.376 219.835 498.376 219.651 498.376 219.463C498.358 219.069 498.42 218.675 498.557 218.305C498.695 217.935 498.905 217.597 499.176 217.31C499.436 217.033 499.75 216.813 500.099 216.662C500.448 216.512 500.824 216.434 501.204 216.435H550.265C555.287 216.429 560.102 214.43 563.654 210.875C567.205 207.321 569.203 202.501 569.208 197.475V68.3597C569.201 63.3379 567.206 58.5236 563.66 54.9714C560.113 51.4192 555.304 49.4188 550.287 49.4084H421.278C416.257 49.413 411.442 51.4116 407.891 54.9655C404.341 58.5194 402.344 63.3382 402.339 68.3641V113.732C402.338 114.191 402.442 114.644 402.641 115.057C402.841 115.47 403.132 115.833 403.491 116.117C403.851 116.401 404.271 116.6 404.719 116.699C405.167 116.797 405.631 116.793 406.077 116.685C407.036 116.465 408.018 116.354 409.002 116.353C410.827 116.356 412.631 116.748 414.292 117.505C415.953 118.262 417.434 119.365 418.635 120.741C419.836 122.116 420.73 123.733 421.256 125.482C421.783 127.232 421.93 129.073 421.688 130.884C421.446 132.695 420.82 134.433 419.853 135.982C418.885 137.531 417.598 138.856 416.078 139.867C414.558 140.879 412.84 141.553 411.038 141.846C409.236 142.139 407.393 142.044 405.631 141.566C405.403 141.501 405.168 141.466 404.932 141.461Z" fill="#30262A"></path>
<path d="M477.691 147.91C477.691 147.91 475.331 137.365 480.463 130.985C485.596 124.605 502.126 116.724 498.899 107.675C495.673 98.6264 484.512 97.5412 480.039 101.917C475.567 106.293 478.067 111.045 475.051 111.635C472.034 112.226 454.503 113.058 455.775 102.985C457.048 92.9117 468.288 78.8699 483.257 78.3973C498.226 77.9248 518.131 78.126 522.455 97.6506C526.779 117.175 519.395 124.833 508.81 129.869C498.226 134.906 503.149 146.348 499.306 147.919C495.463 149.49 478.146 151.319 477.691 147.91Z" fill="#BF0830"></path>
<path d="M473.919 167.553C475.068 159.48 479.781 154.426 487.034 154.426C494.287 154.426 500.294 158.145 502.113 167.465C503.503 174.571 494.27 180.645 487.034 180.645C479.799 180.645 472.887 174.711 473.919 167.553Z" fill="#BF0830"></path>
<path d="M481.377 150.772C478.614 150.772 476.223 150.501 475.016 149.801C474.806 149.704 474.622 149.559 474.479 149.379C474.335 149.198 474.236 148.986 474.19 148.759C473.798 146.755 473.618 144.715 473.652 142.673C473.696 139.522 474.312 135.072 476.983 131.755C478.575 129.773 481.263 127.651 484.105 125.402C490.435 120.396 497.61 114.725 495.402 108.542C494.72 106.577 493.545 104.82 491.99 103.44C490.434 102.061 488.55 101.105 486.518 100.666C482.754 99.7904 478.907 100.666 476.712 102.805C474.369 105.111 473.967 107.465 473.652 109.369C473.376 110.988 473.162 112.266 471.676 112.559C469.101 113.062 458.6 113.548 454.188 109.413C452.632 107.96 452.002 106.07 452.282 103.799C453.559 93.8175 464.668 79.6051 479.856 79.1281C487.428 78.8875 496.123 78.8393 503.464 81.2591C512.076 84.0902 517.204 89.7131 519.137 98.447C521.161 107.566 520.754 114.637 517.899 120.05C515.565 124.478 511.722 127.786 505.44 130.771C498.882 133.886 498.318 139.522 497.898 143.635C497.64 146.191 497.43 148.212 495.931 148.825C493.806 149.713 486.855 150.772 481.377 150.772ZM483.585 100.167C484.587 100.167 485.586 100.281 486.562 100.508C488.622 100.953 490.535 101.919 492.115 103.315C493.696 104.711 494.892 106.49 495.59 108.481C497.841 114.795 490.61 120.514 484.223 125.546C481.39 127.786 478.71 129.922 477.132 131.869C474.509 135.142 473.888 139.548 473.844 142.664C473.81 144.693 473.989 146.72 474.378 148.711C474.419 148.908 474.507 149.092 474.633 149.249C474.759 149.405 474.92 149.53 475.103 149.613C478.483 151.573 492.245 150.116 495.865 148.632C497.26 148.064 497.457 146.099 497.71 143.605C498.147 139.448 498.716 133.751 505.365 130.587C511.604 127.616 515.421 124.338 517.733 119.949C520.566 114.576 520.964 107.553 518.957 98.4777C514.817 79.7933 496.604 78.7868 479.856 79.3163C464.768 79.7889 453.738 93.905 452.47 103.82C452.298 104.81 452.377 105.828 452.7 106.78C453.022 107.731 453.577 108.587 454.315 109.268C458.687 113.346 469.07 112.861 471.628 112.362C472.974 112.095 473.175 110.935 473.446 109.33C473.752 107.514 474.177 105.019 476.568 102.67C478.229 101.042 480.809 100.167 483.585 100.167Z" fill="#30262A"></path>
<path d="M483.602 181.586C481.604 181.58 479.631 181.15 477.811 180.325C475.991 179.499 474.366 178.298 473.044 176.799C472.021 175.668 471.256 174.327 470.803 172.87C470.35 171.413 470.22 169.875 470.421 168.362H470.522H470.421C471.601 160.096 476.542 155.165 483.62 155.165C491.756 155.165 497.142 159.825 498.799 168.292C499.275 170.73 498.541 173.215 496.674 175.486C493.701 179.074 488.346 181.586 483.602 181.586ZM483.602 155.362C480.105 155.362 477.088 156.57 474.858 158.863C472.629 161.155 471.186 164.407 470.618 168.393C470.422 169.879 470.553 171.39 471 172.82C471.447 174.25 472.2 175.566 473.206 176.676C474.511 178.154 476.113 179.338 477.908 180.151C479.703 180.964 481.649 181.388 483.62 181.393C488.293 181.393 493.601 178.912 496.521 175.359C498.348 173.141 499.07 170.708 498.606 168.327C496.954 159.965 491.633 155.362 483.602 155.362Z" fill="#30262A"></path>
<path d="M362.225 335.316C361.289 335.317 360.355 335.214 359.441 335.009C359.186 334.956 358.922 334.96 358.669 335.022C358.415 335.083 358.179 335.201 357.977 335.366C357.775 335.531 357.612 335.739 357.501 335.974C357.39 336.21 357.332 336.468 357.333 336.729V391.054C357.333 393.578 356.837 396.077 355.871 398.409C354.906 400.741 353.491 402.86 351.708 404.645C349.924 406.429 347.807 407.845 345.477 408.81C343.147 409.776 340.65 410.273 338.128 410.272H209.132C206.611 410.273 204.114 409.776 201.784 408.811C199.455 407.845 197.338 406.43 195.555 404.646C193.772 402.862 192.357 400.743 191.392 398.412C190.427 396.081 189.931 393.582 189.931 391.058V337.622C189.932 337.181 190.035 336.747 190.231 336.353C190.428 335.959 190.713 335.616 191.063 335.351C191.414 335.085 191.822 334.904 192.254 334.822C192.686 334.74 193.131 334.759 193.555 334.878C195.399 335.38 197.334 335.454 199.211 335.094C201.089 334.735 202.859 333.951 204.388 332.803C205.917 331.654 207.164 330.172 208.034 328.469C208.904 326.765 209.374 324.885 209.408 322.972C209.443 321.06 209.04 319.164 208.232 317.431C207.424 315.697 206.231 314.171 204.744 312.968C203.257 311.766 201.516 310.919 199.653 310.492C197.789 310.065 195.853 310.07 193.992 310.505C193.508 310.621 193.004 310.625 192.518 310.518C192.032 310.411 191.576 310.195 191.185 309.886C190.794 309.577 190.478 309.184 190.261 308.736C190.044 308.288 189.931 307.796 189.931 307.298V261.934C189.931 259.411 190.427 256.912 191.392 254.58C192.357 252.248 193.772 250.13 195.555 248.345C197.338 246.56 199.454 245.145 201.784 244.179C204.113 243.213 206.61 242.716 209.132 242.716H260.283C260.727 242.714 261.164 242.826 261.553 243.042C261.941 243.259 262.267 243.572 262.498 243.951C262.73 244.331 262.86 244.763 262.875 245.208C262.891 245.652 262.791 246.093 262.587 246.488C261.522 248.47 261.008 250.702 261.098 252.951C261.189 255.2 261.881 257.383 263.102 259.273C264.323 261.163 266.028 262.69 268.04 263.695C270.052 264.701 272.296 265.147 274.539 264.989C276.642 264.839 278.672 264.161 280.445 263.019C282.217 261.877 283.673 260.308 284.68 258.454C285.687 256.601 286.212 254.524 286.206 252.414C286.2 250.305 285.664 248.231 284.647 246.383C284.442 246.004 284.34 245.579 284.349 245.149C284.358 244.718 284.479 244.298 284.699 243.928C284.92 243.558 285.232 243.252 285.606 243.04C285.98 242.827 286.403 242.716 286.833 242.716H338.137C340.658 242.716 343.155 243.213 345.485 244.179C347.814 245.145 349.931 246.56 351.714 248.345C353.497 250.13 354.911 252.248 355.876 254.58C356.841 256.912 357.338 259.411 357.338 261.934V309.293C357.322 309.503 357.357 309.713 357.442 309.905C357.526 310.098 357.657 310.266 357.822 310.396C357.987 310.526 358.182 310.613 358.389 310.65C358.596 310.686 358.808 310.671 359.008 310.606C360.463 310.223 361.974 310.101 363.471 310.247C369.181 310.798 374.357 316.141 374.755 321.865C374.877 323.585 374.642 325.313 374.068 326.939C373.493 328.566 372.589 330.056 371.414 331.318C370.239 332.58 368.816 333.586 367.235 334.274C365.655 334.962 363.949 335.316 362.225 335.316Z" fill="#BF0830"></path>
<path d="M335.107 409.994H223.34C224.035 403.666 224.919 397.619 226.033 392.084C226.777 388.386 227.62 384.916 228.582 381.748C228.696 381.359 228.818 380.969 228.945 380.593C229.33 379.385 229.732 378.229 230.152 377.123C230.152 377.123 234.235 360.933 260.755 355.446C261.354 355.319 261.957 355.201 262.573 355.091H262.687C263.513 354.942 264.357 354.811 265.223 354.68L265.8 354.601C266.237 354.535 266.696 354.474 267.159 354.417H267.277C269.026 354.203 270.845 354.032 272.755 353.914C273.8 353.848 274.867 353.796 275.964 353.761H276.012C277.047 353.726 278.108 353.706 279.195 353.7H279.462C281.793 353.7 284.026 353.774 286.159 353.923C286.75 353.967 287.331 354.015 287.908 354.067C288.625 354.137 289.329 354.212 290.024 354.299C292.572 354.606 295.098 355.072 297.588 355.695C310.087 358.854 318.573 365.689 324.488 375.714C326.928 379.955 328.899 384.449 330.368 389.117C332.418 395.326 333.922 402.319 335.107 409.994Z" fill="#BF0830"></path>
<path d="M343.322 409.994H206.011C205.135 409.992 204.272 409.782 203.493 409.382C202.714 408.982 202.041 408.402 201.529 407.691C201.017 406.98 200.681 406.158 200.548 405.292C200.415 404.426 200.489 403.54 200.764 402.708C205.573 388.22 220.153 359.826 261.21 354.706C262.626 354.528 264.073 354.382 265.551 354.269C267.212 354.134 268.916 354.037 270.661 353.975C271.365 353.954 272.069 353.923 272.777 353.892L275.986 353.739H276.035C277.132 353.687 278.22 353.634 279.344 353.604C281.447 353.542 283.554 353.542 285.661 353.682L286.221 353.717C287.502 353.809 288.761 353.923 290.003 354.067C291.474 354.234 292.919 354.433 294.335 354.667C294.803 354.746 295.262 354.816 295.721 354.903C296.18 354.991 296.657 355.083 297.116 355.183C328.003 361.484 342.01 380.773 346.281 406.524C346.351 406.952 346.327 407.391 346.21 407.809C346.094 408.228 345.887 408.615 345.605 408.946C345.324 409.276 344.973 409.541 344.579 409.722C344.185 409.903 343.756 409.996 343.322 409.994Z" fill="#1A2578"></path>
<path d="M286.544 361.554C279.252 364.097 270.552 360.465 265.524 354.269C265.568 354.269 272.519 351.381 273.709 347.556L276.493 338.56L276.546 338.389L277.372 335.711L278.439 332.259L284.721 311.986L285.548 332.149L285.858 339.715V339.82L286.037 344.261V344.699V345.031L286.16 348.094C286.264 350.72 287.991 353.345 289.95 354.063C289.985 354.054 291.192 359.922 286.544 361.554Z" fill="white"></path>
<path d="M286.077 345.014C282.163 344.195 278.724 341.875 276.498 338.551L276.375 338.354C276.434 338.36 276.493 338.368 276.55 338.38C277.53 338.525 282.448 339.255 285.862 339.693V339.798L286.042 344.239V344.677L286.077 345.014Z" fill="#30262A"></path>
<path d="M303.358 305.794C304.132 309.441 304.132 313.209 303.358 316.856C302.082 323.013 295.826 307.886 295.826 307.886L303.358 305.794Z" fill="#30262A"></path>
<path d="M289.081 342.511C298.94 341.215 305.666 330.519 304.105 318.62C302.544 306.721 293.287 298.125 283.429 299.421C273.57 300.716 266.844 311.412 268.405 323.311C269.966 335.21 279.223 343.806 289.081 342.511Z" fill="white"></path>
<path d="M267.951 317.105L276.664 316.2C277.613 316.108 278.529 315.804 279.344 315.309C280.159 314.814 280.853 314.142 281.373 313.342C283.156 310.546 285.307 309.111 293.435 309.404C303.73 309.789 310.528 303.646 311.639 298.255C312.776 292.754 307.507 289.022 302.336 291.647C297.164 294.273 299.385 287.836 294.414 287.153C285.124 285.876 283.384 293.048 275.772 292.811C265.8 292.505 247.932 300.092 256.405 317.665L267.951 317.105Z" fill="#30262A"></path>
<path d="M287.2 320.068C287.247 320.037 287.287 319.995 287.315 319.947C287.344 319.898 287.361 319.844 287.366 319.788C287.37 319.74 287.365 319.692 287.351 319.646C287.336 319.6 287.313 319.558 287.282 319.521C287.251 319.485 287.213 319.455 287.171 319.433C287.128 319.411 287.082 319.398 287.034 319.394C286.166 319.267 285.281 319.434 284.519 319.869C283.757 320.303 283.162 320.98 282.828 321.792C282.786 321.879 282.779 321.979 282.811 322.071C282.842 322.163 282.908 322.238 282.994 322.282C283.083 322.315 283.18 322.317 283.269 322.286C283.358 322.256 283.434 322.196 283.484 322.115C284.397 321.082 285.627 320.382 286.981 320.124C287.058 320.127 287.134 320.107 287.2 320.068Z" fill="#080435"></path>
<path d="M285.639 324.754C285.866 325.595 286.548 326.141 287.156 325.975C287.764 325.809 288.074 324.991 287.847 324.151C287.619 323.31 286.937 322.763 286.325 322.93C285.713 323.096 285.385 323.923 285.639 324.754Z" fill="#080435"></path>
<path d="M300.7 318.982C300.746 318.974 300.789 318.952 300.824 318.921C300.859 318.889 300.884 318.848 300.897 318.803C300.929 318.716 300.932 318.622 300.907 318.533C300.882 318.444 300.83 318.366 300.757 318.309C300.49 318.08 300.178 317.909 299.841 317.807C299.505 317.705 299.151 317.673 298.801 317.714C298.452 317.755 298.115 317.868 297.811 318.046C297.508 318.223 297.244 318.462 297.037 318.746C296.983 318.821 296.954 318.91 296.954 319.002C296.954 319.094 296.983 319.184 297.037 319.258C297.058 319.29 297.086 319.317 297.118 319.338C297.151 319.359 297.187 319.372 297.225 319.377C297.263 319.383 297.302 319.38 297.339 319.369C297.376 319.358 297.41 319.34 297.439 319.315C297.9 319.042 298.414 318.87 298.946 318.808C299.479 318.746 300.018 318.797 300.53 318.956C300.582 318.984 300.642 318.994 300.7 318.982Z" fill="#080435"></path>
<path d="M297.374 322.728C297.264 323.603 297.684 324.356 298.314 324.435C298.943 324.514 299.538 323.875 299.625 323.013C299.713 322.151 299.315 321.38 298.69 321.302C298.065 321.223 297.483 321.862 297.374 322.728Z" fill="#080435"></path>
<path d="M256.405 317.678C256.405 317.678 262.425 330.679 270.959 331.633C270.959 331.633 264.06 321.726 278.605 315.687C278.605 315.687 265.249 313.587 256.405 317.678Z" fill="#30262A"></path>
<path d="M268.441 324.855C270.264 326.014 272.585 325.633 273.621 323.979C274.657 322.325 274.023 320.081 272.196 318.921C270.369 317.761 268.051 318.138 267.011 319.77C265.97 321.402 266.613 323.691 268.441 324.855Z" fill="white"></path>
<path d="M297.715 331.208C293.875 332.143 289.91 332.456 285.972 332.136C285.972 332.136 286.872 337.825 293.076 336.687C296.683 336.026 297.715 331.208 297.715 331.208Z" fill="white"></path>
<path d="M301.229 290.964C298.383 290.964 298.125 288.483 298.125 288.461C298.118 288.407 298.122 288.352 298.136 288.299C298.151 288.247 298.175 288.197 298.209 288.155C298.243 288.112 298.286 288.076 298.334 288.05C298.382 288.024 298.434 288.007 298.489 288.002C298.543 287.997 298.598 288.003 298.65 288.019C298.702 288.035 298.751 288.062 298.792 288.098C298.834 288.133 298.868 288.177 298.892 288.226C298.916 288.275 298.931 288.328 298.934 288.383C298.956 288.571 299.196 290.216 301.36 290.133C301.468 290.13 301.573 290.169 301.652 290.243C301.73 290.317 301.777 290.419 301.78 290.527C301.784 290.635 301.744 290.74 301.67 290.818C301.596 290.897 301.494 290.943 301.387 290.947L301.229 290.964Z" fill="#BF0830"></path>
<path d="M296.355 306.529L296.285 306.293C296.394 306.258 307.35 303.011 307.801 297.366C307.932 295.769 307.665 294.71 306.987 294.128C305.903 293.192 303.927 293.651 302.178 294.058C301.907 294.124 301.645 294.185 301.396 294.238L301.343 293.997L302.122 293.822C303.923 293.384 305.964 292.947 307.145 293.94C307.884 294.579 308.177 295.69 308.041 297.384C307.849 299.799 305.759 302.144 301.999 304.175C300.195 305.133 298.305 305.921 296.355 306.529Z" fill="white"></path>
<path d="M274.78 295.082C273.682 295.08 272.585 295.004 271.497 294.854L271.527 294.609C277.114 295.366 281.145 294.071 283.528 292.859C284.988 292.148 286.308 291.179 287.423 289.997L287.611 290.155C287.563 290.194 283.388 295.082 274.78 295.082Z" fill="white"></path>
<path d="M280.8 358.286C280.8 358.286 288.718 355.835 290.821 357.734C292.923 359.633 291.376 368.345 287.734 369.111C284.092 369.877 277.194 360.386 280.8 358.286Z" fill="white"></path>
<path d="M285.448 356.229C285.448 356.229 275.113 352.575 273.097 348.917C271.082 345.259 260.379 353.73 260.567 356.229C260.755 358.727 280.027 372.747 281.286 370.984C282.545 369.22 287.975 358.627 285.448 356.229Z" fill="#1A2578"></path>
<path d="M285.448 356.229C285.448 356.229 286.995 352.391 286.252 350.309C286.252 350.309 285.758 348.475 287.332 348.602C288.906 348.729 297.475 354.728 298.231 356.544C298.987 358.36 299.105 366.949 296.342 367.58C293.579 368.21 286.89 358.999 286.103 358.089C285.875 357.838 285.7 357.545 285.587 357.225C285.474 356.906 285.427 356.567 285.448 356.229Z" fill="#1A2578"></path>
<path d="M284.062 367.619L289.942 365.764C289.942 365.764 290.082 366.118 290.339 366.796C292.027 371.255 298.817 389.489 304.911 409.998H284.639C285.666 390.434 286.177 372.34 284.062 367.619Z" fill="white"></path>
<path d="M287.668 369.308C285.356 369.308 283.375 367.251 283.296 367.164L283.572 366.906C283.572 366.906 285.526 368.927 287.681 368.927H287.738C289.859 368.892 291.131 364.311 291.144 364.263L291.507 364.363C291.454 364.565 290.147 369.269 287.743 369.308H287.668Z" fill="#30262A"></path>
<path opacity="0.3" d="M381.5 18C385.642 18 389 14.6421 389 10.5C389 6.35786 385.642 3 381.5 3C377.358 3 374 6.35786 374 10.5C374 14.6421 377.358 18 381.5 18Z" stroke="#74BBFB" stroke-width="5"></path>
<path opacity="0.3" fill-rule="evenodd" clip-rule="evenodd" d="M115.555 175.581C112.626 175.581 110.257 173.205 110.257 170.276C110.257 167.345 112.626 164.97 115.555 164.97C118.496 164.97 120.866 167.345 120.866 170.276C120.866 173.205 118.496 175.581 115.555 175.581ZM115.555 180.887C109.698 180.887 104.959 176.136 104.959 170.276C104.959 164.415 109.698 159.664 115.555 159.664C121.425 159.664 126.163 164.415 126.163 170.276C126.163 176.136 121.425 180.887 115.555 180.887Z" fill="#FB5472"></path>
<defs>
<filter id="filter0_d_1_90251" x="395.115" y="234.716" width="191.411" height="191.556" filterUnits="userSpaceOnUse" color-interpolation-filters="sRGB">
<feFlood flood-opacity="0" result="BackgroundImageFix"></feFlood>
<feColorMatrix in="SourceAlpha" type="matrix" values="0 0 0 0 0 0 0 0 0 0 0 0 0 0 0 0 0 0 127 0" result="hardAlpha"></feColorMatrix>
<feOffset dy="4"></feOffset>
<feGaussianBlur stdDeviation="6"></feGaussianBlur>
<feComposite in2="hardAlpha" operator="out"></feComposite>
<feColorMatrix type="matrix" values="0 0 0 0 0 0 0 0 0 0 0 0 0 0 0 0 0 0 0.06 0"></feColorMatrix>
<feBlend mode="normal" in2="BackgroundImageFix" result="effect1_dropShadow_1_90251"></feBlend>
<feBlend mode="normal" in="SourceGraphic" in2="effect1_dropShadow_1_90251" result="shape"></feBlend>
</filter>
</defs>
</svg>
