<svg width="0" height="0" class="hidden">
  <symbol fill="none" xmlns="http://www.w3.org/2000/svg" viewBox="0 0 222 59" id="benext"><text fill="black" xml:space="preserve" font-family="Gloss And Bloom" font-size="26" letter-spacing="0.005em">
      <tspan x="69" y="46">Be the next</tspan>
    </text>
    <path d="M11.0278 9.93213C14.4628 16.8039 19.9139 37.6168 56.3242 36.3673" stroke="black" stroke-linecap="round"></path>
    <path d="M3.72182 18.6771L7.73682 1L20.5387 8.84996" stroke="black" stroke-linecap="round"></path>
  </symbol>
  <symbol fill="none" xmlns="http://www.w3.org/2000/svg" viewBox="0 0 188 31" id="cookieyes">
    <path d="M13.2251 3.9541C19.4896 3.9541 24.1722 7.45409 25.6909 13.1813H18.667C17.5913 10.8904 15.5664 9.80863 13.1618 9.80863C9.23859 9.80863 6.51764 12.7359 6.51764 17.445C6.51764 22.154 9.23859 25.0813 13.1618 25.0813C15.5664 25.0813 17.5913 23.9358 18.667 21.7086H25.6909C24.1722 27.4358 19.4896 30.9358 13.2251 30.9358C5.44191 30.8722 0 25.3358 0 17.3813C0 9.42681 5.44191 3.9541 13.2251 3.9541Z" fill="#404041"></path>
    <path d="M38.4731 30.9996C32.3351 30.9996 27.7158 26.8632 27.7158 20.1814C27.7158 13.4996 32.4617 9.36328 38.5996 9.36328C44.7376 9.36328 49.4835 13.4996 49.4835 20.1814C49.4835 26.8632 44.6111 30.9996 38.4731 30.9996ZM38.4731 25.3996C40.7511 25.3996 42.9025 23.6814 42.9025 20.1814C42.9025 16.6178 40.8144 14.9633 38.5364 14.9633C36.1951 14.9633 34.1702 16.6178 34.1702 20.1814C34.2335 23.6814 36.1318 25.3996 38.4731 25.3996Z" fill="#404041"></path>
    <path d="M62.2026 30.9995C56.0646 30.9995 51.4453 26.8632 51.4453 20.1814C51.4453 13.4996 56.1912 9.36322 62.3291 9.36322C68.4671 9.36322 73.2129 13.4996 73.2129 20.1814C73.2129 26.8632 68.3405 30.9995 62.2026 30.9995ZM62.2026 25.3995C64.4806 25.3995 66.632 23.6813 66.632 20.1814C66.632 16.6177 64.5439 14.9632 62.2659 14.9632C59.9246 14.9632 57.8997 16.6177 57.8997 20.1814C57.8997 23.6813 59.8613 25.3995 62.2026 25.3995Z" fill="#404041"></path>
    <path d="M75.4902 3.9541H81.8813V18.2086L88.2091 9.68135H96.1189L87.4498 20.1813L96.2454 30.6813H88.3357L81.9446 21.8359V30.6813H75.5535V3.9541H75.4902Z" fill="#404041"></path>
    <path d="M97.6387 4.01757C97.6387 2.04485 99.1573 0.517578 101.435 0.517578C103.713 0.517578 105.232 2.04485 105.232 4.01757C105.232 5.92665 103.713 7.45392 101.435 7.45392C99.1573 7.45392 97.6387 5.92665 97.6387 4.01757ZM98.2715 9.61755H104.663V30.6175H98.2715V9.61755Z" fill="#404041"></path>
    <path d="M117.57 30.9995C111.432 30.9995 107.003 26.8632 107.003 20.1814C107.003 13.4996 111.369 9.36322 117.57 9.36322C123.645 9.36322 128.011 13.4359 128.011 19.8632C128.011 20.4359 127.948 21.1359 127.885 21.7723H113.394C113.647 24.5086 115.292 25.7813 117.381 25.7813C119.152 25.7813 120.165 24.8904 120.734 23.745H127.568C126.493 27.8177 122.822 30.9995 117.57 30.9995ZM113.457 18.145H121.494C121.494 15.8541 119.722 14.5177 117.57 14.5177C115.419 14.5177 113.837 15.7905 113.457 18.145Z" fill="#404041"></path>
    <path d="M157.563 30.9995C151.425 30.9995 146.995 26.8632 146.995 20.1814C146.995 13.4996 151.361 9.36322 157.563 9.36322C163.637 9.36322 168.003 13.4359 168.003 19.8632C168.003 20.4359 167.94 21.1359 167.877 21.7723H153.386C153.639 24.5086 155.285 25.7813 157.373 25.7813C159.144 25.7813 160.157 24.8904 160.726 23.745H167.56C166.485 27.8177 162.751 30.9995 157.563 30.9995ZM153.386 18.145H161.422C161.422 15.8541 159.651 14.5177 157.499 14.5177C155.411 14.5177 153.766 15.7905 153.386 18.145Z" fill="#404041"></path>
    <path d="M179.583 30.9996C174.015 30.9996 170.281 27.8814 169.965 23.8087H176.293C176.419 25.2723 177.748 26.2269 179.52 26.2269C181.165 26.2269 182.051 25.4632 182.051 24.5087C182.051 21.136 170.661 23.5541 170.661 15.8542C170.661 12.2905 173.698 9.36328 179.14 9.36328C184.519 9.36328 187.556 12.3542 187.936 16.4905H181.988C181.798 15.0905 180.722 14.136 178.887 14.136C177.368 14.136 176.546 14.7087 176.546 15.7269C176.546 19.0996 187.872 16.6814 187.999 24.5723C188.062 28.1996 184.835 30.9996 179.583 30.9996Z" fill="#404041"></path>
    <path d="M134.656 10H128.012L134.086 21.3272H140.731L134.656 10Z" fill="#0056A7"></path>
    <path d="M133.96 21.0084L134.15 21.3266H140.794L136.428 13.3721L133.96 21.0084Z" fill="#2E3191"></path>
    <path d="M146.109 0.454102L134.149 21.3268H140.794L152.753 0.454102H146.109Z" fill="#0056A7"></path>
    <path d="M134.149 24.4443H140.604V30.9989H134.149V24.4443Z" fill="#0056A7"></path>
  </symbol>
  <symbol fill="none" xmlns="http://www.w3.org/2000/svg" viewBox="0 0 145 53" id="css">
    <g clip-path="url('#clip0_1_258182')">
      <path d="M11.5 33.4V40.6C11.5 41.5 11.7 42.2 12.1 42.7C12.5 43.2 13.1 43.5 13.7 43.5H16.6V45.2H13.8C12.7 45.2 11.7 44.8 10.9 44C10.1 43.2 9.7 42.1 9.7 40.6V33.4C9.7 32.1 9.5 30.8 9 29.7C8.6 28.6 8 27.7 7.3 27C6.6 26.3 5.7 25.7 4.8 25.3C3.9 24.9 2.9 24.7 1.8 24.7H0V23H1.9C3.2 23 4.4 23.2 5.5 23.7C6.7 24.2 7.7 24.8 8.6 25.7C9.5 26.6 10.2 27.7 10.7 29C11.3 30.4 11.5 31.8 11.5 33.4ZM8.1 33.4V40.6C8.1 42.6 8.7 44.1 9.8 45.2C10.9 46.3 12.3 46.9 13.9 46.9H16.7V48.6H13.9C11.8 48.6 10 47.9 8.6 46.4C7.1 45 6.4 43 6.4 40.6V33.4C6.4 31.7 6 30.4 5.2 29.5C4.4 28.6 3.3 28.1 2 28.1H0V26.4H1.9C3.6 26.4 5.1 27 6.3 28.3C7.5 29.5 8.1 31.2 8.1 33.4ZM4.7 33.4V40.6C4.7 43.5 5.6 45.9 7.4 47.6C9.2 49.4 11.4 50.3 13.9 50.3H16.8V52H14C12.1 52 10.3 51.5 8.6 50.6C6.9 49.7 5.6 48.4 4.6 46.6C3.6 44.8 3.1 42.8 3.1 40.5V33.3C3.1 32.6 3 32.1 2.8 31.9C2.6 31.7 2.3 31.5 1.9 31.5H0V29.8H1.8C2.6 29.8 3.3 30.1 3.8 30.7C4.4 31.3 4.7 32.2 4.7 33.4ZM4.6 22.3L2.9 22.1C2.9 21.8 3 21.5 3 21.2V12C3 9.7 3.5 7.7 4.5 5.9C5.5 4.1 6.9 2.8 8.5 1.9C10.1 1 11.9 0.5 13.9 0.5H16.7V2.2H13.8C11.3 2.2 9.1 3.1 7.3 4.9C5.5 6.7 4.6 9 4.6 11.9V21.1C4.7 21.6 4.6 22 4.6 22.3ZM7.7 23.7L6.1 22.9C6.3 22.1 6.3 21.5 6.3 21.2V12C6.3 9.6 7 7.6 8.5 6.2C10 4.8 11.7 4 13.8 4H16.6V5.7H13.8C12.2 5.7 10.8 6.3 9.7 7.4C8.6 8.5 8.1 10.1 8.1 12V21.2C8.1 22 8 22.8 7.7 23.7ZM10.5 26.1L9.2 24.8C9.6 23.7 9.8 22.5 9.8 21.2V12C9.8 10.6 10.2 9.5 11 8.6C11.8 7.9 12.7 7.5 13.9 7.5H16.7V9.2H13.8C13.1 9.2 12.6 9.5 12.2 10C11.8 10.5 11.6 11.2 11.6 12.1V21.3C11.5 23 11.2 24.6 10.5 26.1Z" fill="black"></path>
      <path d="M58.4998 14.2L56.9998 15.1C55.1998 12.4 52.8998 10.4 49.9998 8.8C47.0998 7.3 43.9998 6.5 40.6998 6.5C37.9998 6.5 35.4998 7 32.9998 8.1C30.5998 9.1 28.4998 10.5 26.6998 12.3C24.8998 14.1 23.4998 16.2 22.4998 18.6C21.4998 21 20.8998 23.6 20.8998 26.3C20.8998 29 21.3998 31.5 22.4998 34C23.4998 36.4 24.8998 38.5 26.6998 40.3C28.4998 42.1 30.5998 43.5 32.9998 44.5C35.3998 45.5 37.9998 46.1 40.6998 46.1C43.9998 46.1 47.0998 45.3 49.9998 43.8C52.8998 42.2 55.1998 40.1 56.9998 37.5L58.3998 38.5C56.3998 41.4 53.8998 43.6 50.7998 45.3C47.6998 47 44.2998 47.8 40.6998 47.8C37.7998 47.8 34.9998 47.2 32.3998 46.1C29.7998 45 27.4998 43.4 25.5998 41.5C23.6998 39.6 22.1998 37.3 20.9998 34.7C19.8998 32.1 19.2998 29.3 19.2998 26.4C19.2998 23.5 19.8998 20.7 20.9998 18.1C22.0998 15.5 23.6998 13.2 25.5998 11.3C27.4998 9.4 29.7998 7.9 32.3998 6.7C34.9998 5.5 37.7998 5 40.6998 5C44.2998 5 47.6998 5.8 50.7998 7.5C53.9998 9 56.4998 11.3 58.4998 14.2ZM55.6998 16.2L54.2998 17.1C52.7998 14.9 50.8998 13.2 48.4998 11.9C46.0998 10.6 43.5998 10 40.7998 10C38.5998 10 36.4998 10.4 34.4998 11.3C32.4998 12.2 30.7998 13.3 29.2998 14.8C27.7998 16.3 26.6998 18 25.7998 20C24.8998 22 24.4998 24.1 24.4998 26.3C24.4998 28.5 24.8998 30.6 25.7998 32.6C26.6998 34.6 27.7998 36.4 29.2998 37.8C30.7998 39.3 32.4998 40.4 34.4998 41.3C36.4998 42.2 38.5998 42.6 40.7998 42.6C43.5998 42.6 46.0998 42 48.4998 40.7C50.8998 39.4 52.7998 37.7 54.2998 35.5L55.6998 36.5C53.9998 38.9 51.8998 40.8 49.2998 42.2C46.6998 43.6 43.8998 44.3 40.7998 44.3C37.4998 44.3 34.4998 43.5 31.7998 41.9C28.9998 40.3 26.8998 38.1 25.1998 35.3C23.5998 32.5 22.7998 29.5 22.7998 26.3C22.7998 23.1 23.5998 20 25.1998 17.3C26.7998 14.5 28.9998 12.4 31.7998 10.7C34.5998 9.1 37.5998 8.3 40.7998 8.3C43.7998 8.3 46.6998 9 49.2998 10.4C51.8998 11.8 53.9998 13.7 55.6998 16.2ZM52.7998 18.1L51.3998 19C50.1998 17.3 48.6998 15.9 46.7998 14.9C44.8998 13.9 42.8998 13.4 40.6998 13.4C38.3998 13.4 36.1998 14 34.1998 15.1C32.1998 16.3 30.6998 17.8 29.4998 19.8C28.2998 21.8 27.7998 23.9 27.7998 26.3C27.7998 28.6 28.3998 30.8 29.4998 32.8C30.5998 34.8 32.1998 36.3 34.1998 37.5C36.1998 38.7 38.2998 39.2 40.6998 39.2C42.8998 39.2 44.8998 38.7 46.7998 37.7C48.6998 36.7 50.1998 35.3 51.3998 33.6L52.7998 34.6C51.4998 36.6 49.6998 38.1 47.5998 39.3C45.4998 40.4 43.1998 41 40.6998 41C38.0998 41 35.5998 40.3 33.3998 39C31.1998 37.7 29.3998 35.9 28.0998 33.7C26.7998 31.5 26.0998 29 26.0998 26.4C26.0998 23.8 26.7998 21.3 28.0998 19.1C29.3998 16.9 31.1998 15.1 33.3998 13.8C35.5998 12.5 38.0998 11.8 40.6998 11.8C43.1998 11.8 45.4998 12.4 47.5998 13.5C49.6998 14.6 51.4998 16.1 52.7998 18.1ZM49.9998 20L48.5998 20.9C47.6998 19.6 46.5998 18.6 45.2998 17.9C43.9998 17.2 42.3998 16.8 40.7998 16.8C38.1998 16.8 35.9998 17.7 34.0998 19.6C32.2998 21.4 31.2998 23.7 31.2998 26.3C31.2998 28.9 32.1998 31.1 34.0998 33C35.8998 34.8 38.1998 35.8 40.7998 35.8C42.3998 35.8 43.8998 35.4 45.2998 34.7C46.6998 34 47.7998 32.9 48.5998 31.7L49.9998 32.7C48.9998 34.2 47.6998 35.4 45.9998 36.2C44.3998 37.1 42.5998 37.5 40.7998 37.5C39.2998 37.5 37.8998 37.2 36.4998 36.6C35.0998 36 33.8998 35.2 32.8998 34.2C31.8998 33.2 31.0998 32 30.4998 30.6C29.8998 29.2 29.5998 27.8 29.5998 26.3C29.5998 24.8 29.8998 23.4 30.4998 22C31.0998 20.6 31.8998 19.4 32.8998 18.4C33.8998 17.4 35.0998 16.6 36.4998 16C37.8998 15.4 39.2998 15.1 40.7998 15.1C42.6998 15.1 44.3998 15.5 46.0998 16.4C47.5998 17.3 48.9998 18.5 49.9998 20Z" fill="black"></path>
      <path d="M77.6996 22.0002H74.7996C73.5996 22.0002 72.6996 21.7002 72.1996 21.1002C71.6996 20.5002 71.3996 19.6002 71.3996 18.6002C71.3996 16.3002 73.0996 15.2002 76.4996 15.2002C79.6996 15.2002 82.0996 15.7002 83.6996 16.6002L82.2996 17.6002C81.1996 17.1002 79.1996 16.8002 76.3996 16.8002C74.9996 16.8002 74.0996 17.0002 73.5996 17.3002C73.1996 17.6002 72.9996 18.0002 72.9996 18.5002C72.9996 19.0002 73.0996 19.5002 73.3996 19.8002C73.6996 20.1002 74.0996 20.3002 74.7996 20.3002H77.7996C79.8996 20.3002 81.8996 20.7002 83.5996 21.4002C85.2996 22.1002 86.6996 23.1002 87.7996 24.4002C88.8996 25.7002 89.7996 27.1002 90.2996 28.8002C90.8996 30.4002 91.1996 32.2002 91.1996 34.1002C91.1996 35.6002 90.9996 37.1002 90.5996 38.4002C90.1996 39.8002 89.4996 41.0002 88.6996 42.2002C87.7996 43.3002 86.7996 44.3002 85.5996 45.2002C84.3996 46.0002 82.8996 46.7002 81.2996 47.2002C79.5996 47.7002 77.7996 47.9002 75.8996 47.9002C72.7996 47.9002 69.9996 47.4002 67.2996 46.5002C64.5996 45.6002 62.3996 44.3002 60.5996 42.6002L61.9996 41.6002C63.5996 43.1002 65.5996 44.2002 68.0996 45.0002C70.4996 45.8002 73.0996 46.2002 75.8996 46.2002C78.0996 46.2002 79.9996 45.9002 81.7996 45.3002C83.5996 44.7002 84.9996 43.8002 86.0996 42.7002C87.1996 41.6002 88.0996 40.3002 88.6996 38.9002C89.2996 37.5002 89.5996 35.9002 89.5996 34.2002C89.5996 32.0002 89.1996 30.0002 88.2996 28.2002C87.3996 26.4002 86.0996 25.0002 84.1996 23.9002C82.2996 22.8002 80.1996 22.0002 77.6996 22.0002ZM74.7996 30.5002H77.3996C78.5996 30.5002 79.4996 30.8002 79.9996 31.5002C80.4996 32.1002 80.7996 33.0002 80.7996 34.0002C80.7996 36.3002 79.0996 37.4002 75.6996 37.4002C72.4996 37.4002 70.0996 36.9002 68.3996 36.0002L69.7996 35.0002C70.8996 35.5002 72.8996 35.8002 75.6996 35.8002C77.0996 35.8002 77.9996 35.6002 78.4996 35.3002C78.9996 35.0002 79.1996 34.6002 79.1996 34.0002C79.1996 33.5002 79.0996 33.1002 78.7996 32.7002C78.4996 32.4002 78.0996 32.2002 77.3996 32.2002H74.7996C72.5996 32.2002 70.5996 31.8002 68.8996 31.1002C67.0996 30.4002 65.6996 29.4002 64.4996 28.1002C63.3996 26.8002 62.4996 25.4002 61.8996 23.7002C61.2996 22.2002 60.9996 20.5002 60.9996 18.5002C60.9996 17.0002 61.1996 15.5002 61.5996 14.2002C61.9996 12.8002 62.6996 11.6002 63.4996 10.4002C64.3996 9.3002 65.3996 8.3002 66.5996 7.4002C67.7996 6.5002 69.2996 5.9002 70.8996 5.4002C72.4996 4.9002 74.3996 4.7002 76.2996 4.7002C79.3996 4.7002 82.1996 5.2002 84.8996 6.1002C87.5996 7.0002 89.7996 8.30019 91.5996 10.0002L90.1996 11.0002C88.5996 9.5002 86.5996 8.4002 84.0996 7.6002C81.6996 6.8002 79.0996 6.4002 76.2996 6.4002C74.0996 6.4002 72.1996 6.7002 70.3996 7.3002C68.5996 7.9002 67.1996 8.8002 66.0996 9.9002C64.9996 11.0002 64.0996 12.3002 63.4996 13.7002C62.8996 15.1002 62.5996 16.7002 62.5996 18.4002C62.5996 20.6002 63.0996 22.7002 63.9996 24.4002C64.8996 26.2002 66.2996 27.6002 68.0996 28.7002C70.0996 30.0002 72.2996 30.5002 74.7996 30.5002ZM74.7996 23.7002H77.4996C80.6996 23.7002 83.1996 24.7002 85.0996 26.7002C86.8996 28.7002 87.7996 31.1002 87.7996 34.0002C87.7996 37.0002 86.6996 39.4002 84.5996 41.4002C82.4996 43.4002 79.4996 44.3002 75.6996 44.3002C73.1996 44.3002 70.7996 44.0002 68.5996 43.3002C66.3996 42.6002 64.5996 41.6002 63.0996 40.3002L64.3996 39.2002C65.6996 40.3002 67.2996 41.1002 69.2996 41.7002C71.2996 42.3002 73.3996 42.6002 75.6996 42.6002C78.9996 42.6002 81.5996 41.8002 83.3996 40.2002C85.1996 38.6002 86.0996 36.5002 86.0996 34.0002C86.0996 31.5002 85.3996 29.5002 83.8996 27.9002C82.3996 26.3002 80.2996 25.5002 77.4996 25.5002H74.7996C72.4996 25.5002 70.6996 24.9002 69.5996 23.6002C68.4996 22.3002 67.8996 20.7002 67.8996 18.6002C67.8996 16.5002 68.5996 14.9002 70.0996 13.6002C71.4996 12.3002 73.6996 11.7002 76.5996 11.7002C78.5996 11.7002 80.4996 11.9002 82.1996 12.4002C83.8996 12.9002 85.3996 13.5002 86.4996 14.4002L84.9996 15.5002C82.9996 14.1002 80.1996 13.5002 76.4996 13.5002C74.0996 13.5002 72.3996 14.0002 71.2996 14.9002C70.1996 15.8002 69.5996 17.1002 69.5996 18.6002C69.5996 20.2002 69.9996 21.4002 70.7996 22.3002C71.5996 23.2002 72.8996 23.7002 74.7996 23.7002ZM74.7996 27.1002H77.3996C79.6996 27.1002 81.4996 27.7002 82.5996 29.0002C83.7996 30.3002 84.2996 31.9002 84.2996 33.9002C84.2996 35.9002 83.5996 37.6002 82.0996 38.9002C80.6996 40.2002 78.4996 40.8002 75.5996 40.8002C73.5996 40.8002 71.6996 40.6002 69.9996 40.1002C68.2996 39.6002 66.7996 39.0002 65.6996 38.1002L67.0996 37.1002C69.0996 38.5002 71.8996 39.1002 75.6996 39.1002C78.0996 39.1002 79.7996 38.6002 80.8996 37.7002C81.9996 36.8002 82.5996 35.5002 82.5996 34.0002C82.5996 32.5002 82.1996 31.2002 81.3996 30.3002C80.5996 29.4002 79.1996 28.9002 77.3996 28.9002H74.7996C71.4996 28.9002 68.9996 27.9002 67.1996 26.0002C65.3996 24.1002 64.4996 21.6002 64.4996 18.6002C64.4996 15.6002 65.5996 13.2002 67.6996 11.2002C69.7996 9.3002 72.7996 8.3002 76.5996 8.3002C79.0996 8.3002 81.4996 8.6002 83.6996 9.3002C85.8996 10.0002 87.6996 11.0002 89.1996 12.3002L87.8996 13.4002C86.5996 12.3002 84.9996 11.5002 82.9996 10.9002C80.9996 10.3002 78.8996 10.0002 76.5996 10.0002C73.2996 10.0002 70.6996 10.8002 68.8996 12.4002C67.0996 14.0002 66.1996 16.1002 66.1996 18.6002C66.1996 21.1002 66.8996 23.1002 68.3996 24.8002C69.8996 26.3002 71.9996 27.1002 74.7996 27.1002Z" fill="black"></path>
      <path d="M110.9 21.9996H108C106.8 21.9996 105.9 21.6996 105.4 21.0996C104.9 20.4996 104.6 19.5996 104.6 18.5996C104.6 16.2996 106.3 15.1996 109.7 15.1996C112.9 15.1996 115.3 15.6996 116.9 16.5996L115.5 17.5996C114.4 17.0996 112.4 16.7996 109.6 16.7996C108.2 16.7996 107.3 16.9996 106.8 17.2996C106.3 17.5996 106.1 17.9996 106.1 18.5996C106.1 19.1996 106.2 19.5996 106.5 19.8996C106.8 20.1996 107.2 20.3996 107.9 20.3996H110.9C113 20.3996 115 20.7996 116.7 21.4996C118.4 22.1996 119.8 23.1996 120.9 24.4996C122 25.7996 122.9 27.1996 123.4 28.8996C124 30.4996 124.3 32.2996 124.3 34.1996C124.3 35.6996 124.1 37.1996 123.7 38.4996C123.3 39.8996 122.6 41.0996 121.8 42.2996C120.9 43.3996 119.9 44.3996 118.7 45.2996C117.5 46.0996 116 46.7996 114.4 47.2996C112.7 47.7996 110.9 47.9996 109 47.9996C105.9 47.9996 103.1 47.4996 100.4 46.5996C97.7002 45.6996 95.5002 44.3996 93.7002 42.6996L95.1002 41.6996C96.7002 43.1996 98.7002 44.2996 101.2 45.0996C103.6 45.8996 106.2 46.2996 109 46.2996C111.2 46.2996 113.1 45.9996 114.9 45.3996C116.7 44.7996 118.1 43.8996 119.2 42.7996C120.3 41.6996 121.2 40.3996 121.8 38.9996C122.4 37.5996 122.7 35.9996 122.7 34.2996C122.7 32.0996 122.3 30.0996 121.4 28.2996C120.5 26.4996 119.2 25.0996 117.3 23.9996C115.4 22.8996 113.4 21.9996 110.9 21.9996ZM108.1 30.4996H110.7C111.9 30.4996 112.8 30.7996 113.3 31.4996C113.8 32.0996 114.1 32.9996 114.1 33.9996C114.1 36.2996 112.4 37.3996 109 37.3996C105.8 37.3996 103.4 36.8996 101.7 35.9996L103.1 34.9996C104.2 35.4996 106.2 35.7996 109 35.7996C110.4 35.7996 111.3 35.5996 111.8 35.2996C112.3 34.9996 112.5 34.5996 112.5 33.9996C112.5 33.4996 112.4 33.0996 112.1 32.6996C111.8 32.3996 111.4 32.1996 110.7 32.1996H108.1C105.9 32.1996 103.9 31.7996 102.2 31.0996C100.4 30.3996 99.0002 29.3996 97.8002 28.0996C96.7002 26.7996 95.8002 25.3996 95.2002 23.6996C94.6002 21.9996 94.3002 20.2996 94.3002 18.3996C94.3002 16.8996 94.5002 15.3996 94.9002 14.0996C95.3002 12.6996 96.0002 11.4996 96.8002 10.2996C97.7002 9.19961 98.7002 8.19961 99.9002 7.29961C101.1 6.49961 102.6 5.79961 104.2 5.29961C105.8 4.79961 107.7 4.59961 109.6 4.59961C112.7 4.59961 115.5 5.09961 118.2 5.99961C120.9 6.89961 123.1 8.19961 124.9 9.89961L123.5 10.8996C121.9 9.39961 119.9 8.29961 117.4 7.49961C115 6.69961 112.4 6.29961 109.6 6.29961C107.4 6.29961 105.5 6.59961 103.7 7.19961C101.9 7.79961 100.5 8.69961 99.4002 9.79961C98.3002 10.8996 97.4002 12.1996 96.8002 13.5996C96.2002 14.9996 95.9002 16.5996 95.9002 18.2996C95.9002 20.4996 96.4002 22.5996 97.3002 24.2996C98.2002 26.0996 99.6002 27.4996 101.4 28.5996C103.3 29.9996 105.5 30.4996 108.1 30.4996ZM108.1 23.6996H110.8C114 23.6996 116.5 24.6996 118.4 26.6996C120.3 28.6996 121.1 31.0996 121.1 33.9996C121.1 36.9996 120 39.3996 117.9 41.3996C115.8 43.3996 112.8 44.2996 109 44.2996C106.5 44.2996 104.1 43.9996 101.9 43.2996C99.7002 42.5996 97.9002 41.5996 96.4002 40.2996L97.7002 39.1996C99.0002 40.2996 100.6 41.0996 102.6 41.6996C104.6 42.2996 106.7 42.5996 109 42.5996C112.3 42.5996 114.9 41.7996 116.7 40.1996C118.5 38.5996 119.4 36.4996 119.4 33.9996C119.4 31.4996 118.7 29.4996 117.2 27.8996C115.7 26.2996 113.6 25.4996 110.8 25.4996H108.1C105.8 25.4996 104 24.8996 102.9 23.5996C101.8 22.2996 101.2 20.6996 101.2 18.5996C101.2 16.4996 101.9 14.8996 103.4 13.5996C104.8 12.2996 107 11.6996 109.9 11.6996C111.9 11.6996 113.8 11.8996 115.5 12.3996C117.2 12.8996 118.7 13.4996 119.8 14.3996L118.4 15.3996C116.4 13.9996 113.6 13.3996 109.9 13.3996C107.5 13.3996 105.8 13.8996 104.7 14.7996C103.6 15.6996 103 16.9996 103 18.4996C103 20.0996 103.4 21.2996 104.2 22.1996C105 23.0996 106.2 23.6996 108.1 23.6996ZM108.1 27.0996H110.7C113 27.0996 114.8 27.6996 115.9 28.9996C117.1 30.2996 117.6 31.8996 117.6 33.8996C117.6 35.8996 116.9 37.5996 115.4 38.8996C114 40.1996 111.8 40.7996 108.9 40.7996C106.9 40.7996 105 40.5996 103.3 40.0996C101.6 39.5996 100.1 38.9996 99.0002 38.0996L100.4 37.0996C102.4 38.4996 105.2 39.0996 109 39.0996C111.4 39.0996 113.1 38.5996 114.2 37.6996C115.3 36.7996 115.9 35.4996 115.9 33.9996C115.9 32.4996 115.5 31.1996 114.7 30.2996C113.9 29.3996 112.5 28.8996 110.7 28.8996H108.1C104.8 28.8996 102.3 27.8996 100.5 25.9996C98.7002 24.0996 97.8002 21.5996 97.8002 18.5996C97.8002 15.5996 98.9002 13.1996 101 11.1996C103.1 9.19961 106.1 8.29961 109.9 8.29961C112.4 8.29961 114.8 8.59961 117 9.29961C119.2 9.99961 121 10.9996 122.5 12.2996L121.2 13.3996C119.9 12.2996 118.3 11.4996 116.3 10.8996C114.3 10.2996 112.2 9.99961 109.9 9.99961C106.6 9.99961 104 10.7996 102.2 12.3996C100.4 13.9996 99.5002 16.0996 99.5002 18.5996C99.5002 21.0996 100.2 23.0996 101.7 24.7996C103.1 26.2996 105.3 27.0996 108.1 27.0996Z" fill="black"></path>
      <path d="M139.6 19.2V12C139.6 9.1 138.7 6.7 136.9 5C135.1 3.3 132.9 2.3 130.4 2.3H127.5V0.5H130.3C132.2 0.5 134 1 135.7 1.9C137.3 2.8 138.7 4.1 139.7 5.9C140.7 7.7 141.2 9.7 141.2 12V19.2C141.2 19.9 141.3 20.4 141.5 20.6C141.7 20.8 142 21 142.4 21H144.2V22.7H142.4C141.6 22.7 140.9 22.4 140.4 21.8C139.9 21.2 139.6 20.3 139.6 19.2ZM136.2 19.2V12C136.2 10 135.6 8.5 134.5 7.4C133.4 6.3 132 5.7 130.4 5.7H127.6V3.9H130.4C132.5 3.9 134.3 4.6 135.7 6.1C137.2 7.5 137.9 9.5 137.9 11.9V19.1C137.9 20.8 138.3 22.1 139.1 23C139.9 23.9 141 24.4 142.3 24.4H144.3V26.1H142.4C140.7 26.1 139.2 25.5 138 24.2C136.8 23 136.2 21.3 136.2 19.2ZM132.8 19.2V12C132.8 11.1 132.6 10.4 132.2 9.9C131.8 9.4 131.2 9.1 130.6 9.1H127.7V7.4H130.5C131.6 7.4 132.6 7.8 133.4 8.6C134.2 9.4 134.6 10.5 134.6 12V19.2C134.6 20.5 134.8 21.8 135.3 22.9C135.7 24 136.3 24.9 137.1 25.6C137.8 26.3 138.7 26.9 139.6 27.3C140.5 27.7 141.5 27.9 142.6 27.9H144.5V29.5H142.6C141.3 29.5 140.1 29.3 139 28.8C137.8 28.3 136.8 27.6 135.9 26.8C135 25.9 134.3 24.8 133.8 23.5C133.1 22.2 132.8 20.7 132.8 19.2ZM133.8 26.5L135.1 27.8C134.7 28.9 134.5 30.1 134.5 31.4V40.5C134.5 41.9 134.1 43 133.3 43.9C132.5 44.7 131.6 45.1 130.4 45.1H127.6V43.4H130.5C131.2 43.4 131.7 43.1 132.1 42.6C132.5 42.1 132.7 41.4 132.7 40.5V31.3C132.8 29.6 133.1 28 133.8 26.5ZM136.6 28.9L138.2 29.7C138 30.5 138 31.1 138 31.4V40.5C138 42.9 137.3 44.9 135.8 46.3C134.3 47.7 132.6 48.5 130.5 48.5H127.7V46.8H130.5C132.1 46.8 133.5 46.2 134.6 45.1C135.7 44 136.3 42.4 136.3 40.5V31.3C136.2 30.6 136.3 29.7 136.6 28.9ZM139.7 30.2L141.4 30.4C141.3 30.7 141.3 31 141.3 31.3V40.5C141.3 42.8 140.8 44.8 139.8 46.6C138.8 48.4 137.4 49.7 135.8 50.6C134.2 51.5 132.4 52 130.4 52H127.6V50.3H130.5C133 50.3 135.2 49.4 137 47.6C138.8 45.8 139.7 43.5 139.7 40.6V31.4C139.6 30.9 139.7 30.5 139.7 30.2Z" fill="black"></path>
    </g>
    <defs>
      <clipPath id="clip0_1_258182">
        <rect width="145" height="52" fill="white" transform="translate(0 0.5)"></rect>
      </clipPath>
    </defs>
  </symbol>
  <symbol fill="none" xmlns="http://www.w3.org/2000/svg" viewBox="0 0 41 42" id="flex">
    <path d="M1.60938 30.6349V38.7556H12.9697V30.6349L7.28954 27.5201L1.60938 30.6349Z" stroke="#1A2578" stroke-width="1.5" stroke-linecap="round" stroke-linejoin="round"></path>
    <path d="M9.38116 32.4267H5.4209V38.7538H9.38116V32.4267Z" stroke="#1A2578" stroke-width="1.5" stroke-linecap="round" stroke-linejoin="round"></path>
    <path d="M20.4865 30.8749C25.7816 30.8749 30.0741 26.5824 30.0741 21.2874C30.0741 15.9923 25.7816 11.6998 20.4865 11.6998C15.1914 11.6998 10.8989 15.9923 10.8989 21.2874C10.8989 26.5824 15.1914 30.8749 20.4865 30.8749Z" stroke="#BF0830" stroke-width="1.5" stroke-linecap="round" stroke-linejoin="round"></path>
    <path d="M14.3164 23.1627L18.0925 26.9372L26.8474 18.1823L24.8792 16.2142L18.0477 23.0442L16.2557 21.2522L14.3164 23.1627Z" stroke="#BF0830" stroke-width="1.5" stroke-linecap="round" stroke-linejoin="round"></path>
    <path d="M39.4204 2.487H28.2202V13.4662H39.4204V2.487Z" stroke="#1A2578" stroke-width="1.5" stroke-linecap="round" stroke-linejoin="round"></path>
    <path d="M35.9131 8.8125H31.7271V13.4662H35.9131V8.8125Z" stroke="#1A2578" stroke-width="1.5" stroke-linecap="round" stroke-linejoin="round"></path>
    <path d="M3.74756 20.9992C3.74746 16.7904 5.33277 12.7361 8.18771 9.64377C11.0427 6.55141 14.9577 4.64795 19.153 4.31256" stroke="#1A2578" stroke-width="1.5" stroke-linecap="round" stroke-linejoin="round"></path>
    <path d="M15.7999 9.97511L14.8471 9.19363L18.6968 4.50314L13.7373 1.00567L14.4483 0L20.4888 4.26133L15.7999 9.97511Z" fill="#1A2578"></path>
    <path d="M37.2282 20.9993C37.2284 25.2082 35.6431 29.2627 32.7882 32.3553C29.9333 35.4479 26.0182 37.3517 21.8228 37.6875" stroke="#1A2578" stroke-width="1.5" stroke-linecap="round" stroke-linejoin="round"></path>
    <path d="M25.1757 32.0249L26.1285 32.8048L22.2788 37.4969L27.2383 40.9944L26.5273 42L20.4868 37.7387L25.1757 32.0249Z" fill="#1A2578"></path>
  </symbol>
  <symbol fill="none" xmlns="http://www.w3.org/2000/svg" viewBox="0 0 180 36" id="glassdoor">
    <path fill-rule="evenodd" clip-rule="evenodd" d="M180 8.32196C179.994 8.21799 179.962 8.11727 179.906 8.02917C179.851 7.94108 179.775 7.86855 179.685 7.81805C179.277 7.61105 178.682 7.46997 177.471 7.46997C174.738 7.46997 172.321 8.83795 171.266 11.127V8.33093C171.267 8.27329 171.255 8.21616 171.234 8.16284C171.212 8.10953 171.18 8.06122 171.14 8.02039C171.099 7.97955 171.051 7.94709 170.998 7.92499C170.946 7.90288 170.889 7.89148 170.832 7.89148H166.74C166.682 7.89148 166.626 7.90288 166.573 7.92499C166.52 7.94709 166.472 7.97955 166.432 8.02039C166.391 8.06122 166.359 8.10953 166.338 8.16284C166.316 8.21616 166.305 8.27329 166.305 8.33093V27.18C166.305 27.4215 166.499 27.618 166.74 27.618H171.027C171.084 27.618 171.14 27.6067 171.193 27.5847C171.246 27.5626 171.294 27.5303 171.334 27.4896C171.374 27.449 171.406 27.4007 171.428 27.3475C171.45 27.2944 171.461 27.2375 171.461 27.18V18.702C171.461 14.9145 174.073 13.032 177.471 13.032C178.264 13.032 179.055 13.2091 179.453 13.3411C179.725 13.4311 180 13.2059 180 12.9164V8.32196ZM152.606 22.992C149.675 22.992 147.41 20.9026 147.41 17.7466C147.41 14.5906 149.677 12.4995 152.606 12.4995C155.535 12.4995 157.801 14.5906 157.801 17.7466C157.801 20.9026 155.535 22.9935 152.606 22.9935V22.992ZM152.606 7.40845C146.59 7.40845 142.099 11.5921 142.099 17.7466C142.099 23.9011 146.591 28.0831 152.606 28.0831C158.619 28.0831 163.111 23.901 163.111 17.748C163.111 11.592 158.619 7.40845 152.606 7.40845ZM128.754 22.9935C125.823 22.9935 123.557 20.9026 123.557 17.7466C123.557 14.5906 125.823 12.4995 128.754 12.4995C131.683 12.4995 133.947 14.5906 133.947 17.7466C133.947 20.9026 131.683 22.9935 128.754 22.9935ZM128.754 7.40845C122.738 7.40845 118.245 11.5921 118.245 17.7466C118.245 23.9011 122.738 28.0831 128.754 28.0831C134.766 28.0831 139.259 23.9011 139.259 17.7466C139.259 11.5921 134.766 7.40845 128.754 7.40845ZM104.934 23.0414C102.005 23.0414 99.8167 20.9506 99.8167 17.7556C99.8167 14.5591 102.005 12.468 104.934 12.468C107.826 12.468 110.051 14.4811 110.051 17.7556C110.051 20.9896 107.826 23.0414 104.934 23.0414ZM114.617 0.00146484H110.33C110.214 0.00146484 110.104 0.0476808 110.022 0.129822C109.941 0.211963 109.895 0.323288 109.895 0.439453V10.7325C108.567 8.83804 106.38 7.37695 103.335 7.37695C98.5686 7.37695 94.5059 11.0881 94.5059 17.7556C94.5059 24.4231 98.5671 28.131 103.411 28.131C106.263 28.131 108.489 26.8681 109.897 24.8566V27.18C109.897 27.4215 110.09 27.618 110.328 27.618H114.617C114.855 27.618 115.05 27.423 115.05 27.18V0.439453C115.05 0.323548 115.004 0.212469 114.923 0.130371C114.842 0.0482731 114.732 0.00186178 114.617 0.00146484ZM91.6661 21.6465C91.6661 26.1465 88.4246 28.0785 83.2314 28.0785C79.6418 28.0785 76.5551 27.1035 74.7893 25.0845C74.7225 25.0053 74.6851 24.9054 74.6832 24.8015C74.6813 24.6975 74.715 24.5961 74.7789 24.5145L77.2572 21.2655C77.2954 21.2164 77.3438 21.1763 77.3989 21.1479C77.454 21.1196 77.5145 21.1037 77.5764 21.1013C77.6382 21.0988 77.6998 21.1099 77.757 21.1339C77.8141 21.1578 77.8653 21.1941 77.9072 21.2401C79.2163 22.5946 81.2306 23.4225 83.7387 23.4225C85.1817 23.4225 86.3539 23.0294 86.3539 21.924C86.3539 20.8589 85.3007 20.6221 82.019 19.9111C79.1286 19.3201 75.5345 17.979 75.5345 13.6785C75.5345 9.69303 78.6615 7.40552 83.7758 7.40552C87.1423 7.40552 89.5626 8.43153 91.2674 10.0455C91.4311 10.2 91.446 10.461 91.3076 10.6395L88.9557 13.7236C88.9212 13.7709 88.8774 13.8105 88.827 13.8398C88.7766 13.8692 88.7206 13.8877 88.6628 13.8942C88.6049 13.9007 88.5463 13.8951 88.4907 13.8776C88.4351 13.86 88.3837 13.831 88.3398 13.7924C87.1869 12.7529 85.2694 12.1005 83.3861 12.1005C81.7855 12.1005 80.887 12.6136 80.887 13.4806C80.887 14.4676 81.9431 14.7045 85.4182 15.4545C88.8144 16.2045 91.6661 17.505 91.6661 21.648V21.6465ZM71.8423 21.6584C71.8423 26.1569 68.5993 28.0906 63.4061 28.0906C59.818 28.0906 56.7312 27.1155 54.9654 25.095C54.8988 25.0161 54.8614 24.9164 54.8592 24.8128C54.857 24.7092 54.8903 24.6081 54.9535 24.5264L57.4319 21.2759C57.4704 21.2272 57.5188 21.1874 57.574 21.1593C57.6292 21.1312 57.6897 21.1156 57.7515 21.1133C57.8132 21.1111 57.8748 21.1222 57.9318 21.1461C57.9889 21.1701 58.0401 21.2062 58.082 21.252C59.3926 22.605 61.4068 23.4346 63.9134 23.4346C65.3578 23.4346 66.5301 23.0416 66.5301 21.9346C66.5301 20.8696 65.4754 20.634 62.1952 19.923C59.3033 19.3305 55.7092 17.9894 55.7092 13.6904C55.7092 9.70493 58.8362 7.41742 63.9521 7.41742C67.317 7.41742 69.7359 8.44193 71.4422 10.0574C71.6058 10.2119 71.6206 10.4714 71.4838 10.6514L69.1304 13.7355C68.9817 13.9305 68.699 13.9695 68.516 13.8045C67.3616 12.765 65.4457 12.111 63.5624 12.111C61.9602 12.111 61.0616 12.6255 61.0616 13.4925C61.0616 14.4795 62.1179 14.7166 65.5929 15.4666C68.9906 16.2151 71.8409 17.5169 71.8409 21.6584H71.8423ZM46.1469 19.6485C46.1469 21.8175 44.3916 23.712 41.6559 23.712C39.8589 23.712 38.883 22.8824 38.883 21.6194C38.883 20.5154 39.7041 19.6859 41.3048 19.4489L46.1469 18.858V19.647V19.6485ZM42.7507 7.45642C38.6598 7.45642 35.579 8.83941 34.2015 11.5739C34.1561 11.6688 34.1453 11.7769 34.1711 11.879C34.197 11.9811 34.2578 12.0707 34.3428 12.132L37.4683 14.3881C37.6646 14.5291 37.9413 14.4824 38.0588 14.2679C38.9276 12.6899 40.8704 12.1514 42.7507 12.1514C45.055 12.1514 46.1469 12.9795 46.1469 14.124V14.439C46.1469 14.913 45.8747 15.1499 45.1324 15.2294L39.7815 15.702C36.1889 16.056 33.5335 18.3061 33.5335 21.8956C33.5335 25.5256 36.2663 28.0499 40.1326 28.0499C43.1792 28.0499 45.1324 26.5516 46.1469 24.9736V27.2175C46.1469 27.4605 46.3403 27.657 46.5813 27.657H50.8686C50.9838 27.657 51.0943 27.6108 51.1758 27.5286C51.2572 27.4465 51.303 27.3352 51.303 27.219V15.4651C51.303 9.98109 48.4512 7.45642 42.7493 7.45642H42.7507ZM29.996 0.437988V27.1785C29.996 27.42 29.8027 27.6165 29.5617 27.6165H25.2357C25.1205 27.6165 25.01 27.5703 24.9285 27.4882C24.8471 27.406 24.8013 27.2947 24.8013 27.1785V0.430481C24.8013 0.191981 24.9917 0 25.2268 0H29.5617C29.8012 0 29.996 0.194988 29.996 0.437988ZM10.4281 23.0206C7.49754 23.0206 5.31075 20.9295 5.31075 17.7345C5.31075 14.5395 7.49902 12.447 10.4281 12.447C13.3587 12.447 15.5052 14.46 15.5052 17.7345C15.5052 20.9685 13.3572 23.0206 10.4281 23.0206ZM20.1094 7.87042H15.8281C15.7113 7.87042 15.5994 7.91734 15.5168 8.00061C15.4342 8.08388 15.3878 8.1967 15.3878 8.31445V10.6335C14.2944 8.85748 12.0288 7.39655 9.02232 7.39655C4.17868 7.39655 0 11.067 0 17.6565C0 24.204 3.98378 27.7936 9.17849 27.7936C11.9901 27.7936 14.1768 26.61 15.4666 24.756V26.0189C15.4666 28.8584 14.098 31.1085 9.72444 31.1085C7.52577 31.1085 5.75999 30.369 4.2114 28.9845C4.16516 28.9415 4.11001 28.9093 4.04996 28.8904C3.98991 28.8714 3.92651 28.8661 3.86419 28.8748C3.80187 28.8836 3.74221 28.9061 3.68959 28.9409C3.63697 28.9757 3.59266 29.0219 3.55984 29.076L1.61853 32.3641C1.36713 32.7886 1.40128 33.0286 1.55897 33.1681C3.55533 34.9186 6.14976 36 9.92084 36C18.122 36 20.5438 31.386 20.5438 26.295V8.31006C20.544 8.25241 20.5329 8.19528 20.5112 8.14197C20.4895 8.08865 20.4575 8.04016 20.4171 7.99933C20.3768 7.9585 20.3288 7.92604 20.276 7.90393C20.2232 7.88183 20.1666 7.87042 20.1094 7.87042Z" fill="#0CAA41"></path>
  </symbol>
  <symbol fill="none" xmlns="http://www.w3.org/2000/svg" viewBox="0 0 42 40" id="grow">
    <path d="M14.3741 29.4625H1V39.1559H14.3741V29.4625Z" stroke="#1A2578" stroke-width="1.5" stroke-linecap="round" stroke-linejoin="round"></path>
    <path d="M27.8706 23.9412H14.374V39.1557H27.8706V23.9412Z" stroke="#1A2578" stroke-width="1.5" stroke-linecap="round" stroke-linejoin="round"></path>
    <path d="M40.9998 17.7847H27.8706V39.1558H40.9998V17.7847Z" stroke="#1A2578" stroke-width="1.5" stroke-linecap="round" stroke-linejoin="round"></path>
    <path d="M23.7662 4.23511H6.75439V17.7863H23.7662V4.23511Z" stroke="#BF0830" stroke-width="1.5" stroke-linecap="round" stroke-linejoin="round"></path>
    <path d="M6.75439 4.23511V8.13101C6.75439 8.64676 6.95928 9.14138 7.32397 9.50607C7.68866 9.87076 8.18328 10.0756 8.69903 10.0756H21.8233C22.3387 10.0752 22.8329 9.87013 23.1973 9.50548C23.5616 9.14084 23.7662 8.64647 23.7662 8.13101V4.23511H6.75439Z" stroke="#BF0830" stroke-width="1.5" stroke-linecap="round" stroke-linejoin="round"></path>
    <path d="M12.5967 12.1774V10.0756" stroke="#BF0830" stroke-width="1.5" stroke-linecap="round" stroke-linejoin="round"></path>
    <path d="M18.0796 12.1774V10.0756" stroke="#BF0830" stroke-width="1.5" stroke-linecap="round" stroke-linejoin="round"></path>
    <path d="M11.7759 4.23512V0.954895H18.7964V4.23512" stroke="#BF0830" stroke-width="1.5" stroke-linecap="round" stroke-linejoin="round"></path>
  </symbol>
  <symbol fill="none" xmlns="http://www.w3.org/2000/svg" viewBox="0 0 42 43" id="learn">
    <path d="M1 34.1033L11.0614 26.3268C11.0614 26.3268 15.5642 23.19 19.7704 26.9444L28.9875 29.1335C29.516 29.2588 29.975 29.5851 30.2669 30.0432C30.5589 30.5013 30.6609 31.0551 30.5513 31.5872V31.5872C30.4399 32.129 30.1183 32.6045 29.6569 32.9096C29.1956 33.2147 28.6321 33.3245 28.0899 33.2149L18.7937 31.3377L28.1143 33.2271C28.3771 33.2813 28.6485 33.2796 28.9106 33.2219C29.1727 33.1643 29.4197 33.052 29.6355 32.8924L37.917 26.7892C38.2901 26.5071 38.7526 26.3694 39.2192 26.4016C39.6859 26.4337 40.1251 26.6336 40.456 26.9642V26.9642C40.6493 27.1576 40.7995 27.3898 40.8967 27.6454C40.9938 27.901 41.0359 28.1742 41.0199 28.4472C41.004 28.7202 40.9304 28.9868 40.8041 29.2293C40.6778 29.4719 40.5016 29.6849 40.2871 29.8545L29.9687 38.0022C29.2527 38.5681 28.3667 38.8757 27.4541 38.8754H10.7206L6.98753 42" stroke="#1A2578" stroke-width="1.5" stroke-linecap="round" stroke-linejoin="round"></path>
    <path d="M28.3195 4.92322C29.6247 4.92322 34.8805 6.03675 34.8805 11.5466C34.8805 11.5466 34.6249 15.2736 32.2366 16.9622C32.2366 16.9622 31.0592 17.63 31.0592 21.1653V24.3188H25.1706V21.0345C25.1706 21.0345 25.5935 18.4043 23.7056 16.7979C22.2087 15.5246 21.2823 13.7737 21.4131 11.0963C21.5364 8.48592 23.9247 4.92322 28.3195 4.92322Z" stroke="#BF0830" stroke-width="1.5" stroke-linecap="round" stroke-linejoin="round"></path>
    <path d="M25.1665 22.0523H31.0597" stroke="#BF0830" stroke-width="1.5" stroke-linecap="round" stroke-linejoin="round"></path>
    <path d="M31.1769 19.3992H25.1665" stroke="#BF0830" stroke-width="1.5" stroke-linecap="round" stroke-linejoin="round"></path>
    <path d="M28.7015 8.32623L26.8867 11.7018H29.4986L27.6184 14.8873" stroke="#BF0830" stroke-width="1.5" stroke-linecap="round" stroke-linejoin="round"></path>
    <path d="M34.1475 5.58654L35.6763 4.08966" stroke="#BF0830" stroke-width="1.5" stroke-linecap="round" stroke-linejoin="round"></path>
    <path d="M36.6636 11.7338H38.8617" stroke="#BF0830" stroke-width="1.5" stroke-linecap="round" stroke-linejoin="round"></path>
    <path d="M34.1475 17.8171L35.6763 19.2181" stroke="#BF0830" stroke-width="1.5" stroke-linecap="round" stroke-linejoin="round"></path>
    <path d="M22.0766 17.8171L20.4854 19.2181" stroke="#BF0830" stroke-width="1.5" stroke-linecap="round" stroke-linejoin="round"></path>
    <path d="M19.5604 11.7338H17.3638" stroke="#BF0830" stroke-width="1.5" stroke-linecap="round" stroke-linejoin="round"></path>
    <path d="M22.0766 5.71433L20.4854 4.08966" stroke="#BF0830" stroke-width="1.5" stroke-linecap="round" stroke-linejoin="round"></path>
    <path d="M28.1123 3.13427L28.1716 1" stroke="#BF0830" stroke-width="1.5" stroke-linecap="round" stroke-linejoin="round"></path>
  </symbol>
  <symbol fill="none" xmlns="http://www.w3.org/2000/svg" viewBox="0 0 137 37" id="logofooter">
    <path d="M103.459 21.088C103.459 22.9521 103.174 24.6109 102.603 26.0672C102.032 27.525 101.228 28.7484 100.193 29.7387C99.1574 30.729 97.9166 31.4805 96.4748 31.9916C95.033 32.5014 93.4252 32.7577 91.6528 32.7577C89.8804 32.7577 88.2726 32.4883 86.8323 31.9465C85.3905 31.4062 84.1512 30.6329 83.1142 29.6265C82.0788 28.6202 81.2734 27.3954 80.704 25.9551C80.1331 24.5133 79.8477 22.8909 79.8477 21.088C79.8477 19.3156 80.1331 17.7078 80.704 16.2674C81.2749 14.8257 82.0788 13.6023 83.1142 12.5945C84.1512 11.5882 85.3905 10.8149 86.8323 10.2746C88.2741 9.73426 89.8804 9.46338 91.6528 9.46338C93.4252 9.46338 95.033 9.74154 96.4748 10.2964C97.9166 10.8527 99.1559 11.6333 100.193 12.6397C101.23 13.646 102.032 14.8708 102.603 16.3126C103.174 17.7529 103.459 19.3462 103.459 21.088ZM87.6886 21.088C87.6886 22.92 88.0411 24.3254 88.7474 25.3012C89.4537 26.2784 90.4368 26.7648 91.6994 26.7648C92.9606 26.7648 93.9305 26.2696 94.6063 25.2779C95.282 24.2876 95.6199 22.8895 95.6199 21.088C95.6199 19.2865 95.2747 17.8971 94.583 16.9199C93.8912 15.9441 92.9155 15.4563 91.6543 15.4563C90.3931 15.4563 89.4159 15.9441 88.7255 16.9199C88.0323 17.8956 87.6886 19.2865 87.6886 21.088Z" fill="white"></path>
    <path d="M107.784 32.0366C107.304 31.6157 106.919 31.1205 106.635 30.5497C106.35 29.9788 106.207 29.3336 106.207 28.6127C106.207 28.0127 106.35 27.4185 106.635 26.8331C106.921 26.2461 107.273 25.6986 107.694 25.1874L115.445 16.0852H107.154C106.973 15.7546 106.8 15.3352 106.635 14.824C106.471 14.3143 106.388 13.758 106.388 13.1565C106.388 12.105 106.621 11.3462 107.087 10.8817C107.551 10.4156 108.175 10.1826 108.957 10.1826H123.15C123.631 10.6035 124.014 11.1001 124.299 11.6695C124.585 12.2404 124.727 12.8871 124.727 13.608C124.727 14.2094 124.585 14.8022 124.299 15.3876C124.014 15.9731 123.66 16.5221 123.241 17.0333L115.67 26.1355H124.502C124.682 26.4661 124.854 26.8869 125.02 27.3967C125.185 27.9078 125.268 28.4642 125.268 29.0642C125.268 30.1157 125.035 30.8744 124.569 31.339C124.103 31.805 123.479 32.038 122.699 32.038H107.784V32.0366Z" fill="white"></path>
    <path d="M128.512 4.05593C128.512 2.91415 128.895 1.95442 129.661 1.17236C130.427 0.391758 131.44 0 132.702 0C133.963 0 134.978 0.391758 135.744 1.17236C136.51 1.95442 136.893 2.91415 136.893 4.05593C136.893 5.19771 136.51 6.1589 135.744 6.9395C134.978 7.72156 133.964 8.11041 132.702 8.11041C131.44 8.11041 130.427 7.72156 129.661 6.9395C128.895 6.1589 128.512 5.19771 128.512 4.05593ZM136.533 31.9916C136.203 32.0513 135.715 32.1343 135.068 32.2392C134.423 32.3441 133.769 32.3965 133.108 32.3965C132.447 32.3965 131.854 32.3513 131.328 32.261C130.803 32.1707 130.36 31.9902 129.999 31.7207C129.639 31.4499 129.361 31.0829 129.166 30.6168C128.969 30.1508 128.873 29.5435 128.873 28.792V10.4537C129.203 10.394 129.69 10.311 130.337 10.2061C130.982 10.1012 131.636 10.0488 132.297 10.0488C132.957 10.0488 133.551 10.094 134.076 10.1842C134.602 10.2745 135.045 10.4551 135.406 10.726C135.767 10.9954 136.044 11.3639 136.239 11.8299C136.434 12.296 136.532 12.9047 136.532 13.6547V31.9916H136.533Z" fill="white"></path>
    <path d="M53.1731 9.46191C54.4038 9.46191 55.6125 9.63522 56.7995 9.98037C57.9864 10.3255 59.0146 10.844 59.8855 11.5343C60.7869 10.9343 61.8006 10.4377 62.9263 10.0474C64.0535 9.65706 65.4123 9.46191 67.0055 9.46191C68.1473 9.46191 69.2658 9.61192 70.3624 9.91338C71.4591 10.2134 72.4348 10.6867 73.2911 11.3319C74.1475 11.9785 74.8305 12.8348 75.3417 13.9009C75.8514 14.9669 76.1077 16.266 76.1077 17.7981V31.9916C75.8077 32.0819 75.3344 32.1722 74.6892 32.2611C74.0426 32.3514 73.3742 32.3965 72.6838 32.3965C72.0227 32.3965 71.4299 32.3514 70.9042 32.2611C70.3784 32.1708 69.9357 31.9916 69.5745 31.7208C69.2148 31.4499 68.9367 31.0829 68.7415 30.6168C68.5449 30.1523 68.4488 29.5435 68.4488 28.792V18.0238C68.4488 17.1223 68.1925 16.4699 67.6827 16.0635C67.1716 15.6572 66.4798 15.4562 65.6104 15.4562C65.1895 15.4562 64.738 15.5538 64.2589 15.749C63.7783 15.9441 63.4171 16.148 63.1768 16.3577C63.2059 16.4786 63.2219 16.5907 63.2219 16.6956V16.9883V31.9931C62.8914 32.0834 62.4035 32.1737 61.7583 32.2625C61.1117 32.3528 60.4578 32.398 59.7981 32.398C59.1369 32.398 58.5442 32.3528 58.0184 32.2625C57.4927 32.1722 57.0499 31.9931 56.6888 31.7222C56.3276 31.4513 56.0494 31.0843 55.8557 30.6183C55.6591 30.1537 55.563 29.545 55.563 28.7935V18.0252C55.563 17.1238 55.2848 16.4713 54.73 16.065C54.1737 15.6587 53.5052 15.4577 52.7246 15.4577C52.1843 15.4577 51.7183 15.5407 51.3279 15.7053C50.9376 15.8713 50.6071 16.0286 50.3362 16.1786V31.9946C50.0362 32.0848 49.5629 32.1751 48.9177 32.264C48.2711 32.3543 47.6026 32.3994 46.9123 32.3994C46.2511 32.3994 45.6569 32.3543 45.1312 32.264C44.6054 32.1737 44.1627 31.9946 43.8015 31.7237C43.4418 31.4528 43.1622 31.0858 42.9685 30.6198C42.7734 30.1552 42.6758 29.5464 42.6758 28.795V15.1883C42.6758 14.3771 42.8491 13.7319 43.1942 13.2513C43.5394 12.7707 44.0127 12.3207 44.6127 11.8998C45.6336 11.1789 46.9036 10.5935 48.4196 10.142C49.9357 9.68765 51.5202 9.46191 53.1731 9.46191Z" fill="white"></path>
    <path d="M7.93618 34.1978C6.42594 33.2133 5.07882 32.0016 3.94287 30.6079C4.1555 30.2365 4.2458 29.8069 4.2458 29.3321C4.2458 24.4752 4.2458 19.6183 4.2458 14.7628V14.4599C4.35066 14.5356 4.40891 14.5866 4.47445 14.6245C5.56234 15.2492 6.64877 15.8769 7.74249 16.49C7.89832 16.5774 7.92745 16.6765 7.92745 16.8352C7.92454 22.5004 7.92598 28.1671 7.92161 33.8323C7.92161 33.956 7.92598 34.0769 7.93618 34.1978ZM16.0204 36.9459C14.3995 36.8192 12.8426 36.4697 11.3775 35.9279C11.9703 35.5085 12.2892 34.9522 12.2907 34.2182C12.2936 29.2884 12.2921 24.3572 12.2921 19.4275V19.078C12.6781 19.311 13.0174 19.5265 13.3669 19.7231C14.1067 20.1411 14.848 20.5576 15.5966 20.9567C15.9141 21.1256 16.032 21.3353 16.0306 21.7169C16.016 26.7937 16.0189 31.8706 16.0204 36.9459ZM17.3952 36.9998C17.3908 36.9998 17.3879 36.9998 17.3835 36.9998C18.4073 36.9998 19.4108 36.9095 20.3851 36.7391C20.3894 31.5035 20.388 26.2665 20.3851 21.0309C20.3851 20.5431 20.3909 20.0508 20.3239 19.5717C20.2846 19.2877 20.1287 19.0095 19.986 18.7503C19.753 18.3294 19.3394 18.1022 18.9389 17.8721C18.3738 17.5488 17.8073 17.2299 17.2423 16.9066C16.6233 16.5512 16.0102 16.1886 15.3898 15.8361C14.583 15.3789 13.7689 14.9376 12.9664 14.4745C12.0795 13.9633 11.2057 13.4317 10.3217 12.9147C9.89061 12.6628 9.44788 12.4268 9.01243 12.1793C8.15464 11.6943 7.2983 11.2093 6.44342 10.7215C5.9104 10.4171 5.38174 10.1069 4.84727 9.80541C4.45696 9.5855 4.04044 9.40636 3.67199 9.15732C3.6516 9.14276 3.63122 9.12966 3.60938 9.11655C4.8298 7.52185 6.31818 6.14706 8.01046 5.05771C7.86483 5.51792 7.89687 6.00579 8.08765 6.50532C8.29154 7.0398 8.70804 7.40389 9.19592 7.68205C10.0042 8.1408 10.8212 8.5879 11.6295 9.04811C12.3839 9.47773 13.1324 9.91899 13.8854 10.353C14.5407 10.7316 15.1946 11.1088 15.8529 11.4831C16.4092 11.7991 16.9685 12.1094 17.5262 12.4225C17.969 12.6715 18.4132 12.9176 18.8501 13.1739C19.3321 13.4565 19.8025 13.7579 20.2875 14.0346C20.9239 14.3987 21.5691 14.7468 22.2084 15.1051C22.7094 15.3861 23.2075 15.6716 23.707 15.9541C23.9385 16.0852 24.0784 16.225 24.0769 16.5512C24.0609 22.1582 24.0667 27.7666 24.0609 33.3735C24.0609 33.8235 24.1264 34.2371 24.3492 34.6391C24.4992 34.9085 24.6827 35.1226 24.8939 35.2901C26.1653 34.6784 27.3493 33.9167 28.427 33.0269C28.4387 30.1025 28.4314 27.1782 28.4314 24.2538C28.4314 21.197 28.4299 18.1401 28.4328 15.0818C28.4328 14.6885 28.3644 14.3201 28.1911 13.9589C27.9945 13.5482 27.7003 13.238 27.3173 13.0137C26.7012 12.6526 26.0721 12.3162 25.4531 11.9608C24.5502 11.4423 23.6546 10.9108 22.7516 10.3938C21.9448 9.93211 21.1278 9.48647 20.3195 9.02772C19.2841 8.44081 18.2515 7.84807 17.219 7.25534C16.466 6.8228 15.716 6.3859 14.9645 5.94899C14.4067 5.62423 13.8519 5.29509 13.2926 4.97178C12.9329 4.76353 12.5688 4.55964 12.2047 4.35721C11.8931 4.18536 11.561 4.04409 11.2698 3.84311C11.1154 3.7368 10.9523 3.65816 10.7848 3.60282C12.6446 2.83678 14.666 2.38385 16.7835 2.31104C16.8927 2.39987 17.0122 2.48288 17.1447 2.55861C18.1481 3.13678 19.1442 3.72661 20.1491 4.30332C20.8453 4.70236 21.5531 5.08392 22.2521 5.48005C22.9162 5.85579 23.573 6.24318 24.2356 6.62037C24.7993 6.94077 25.3672 7.24951 25.9308 7.567C26.375 7.81749 26.8163 8.07089 27.2561 8.32866C27.6479 8.55876 28.0309 8.80489 28.427 9.02917C28.9091 9.30151 29.4071 9.54618 29.8892 9.81997C30.5533 10.1972 31.2057 10.5918 31.8669 10.9734C32.0358 11.0724 32.1174 11.1802 32.1174 11.403C32.1072 17.0595 32.1058 22.7159 32.1189 28.3724C32.1189 28.502 32.1276 28.636 32.1451 28.7685C33.7893 26.1165 34.7403 22.9883 34.7417 19.6387C34.7417 19.643 34.7417 19.646 34.7417 19.6503C34.7432 29.2331 26.975 36.9998 17.3952 36.9998Z" fill="#D60936"></path>
    <path d="M3.92923 30.6326C1.47382 27.6369 0 23.8038 0 19.6284C0 15.6643 1.32819 12.0103 3.56369 9.08594C3.57971 9.09613 3.59573 9.10633 3.61175 9.11652C1.37625 12.0365 0.0466032 15.689 0.0466032 19.6518C0.0466032 23.8067 1.50732 27.6209 3.94379 30.6079C3.93942 30.6166 3.93505 30.6239 3.92923 30.6326ZM11.3683 35.9337C10.1551 35.4866 9.00752 34.9099 7.93856 34.2182C7.93856 34.2109 7.9371 34.2036 7.9371 34.1978C9.00752 34.8954 10.1609 35.4779 11.377 35.9279C11.3755 35.9294 11.3712 35.9323 11.3683 35.9337ZM17.3713 36.9998C16.9169 36.9998 16.4655 36.9823 16.0198 36.9488V36.9474C16.4699 36.9823 16.9242 37.0012 17.383 37.0012C17.3801 36.9998 17.3757 36.9998 17.3713 36.9998Z" fill="#E3E3E3"></path>
    <path d="M17.3837 36.9999C16.925 36.9999 16.4706 36.981 16.0206 36.9461C16.0191 31.8707 16.0162 26.7939 16.0323 21.717C16.0337 21.3355 15.9157 21.1272 15.5983 20.9568C14.8482 20.5563 14.1084 20.1398 13.3686 19.7233C13.0191 19.5252 12.6797 19.3097 12.2938 19.0781V19.4276C12.2938 24.3574 12.2953 29.2871 12.2924 34.2183C12.2924 34.9523 11.9734 35.5086 11.3807 35.9266C10.1632 35.4766 9.0112 34.8941 7.93933 34.1965C7.92913 34.0756 7.92476 33.9547 7.92476 33.8309C7.92913 28.1657 7.92767 22.4991 7.93059 16.8339C7.93059 16.6751 7.90146 16.5761 7.74563 16.4887C6.65191 15.8756 5.56548 15.2479 4.47758 14.6231C4.41205 14.5853 4.3538 14.5343 4.24894 14.4586V14.7615C4.24894 19.6184 4.24894 24.4739 4.24894 29.3308C4.24894 29.8056 4.15864 30.2352 3.94602 30.6066C1.50955 27.6196 0.0488281 23.8054 0.0488281 19.6505C0.0488281 15.6877 1.37702 12.0367 3.61251 9.11523C3.6329 9.12834 3.65329 9.1429 3.67514 9.15601C4.04505 9.40505 4.46011 9.58563 4.85041 9.80409C5.38489 10.1056 5.91354 10.4158 6.44657 10.7201C7.29999 11.2095 8.15632 11.6944 9.01265 12.1794C9.4481 12.4255 9.88938 12.6614 10.3205 12.9148C11.2045 13.4319 12.0783 13.9634 12.9652 14.4746C13.7676 14.9377 14.5832 15.379 15.3885 15.8363C16.009 16.1887 16.6221 16.5514 17.241 16.9067C17.8061 17.2315 18.3726 17.549 18.9377 17.8723C19.3396 18.1024 19.7518 18.3296 19.9848 18.7504C20.1275 19.0097 20.2833 19.2864 20.3227 19.5718C20.3897 20.0524 20.3838 20.5447 20.3838 21.0311C20.3867 26.2667 20.3882 31.5037 20.3838 36.7393C19.411 36.9097 18.4076 36.9985 17.3837 36.9999Z" fill="#BF0830"></path>
    <path d="M8.01367 5.05633C8.02241 5.0272 8.0326 4.99953 8.0428 4.9704C8.88457 4.43301 9.77585 3.96698 10.7079 3.57959C10.7356 3.58687 10.7618 3.59561 10.7895 3.60435C9.81663 4.0063 8.88748 4.49418 8.01367 5.05633Z" fill="#E3E3E3"></path>
    <path d="M24.8962 35.2903C24.6836 35.1243 24.5001 34.9102 24.3515 34.6393C24.1287 34.2373 24.0632 33.8223 24.0632 33.3737C24.069 27.7653 24.0617 22.1584 24.0792 16.5514C24.0807 16.2252 23.9408 16.0854 23.7093 15.9543C23.2098 15.6704 22.7117 15.3849 22.2107 15.1038C21.5714 14.7456 20.9247 14.3975 20.2898 14.0334C19.8048 13.7553 19.3344 13.4538 18.8524 13.1727C18.414 12.9164 17.9698 12.6703 17.5285 12.4212C16.9708 12.1081 16.4115 11.7979 15.8552 11.4819C15.1984 11.1076 14.543 10.7304 13.8877 10.3518C13.1362 9.91777 12.3876 9.4765 11.6318 9.04688C10.8235 8.58667 10.0065 8.14103 9.19822 7.68082C8.71034 7.40411 8.29383 7.03857 8.08994 6.50409C7.89916 6.00456 7.86712 5.51523 8.01275 5.05648C8.88656 4.49287 9.81571 4.00645 10.7886 3.60596C10.956 3.66275 11.1177 3.7414 11.2735 3.84771C11.5648 4.04869 11.8968 4.1885 12.2085 4.3618C12.5726 4.56423 12.9352 4.76812 13.2964 4.97638C13.8542 5.29969 14.4105 5.62883 14.9683 5.95359C15.7198 6.3905 16.4698 6.8274 17.2227 7.25994C18.2553 7.85267 19.2878 8.44395 20.3233 9.03231C21.1315 9.49106 21.9486 9.93671 22.7554 10.3984C23.6583 10.9154 24.554 11.4469 25.4569 11.9654C26.0759 12.3207 26.705 12.6572 27.321 13.0183C27.704 13.2426 27.9982 13.5528 28.1948 13.9635C28.3667 14.3232 28.4366 14.6917 28.4366 15.0849C28.4337 18.1418 28.4351 21.1987 28.4351 24.257C28.4351 27.1813 28.4439 30.1057 28.4308 33.03C27.3516 33.9169 26.1676 34.6786 24.8962 35.2903Z" fill="#BF0830"></path>
    <path d="M34.7431 19.6403C34.7358 10.0648 26.972 2.30392 17.3951 2.30392C17.1912 2.30392 16.9887 2.30683 16.7863 2.31411C16.7674 2.29955 16.7499 2.28353 16.7324 2.26751C16.945 2.26023 17.1577 2.25586 17.3718 2.25586C26.9662 2.25586 34.7431 10.0328 34.7431 19.6272C34.7431 19.6316 34.7431 19.6359 34.7431 19.6403Z" fill="#E3E3E3"></path>
    <path d="M32.1448 28.7699C32.1273 28.6374 32.1186 28.5034 32.1186 28.3738C32.1069 22.7174 32.1084 17.0609 32.1171 11.4044C32.1171 11.1816 32.037 11.0739 31.8666 10.9763C31.2054 10.5947 30.553 10.1986 29.8889 9.82285C29.4068 9.54905 28.9102 9.30439 28.4267 9.03205C28.0306 8.80923 27.6476 8.56165 27.2558 8.333C26.816 8.07523 26.3747 7.82183 25.9305 7.57133C25.3669 7.25385 24.7975 6.94365 24.2353 6.62471C23.5727 6.24751 22.9144 5.86012 22.2518 5.48439C21.5527 5.08826 20.8464 4.70669 20.1488 4.30766C19.1439 3.73094 18.1478 3.14112 17.1444 2.56295C17.0133 2.48722 16.8924 2.40421 16.7832 2.31537C16.9856 2.30809 17.1881 2.30518 17.392 2.30518C26.9689 2.30518 34.7342 10.0661 34.74 19.6416C34.74 22.9897 33.7904 26.1179 32.1448 28.7699Z" fill="#BF0830"></path>
    <path d="M14.3231 13.3022C15.0018 13.3022 15.6688 13.3984 16.3242 13.5877C16.9781 13.7785 17.546 14.0639 18.0266 14.4455C18.5233 14.1149 19.084 13.8411 19.7044 13.6256C20.3262 13.41 21.0748 13.3022 21.9544 13.3022C22.5836 13.3022 23.2011 13.3853 23.8054 13.5513C24.4098 13.7173 24.9487 13.978 25.4205 14.3348C25.8924 14.6916 26.2696 15.1635 26.5507 15.7518C26.8317 16.3402 26.973 17.0567 26.973 17.9014V25.7307C26.807 25.7802 26.5463 25.8298 26.1895 25.8793C25.8327 25.9288 25.4642 25.9535 25.0841 25.9535C24.7186 25.9535 24.3923 25.9288 24.1025 25.8793C23.8127 25.8298 23.5681 25.7307 23.3685 25.5807C23.1705 25.4307 23.0161 25.2283 22.9083 24.972C22.8006 24.7157 22.7467 24.3792 22.7467 23.9656V18.0252C22.7467 17.5286 22.6054 17.1674 22.3243 16.9431C22.0418 16.7203 21.6617 16.6082 21.1811 16.6082C20.9481 16.6082 20.7005 16.662 20.4354 16.7698C20.1704 16.8776 19.9709 16.9897 19.8383 17.1048C19.8544 17.1718 19.8631 17.2329 19.8631 17.2912V17.4528V25.7293C19.6811 25.7788 19.4116 25.8283 19.0548 25.8778C18.698 25.9273 18.3383 25.9521 17.9742 25.9521C17.6101 25.9521 17.2824 25.9273 16.9926 25.8778C16.7028 25.8283 16.4582 25.7293 16.2601 25.5793C16.0606 25.4293 15.9077 25.2268 15.7999 24.9705C15.6921 24.7142 15.6382 24.3778 15.6382 23.9642V18.0237C15.6382 17.5271 15.4853 17.1659 15.178 16.9417C14.8707 16.7188 14.5023 16.6067 14.0727 16.6067C13.7741 16.6067 13.5178 16.6518 13.3022 16.7436C13.0867 16.8353 12.9047 16.9213 12.7547 17.0043V25.7278C12.5886 25.7773 12.328 25.8268 11.9726 25.8764C11.6158 25.9259 11.2473 25.9506 10.8672 25.9506C10.5017 25.9506 10.1755 25.9259 9.88565 25.8764C9.59584 25.8268 9.35117 25.7278 9.15311 25.5778C8.95505 25.4278 8.80067 25.2254 8.6929 24.9691C8.58513 24.7127 8.53125 24.3763 8.53125 23.9627V16.4567C8.53125 16.0096 8.62591 15.6528 8.81669 15.3877C9.00602 15.1227 9.26816 14.8736 9.59875 14.6421C10.1624 14.2445 10.8629 13.9212 11.6988 13.6722C12.5377 13.4275 13.4115 13.3022 14.3231 13.3022Z" fill="white"></path>
  </symbol>
  <symbol fill="none" xmlns="http://www.w3.org/2000/svg" viewBox="0 0 137 38" id="logonav">
    <path d="M103.459 21.5874C103.459 23.4515 103.174 25.1103 102.603 26.5666C102.032 28.0244 101.228 29.2478 100.193 30.2381C99.1574 31.2284 97.9166 31.9799 96.4748 32.491C95.033 33.0008 93.4252 33.2571 91.6528 33.2571C89.8804 33.2571 88.2726 32.9877 86.8323 32.4459C85.3905 31.9056 84.1512 31.1323 83.1142 30.1259C82.0788 29.1196 81.2734 27.8948 80.704 26.4545C80.1331 25.0127 79.8477 23.3903 79.8477 21.5874C79.8477 19.815 80.1331 18.2072 80.704 16.7668C81.2749 15.3251 82.0788 14.1017 83.1142 13.0939C84.1512 12.0876 85.3905 11.3143 86.8323 10.774C88.2741 10.2336 89.8804 9.96277 91.6528 9.96277C93.4252 9.96277 95.033 10.2409 96.4748 10.7958C97.9166 11.3521 99.1559 12.1327 100.193 13.1391C101.23 14.1454 102.032 15.3702 102.603 16.812C103.174 18.2523 103.459 19.8456 103.459 21.5874ZM87.6886 21.5874C87.6886 23.4194 88.0411 24.8248 88.7474 25.8006C89.4537 26.7778 90.4368 27.2642 91.6994 27.2642C92.9606 27.2642 93.9305 26.769 94.6063 25.7773C95.282 24.787 95.6199 23.3889 95.6199 21.5874C95.6199 19.7859 95.2747 18.3965 94.583 17.4193C93.8912 16.4435 92.9155 15.9557 91.6543 15.9557C90.3931 15.9557 89.4159 16.4435 88.7255 17.4193C88.0323 18.395 87.6886 19.7859 87.6886 21.5874Z" fill="#1A2578"></path>
    <path d="M107.784 32.536C107.304 32.1151 106.919 31.6199 106.635 31.0491C106.35 30.4782 106.207 29.833 106.207 29.1121C106.207 28.5121 106.35 27.9179 106.635 27.3325C106.921 26.7455 107.273 26.198 107.694 25.6868L115.445 16.5846H107.154C106.973 16.254 106.8 15.8346 106.635 15.3234C106.471 14.8137 106.388 14.2574 106.388 13.6559C106.388 12.6044 106.621 11.8456 107.087 11.3811C107.551 10.915 108.175 10.682 108.957 10.682H123.15C123.631 11.1029 124.014 11.5995 124.299 12.1689C124.585 12.7398 124.727 13.3865 124.727 14.1074C124.727 14.7088 124.585 15.3016 124.299 15.887C124.014 16.4725 123.66 17.0215 123.241 17.5327L115.67 26.6349H124.502C124.682 26.9655 124.854 27.3863 125.02 27.8961C125.185 28.4072 125.268 28.9636 125.268 29.5636C125.268 30.6151 125.035 31.3738 124.569 31.8384C124.103 32.3044 123.479 32.5374 122.699 32.5374H107.784V32.536Z" fill="#1A2578"></path>
    <path d="M128.512 4.55532C128.512 3.41354 128.895 2.45381 129.661 1.67175C130.427 0.891148 131.44 0.49939 132.702 0.49939C133.963 0.49939 134.978 0.891148 135.744 1.67175C136.51 2.45381 136.893 3.41354 136.893 4.55532C136.893 5.6971 136.51 6.65829 135.744 7.43889C134.978 8.22095 133.964 8.6098 132.702 8.6098C131.44 8.6098 130.427 8.22095 129.661 7.43889C128.895 6.65829 128.512 5.6971 128.512 4.55532ZM136.533 32.491C136.203 32.5507 135.715 32.6337 135.068 32.7386C134.423 32.8435 133.769 32.8959 133.108 32.8959C132.447 32.8959 131.854 32.8507 131.328 32.7604C130.803 32.6701 130.36 32.4896 129.999 32.2201C129.639 31.9493 129.361 31.5823 129.166 31.1162C128.969 30.6502 128.873 30.0429 128.873 29.2914V10.9531C129.203 10.8934 129.69 10.8104 130.337 10.7055C130.982 10.6006 131.636 10.5482 132.297 10.5482C132.957 10.5482 133.551 10.5934 134.076 10.6836C134.602 10.7739 135.045 10.9545 135.406 11.2254C135.767 11.4948 136.044 11.8633 136.239 12.3293C136.434 12.7954 136.532 13.4041 136.532 14.1541V32.491H136.533Z" fill="#1A2578"></path>
    <path d="M53.1731 9.9613C54.4038 9.9613 55.6125 10.1346 56.7995 10.4798C57.9864 10.8249 59.0146 11.3434 59.8855 12.0337C60.7869 11.4337 61.8006 10.9371 62.9263 10.5468C64.0535 10.1565 65.4123 9.9613 67.0055 9.9613C68.1473 9.9613 69.2658 10.1113 70.3624 10.4128C71.4591 10.7128 72.4348 11.1861 73.2911 11.8313C74.1475 12.4779 74.8305 13.3342 75.3417 14.4003C75.8514 15.4663 76.1077 16.7654 76.1077 18.2975V32.491C75.8077 32.5813 75.3344 32.6716 74.6892 32.7605C74.0426 32.8508 73.3742 32.8959 72.6838 32.8959C72.0227 32.8959 71.4299 32.8508 70.9042 32.7605C70.3784 32.6702 69.9357 32.491 69.5745 32.2202C69.2148 31.9493 68.9367 31.5823 68.7415 31.1162C68.5449 30.6517 68.4488 30.0429 68.4488 29.2914V18.5232C68.4488 17.6217 68.1925 16.9693 67.6827 16.5629C67.1716 16.1566 66.4798 15.9556 65.6104 15.9556C65.1895 15.9556 64.738 16.0532 64.2589 16.2484C63.7783 16.4435 63.4171 16.6474 63.1768 16.8571C63.2059 16.978 63.2219 17.0901 63.2219 17.195V17.4877V32.4925C62.8914 32.5828 62.4035 32.6731 61.7583 32.7619C61.1117 32.8522 60.4578 32.8974 59.7981 32.8974C59.1369 32.8974 58.5442 32.8522 58.0184 32.7619C57.4927 32.6716 57.0499 32.4925 56.6888 32.2216C56.3276 31.9507 56.0494 31.5837 55.8557 31.1177C55.6591 30.6531 55.563 30.0444 55.563 29.2929V18.5246C55.563 17.6232 55.2848 16.9707 54.73 16.5644C54.1737 16.1581 53.5052 15.9571 52.7246 15.9571C52.1843 15.9571 51.7183 16.0401 51.3279 16.2047C50.9376 16.3707 50.6071 16.528 50.3362 16.678V32.494C50.0362 32.5842 49.5629 32.6745 48.9177 32.7634C48.2711 32.8537 47.6026 32.8988 46.9123 32.8988C46.2511 32.8988 45.6569 32.8537 45.1312 32.7634C44.6054 32.6731 44.1627 32.494 43.8015 32.2231C43.4418 31.9522 43.1622 31.5852 42.9685 31.1192C42.7734 30.6546 42.6758 30.0458 42.6758 29.2944V15.6877C42.6758 14.8765 42.8491 14.2313 43.1942 13.7507C43.5394 13.2701 44.0127 12.8201 44.6127 12.3992C45.6336 11.6783 46.9036 11.0929 48.4196 10.6414C49.9357 10.187 51.5202 9.9613 53.1731 9.9613Z" fill="#1A2578"></path>
    <path d="M7.93618 34.6972C6.42594 33.7127 5.07882 32.501 3.94287 31.1073C4.1555 30.7359 4.2458 30.3063 4.2458 29.8315C4.2458 24.9746 4.2458 20.1177 4.2458 15.2622V14.9593C4.35066 15.035 4.40891 15.086 4.47445 15.1239C5.56234 15.7486 6.64877 16.3763 7.74249 16.9894C7.89831 17.0768 7.92745 17.1759 7.92745 17.3346C7.92454 22.9998 7.92598 28.6665 7.92161 34.3317C7.92161 34.4554 7.92598 34.5763 7.93618 34.6972ZM16.0204 37.4453C14.3995 37.3186 12.8426 36.9691 11.3775 36.4273C11.9703 36.0079 12.2892 35.4516 12.2907 34.7176C12.2936 29.7878 12.2921 24.8566 12.2921 19.9269V19.5774C12.6781 19.8104 13.0174 20.0259 13.3669 20.2225C14.1067 20.6405 14.848 21.057 15.5966 21.4561C15.9141 21.625 16.032 21.8347 16.0306 22.2163C16.016 27.2931 16.0189 32.37 16.0204 37.4453ZM17.3952 37.4992C17.3908 37.4992 17.3879 37.4992 17.3835 37.4992C18.4073 37.4992 19.4108 37.4089 20.3851 37.2385C20.3894 32.0029 20.388 26.7659 20.3851 21.5303C20.3851 21.0425 20.3909 20.5502 20.3239 20.0711C20.2846 19.7871 20.1287 19.5089 19.986 19.2497C19.753 18.8288 19.3394 18.6016 18.9389 18.3715C18.3738 18.0482 17.8073 17.7293 17.2423 17.406C16.6233 17.0506 16.0102 16.688 15.3898 16.3355C14.583 15.8783 13.7689 15.437 12.9664 14.9739C12.0795 14.4627 11.2057 13.9311 10.3217 13.4141C9.89061 13.1622 9.44788 12.9262 9.01243 12.6787C8.15464 12.1937 7.29831 11.7087 6.44342 11.2209C5.9104 10.9165 5.38174 10.6063 4.84727 10.3048C4.45696 10.0849 4.04044 9.90575 3.67199 9.65671C3.6516 9.64215 3.63122 9.62905 3.60938 9.61594C4.8298 8.02124 6.31818 6.64645 8.01046 5.5571C7.86483 6.01731 7.89687 6.50517 8.08765 7.0047C8.29154 7.53919 8.70805 7.90328 9.19592 8.18144C10.0042 8.64019 10.8212 9.08729 11.6295 9.54749C12.3839 9.97711 13.1324 10.4184 13.8854 10.8524C14.5407 11.231 15.1946 11.6082 15.8529 11.9825C16.4092 12.2985 16.9685 12.6088 17.5262 12.9219C17.969 13.1709 18.4132 13.417 18.8501 13.6733C19.3321 13.9559 19.8025 14.2573 20.2875 14.534C20.9239 14.8981 21.5691 15.2462 22.2084 15.6045C22.7094 15.8855 23.2075 16.171 23.707 16.4535C23.9385 16.5846 24.0784 16.7244 24.0769 17.0506C24.0609 22.6576 24.0667 28.266 24.0609 33.8729C24.0609 34.3229 24.1264 34.7365 24.3492 35.1385C24.4992 35.4079 24.6827 35.622 24.8939 35.7895C26.1653 35.1778 27.3493 34.4161 28.427 33.5263C28.4387 30.6019 28.4314 27.6776 28.4314 24.7532C28.4314 21.6964 28.4299 18.6395 28.4328 15.5812C28.4328 15.1879 28.3644 14.8195 28.1911 14.4583C27.9945 14.0476 27.7003 13.7374 27.3173 13.5131C26.7012 13.152 26.0721 12.8156 25.4531 12.4602C24.5502 11.9417 23.6546 11.4102 22.7516 10.8932C21.9448 10.4315 21.1278 9.98586 20.3195 9.52711C19.2841 8.9402 18.2515 8.34746 17.219 7.75472C16.466 7.32219 15.716 6.88528 14.9645 6.44837C14.4067 6.12361 13.8519 5.79447 13.2926 5.47116C12.9329 5.26291 12.5688 5.05903 12.2047 4.8566C11.8931 4.68475 11.561 4.54347 11.2698 4.34249C11.1154 4.23618 10.9523 4.15754 10.7848 4.1022C12.6446 3.33616 14.666 2.88323 16.7835 2.81042C16.8927 2.89925 17.0122 2.98226 17.1447 3.05799C18.1481 3.63616 19.1442 4.22599 20.1491 4.8027C20.8453 5.20174 21.5531 5.5833 22.2521 5.97943C22.9162 6.35518 23.573 6.74256 24.2356 7.11975C24.7993 7.44016 25.3672 7.74889 25.9308 8.06638C26.375 8.31687 26.8163 8.57028 27.2561 8.82805C27.6479 9.05815 28.0309 9.30428 28.427 9.52855C28.9091 9.80089 29.4071 10.0456 29.8892 10.3194C30.5533 10.6966 31.2057 11.0912 31.8669 11.4728C32.0358 11.5718 32.1174 11.6796 32.1174 11.9024C32.1072 17.5589 32.1058 23.2153 32.1189 28.8718C32.1189 29.0014 32.1276 29.1354 32.1451 29.2679C33.7893 26.6159 34.7403 23.4877 34.7417 20.1381C34.7417 20.1424 34.7417 20.1454 34.7417 20.1497C34.7432 29.7325 26.975 37.4992 17.3952 37.4992Z" fill="#D60936"></path>
    <path d="M3.92923 31.132C1.47382 28.1363 0 24.3032 0 20.1278C0 16.1637 1.32819 12.5097 3.56369 9.58533C3.57971 9.59552 3.59573 9.60572 3.61175 9.61591C1.37625 12.5359 0.0466032 16.1884 0.0466032 20.1512C0.0466032 24.3061 1.50732 28.1203 3.94379 31.1073C3.93942 31.116 3.93505 31.1233 3.92923 31.132ZM11.3683 36.4331C10.1551 35.986 9.00752 35.4093 7.93856 34.7176C7.93856 34.7103 7.9371 34.703 7.9371 34.6972C9.00752 35.3948 10.1609 35.9773 11.377 36.4273C11.3755 36.4288 11.3712 36.4317 11.3683 36.4331ZM17.3713 37.4992C16.9169 37.4992 16.4655 37.4817 16.0198 37.4482V37.4468C16.4699 37.4817 16.9242 37.5006 17.383 37.5006C17.3801 37.4992 17.3757 37.4992 17.3713 37.4992Z" fill="#E3E3E3"></path>
    <path d="M17.3837 37.4993C16.925 37.4993 16.4706 37.4804 16.0206 37.4455C16.0191 32.3701 16.0162 27.2933 16.0323 22.2164C16.0337 21.8349 15.9157 21.6266 15.5983 21.4562C14.8482 21.0557 14.1084 20.6392 13.3686 20.2227C13.0191 20.0246 12.6797 19.8091 12.2938 19.5775V19.927C12.2938 24.8568 12.2953 29.7865 12.2924 34.7177C12.2924 35.4517 11.9734 36.008 11.3807 36.426C10.1632 35.976 9.0112 35.3935 7.93933 34.6959C7.92913 34.575 7.92476 34.4541 7.92476 34.3303C7.92913 28.6651 7.92767 22.9985 7.93059 17.3333C7.93059 17.1745 7.90146 17.0755 7.74563 16.9881C6.65191 16.375 5.56548 15.7473 4.47758 15.1225C4.41205 15.0847 4.3538 15.0337 4.24894 14.958V15.2609C4.24894 20.1178 4.24894 24.9733 4.24894 29.8302C4.24894 30.305 4.15864 30.7346 3.94602 31.106C1.50955 28.119 0.0488281 24.3048 0.0488281 20.1499C0.0488281 16.1871 1.37702 12.5361 3.61251 9.61462C3.6329 9.62773 3.65329 9.64229 3.67514 9.6554C4.04505 9.90444 4.46011 10.085 4.85041 10.3035C5.38489 10.605 5.91354 10.9152 6.44657 11.2195C7.29999 11.7089 8.15632 12.1938 9.01265 12.6788C9.4481 12.9249 9.88938 13.1608 10.3205 13.4142C11.2045 13.9313 12.0783 14.4628 12.9652 14.974C13.7676 15.4371 14.5832 15.8784 15.3885 16.3357C16.009 16.6881 16.6221 17.0508 17.241 17.4061C17.8061 17.7309 18.3726 18.0484 18.9377 18.3717C19.3396 18.6018 19.7518 18.829 19.9848 19.2498C20.1275 19.5091 20.2833 19.7858 20.3227 20.0712C20.3897 20.5518 20.3838 21.0441 20.3838 21.5305C20.3867 26.7661 20.3882 32.0031 20.3838 37.2387C19.411 37.4091 18.4076 37.4979 17.3837 37.4993Z" fill="#BF0830"></path>
    <path d="M8.01367 5.55572C8.02241 5.52659 8.0326 5.49892 8.0428 5.46979C8.88457 4.9324 9.77585 4.46637 10.7079 4.07898C10.7356 4.08626 10.7618 4.095 10.7895 4.10374C9.81663 4.50569 8.88748 4.99357 8.01367 5.55572Z" fill="#E3E3E3"></path>
    <path d="M24.8962 35.7897C24.6836 35.6237 24.5001 35.4096 24.3515 35.1387C24.1287 34.7367 24.0632 34.3217 24.0632 33.8731C24.069 28.2647 24.0617 22.6578 24.0792 17.0508C24.0807 16.7246 23.9408 16.5848 23.7093 16.4537C23.2098 16.1698 22.7117 15.8843 22.2107 15.6032C21.5714 15.245 20.9247 14.8969 20.2898 14.5328C19.8048 14.2547 19.3344 13.9532 18.8524 13.6721C18.414 13.4158 17.9698 13.1697 17.5285 12.9206C16.9708 12.6075 16.4115 12.2973 15.8552 11.9813C15.1984 11.607 14.543 11.2298 13.8877 10.8512C13.1362 10.4172 12.3876 9.97589 11.6318 9.54627C10.8235 9.08606 10.0065 8.64042 9.19822 8.18021C8.71034 7.9035 8.29383 7.53796 8.08994 7.00348C7.89916 6.50395 7.86712 6.01462 8.01275 5.55587C8.88656 4.99226 9.81571 4.50584 10.7886 4.10535C10.956 4.16214 11.1177 4.24079 11.2735 4.3471C11.5648 4.54808 11.8968 4.68789 12.2085 4.86119C12.5726 5.06362 12.9352 5.26751 13.2964 5.47577C13.8542 5.79908 14.4105 6.12822 14.9683 6.45298C15.7198 6.88989 16.4698 7.32679 17.2227 7.75933C18.2553 8.35206 19.2878 8.94334 20.3233 9.5317C21.1315 9.99045 21.9486 10.4361 22.7554 10.8978C23.6583 11.4148 24.554 11.9463 25.4569 12.4648C26.0759 12.8201 26.705 13.1566 27.321 13.5177C27.704 13.742 27.9982 14.0522 28.1948 14.4629C28.3667 14.8226 28.4366 15.1911 28.4366 15.5843C28.4337 18.6412 28.4351 21.6981 28.4351 24.7564C28.4351 27.6807 28.4439 30.6051 28.4308 33.5294C27.3516 34.4163 26.1676 35.178 24.8962 35.7897Z" fill="#BF0830"></path>
    <path d="M34.7431 20.1397C34.7358 10.5642 26.972 2.80331 17.3951 2.80331C17.1912 2.80331 16.9887 2.80622 16.7863 2.8135C16.7674 2.79894 16.7499 2.78292 16.7324 2.7669C16.945 2.75962 17.1577 2.75525 17.3718 2.75525C26.9662 2.75525 34.7431 10.5322 34.7431 20.1266C34.7431 20.131 34.7431 20.1353 34.7431 20.1397Z" fill="#E3E3E3"></path>
    <path d="M32.1448 29.2693C32.1273 29.1368 32.1186 29.0028 32.1186 28.8732C32.1069 23.2168 32.1084 17.5603 32.1171 11.9038C32.1171 11.681 32.037 11.5733 31.8666 11.4757C31.2054 11.0941 30.553 10.698 29.8889 10.3222C29.4068 10.0484 28.9102 9.80378 28.4267 9.53144C28.0306 9.30862 27.6476 9.06104 27.2558 8.83239C26.816 8.57462 26.3747 8.32122 25.9305 8.07072C25.3669 7.75324 24.7975 7.44304 24.2353 7.1241C23.5727 6.7469 22.9144 6.35951 22.2518 5.98378C21.5527 5.58765 20.8464 5.20608 20.1488 4.80705C19.1439 4.23033 18.1478 3.64051 17.1444 3.06234C17.0133 2.98661 16.8924 2.9036 16.7832 2.81476C16.9856 2.80748 17.1881 2.80457 17.392 2.80457C26.9689 2.80457 34.7342 10.5655 34.74 20.141C34.74 23.4891 33.7904 26.6173 32.1448 29.2693Z" fill="#BF0830"></path>
    <path d="M14.3231 13.8016C15.0018 13.8016 15.6688 13.8978 16.3242 14.0871C16.9781 14.2779 17.546 14.5633 18.0266 14.9449C18.5233 14.6143 19.084 14.3405 19.7044 14.125C20.3262 13.9094 21.0748 13.8016 21.9544 13.8016C22.5836 13.8016 23.2011 13.8847 23.8054 14.0507C24.4098 14.2167 24.9487 14.4774 25.4205 14.8342C25.8924 15.191 26.2696 15.6629 26.5507 16.2512C26.8317 16.8396 26.973 17.5561 26.973 18.4008V26.2301C26.807 26.2796 26.5463 26.3292 26.1895 26.3787C25.8327 26.4282 25.4642 26.4529 25.0841 26.4529C24.7186 26.4529 24.3923 26.4282 24.1025 26.3787C23.8127 26.3292 23.5681 26.2301 23.3685 26.0801C23.1705 25.9301 23.0161 25.7277 22.9083 25.4714C22.8006 25.2151 22.7467 24.8786 22.7467 24.465V18.5246C22.7467 18.028 22.6054 17.6668 22.3243 17.4425C22.0418 17.2197 21.6617 17.1076 21.1811 17.1076C20.9481 17.1076 20.7005 17.1614 20.4354 17.2692C20.1704 17.377 19.9709 17.4891 19.8383 17.6042C19.8544 17.6712 19.8631 17.7323 19.8631 17.7906V17.9522V26.2287C19.6811 26.2782 19.4116 26.3277 19.0548 26.3772C18.698 26.4267 18.3383 26.4515 17.9742 26.4515C17.6101 26.4515 17.2824 26.4267 16.9926 26.3772C16.7028 26.3277 16.4582 26.2287 16.2601 26.0787C16.0606 25.9287 15.9077 25.7262 15.7999 25.4699C15.6921 25.2136 15.6382 24.8772 15.6382 24.4636V18.5231C15.6382 18.0265 15.4853 17.6653 15.178 17.4411C14.8707 17.2182 14.5023 17.1061 14.0727 17.1061C13.7741 17.1061 13.5178 17.1512 13.3022 17.243C13.0867 17.3347 12.9047 17.4207 12.7547 17.5037V26.2272C12.5886 26.2767 12.328 26.3262 11.9726 26.3758C11.6158 26.4253 11.2473 26.45 10.8672 26.45C10.5017 26.45 10.1755 26.4253 9.88565 26.3758C9.59584 26.3262 9.35117 26.2272 9.15311 26.0772C8.95505 25.9272 8.80067 25.7248 8.6929 25.4685C8.58513 25.2121 8.53125 24.8757 8.53125 24.4621V16.9561C8.53125 16.509 8.62591 16.1522 8.81669 15.8871C9.00602 15.6221 9.26816 15.373 9.59875 15.1415C10.1624 14.7439 10.8629 14.4206 11.6988 14.1716C12.5377 13.9269 13.4115 13.8016 14.3231 13.8016Z" fill="white"></path>
  </symbol>
  <symbol fill="none" xmlns="http://www.w3.org/2000/svg" viewBox="0 0 42 40" id="network">
    <path d="M6.25721 38.3564C9.16069 38.3564 11.5144 36.0027 11.5144 33.0992C11.5144 30.1957 9.16069 27.842 6.25721 27.842C3.35373 27.842 1 30.1957 1 33.0992C1 36.0027 3.35373 38.3564 6.25721 38.3564Z" stroke="#1A2578" stroke-width="1.5" stroke-linecap="round" stroke-linejoin="round"></path>
    <path d="M35.9802 38.8313C38.7525 38.8313 40.9999 36.5839 40.9999 33.8116C40.9999 31.0393 38.7525 28.7919 35.9802 28.7919C33.2079 28.7919 30.9604 31.0393 30.9604 33.8116C30.9604 36.5839 33.2079 38.8313 35.9802 38.8313Z" stroke="#1A2578" stroke-width="1.5" stroke-linecap="round" stroke-linejoin="round"></path>
    <path d="M34.0042 9.10828C35.9904 9.10828 37.6006 7.4981 37.6006 5.51184C37.6006 3.52558 35.9904 1.91541 34.0042 1.91541C32.0179 1.91541 30.4077 3.52558 30.4077 5.51184C30.4077 7.4981 32.0179 9.10828 34.0042 9.10828Z" stroke="#1A2578" stroke-width="1.5" stroke-linecap="round" stroke-linejoin="round"></path>
    <path d="M6.92911 8.23805C8.84979 8.23805 10.4068 6.68103 10.4068 4.76035C10.4068 2.83967 8.84979 1.28265 6.92911 1.28265C5.00843 1.28265 3.45142 2.83967 3.45142 4.76035C3.45142 6.68103 5.00843 8.23805 6.92911 8.23805Z" stroke="#1A2578" stroke-width="1.5" stroke-linecap="round" stroke-linejoin="round"></path>
    <path d="M20.921 28.3968C26.3785 28.3968 30.8027 23.9726 30.8027 18.5151C30.8027 13.0576 26.3785 8.63342 20.921 8.63342C15.4635 8.63342 11.0393 13.0576 11.0393 18.5151C11.0393 23.9726 15.4635 28.3968 20.921 28.3968Z" stroke="#BF0830" stroke-width="1.5" stroke-linecap="round" stroke-linejoin="round"></path>
    <path d="M20.6838 24.6815C23.8712 24.6815 26.455 22.0977 26.455 18.9103C26.455 15.723 23.8712 13.1391 20.6838 13.1391C17.4965 13.1391 14.9126 15.723 14.9126 18.9103C14.9126 22.0977 17.4965 24.6815 20.6838 24.6815Z" stroke="#BF0830" stroke-width="1.5" stroke-linecap="round" stroke-linejoin="round"></path>
    <path d="M9.10205 7.47516L16.643 14.7917" stroke="#1A2578" stroke-width="1.5" stroke-linecap="round" stroke-linejoin="round"></path>
    <path d="M31.3835 7.97449L24.9666 15.0437" stroke="#1A2578" stroke-width="1.5" stroke-linecap="round" stroke-linejoin="round"></path>
    <path d="M32.2765 30.4218L24.9666 22.7767" stroke="#1A2578" stroke-width="1.5" stroke-linecap="round" stroke-linejoin="round"></path>
    <path d="M10.21 29.6362L16.6432 23.0289" stroke="#1A2578" stroke-width="1.5" stroke-linecap="round" stroke-linejoin="round"></path>
  </symbol>
  <symbol fill="none" xmlns="http://www.w3.org/2000/svg" viewBox="0 0 43 31" id="perks">
    <path d="M3.30358 1.81317C3.30358 1.81317 39.891 1.4487 39.891 1.81317V27.0318H26.8447L26.3261 28.1549H16.9978L16.3483 27.1253H3.29736L3.30358 1.81317Z" stroke="#1A2578" stroke-width="1.5" stroke-linecap="round" stroke-linejoin="round"></path>
    <path d="M37.483 4.16986H5.66797V24.7205H37.483V4.16986Z" stroke="#BF0830" stroke-width="1.5" stroke-linecap="round" stroke-linejoin="round"></path>
    <path d="M3.30364 27.1269H1V30.2H42V27.1269H39.891" stroke="#1A2578" stroke-width="1.5" stroke-linecap="round" stroke-linejoin="round"></path>
  </symbol>
  <symbol fill="none" xmlns="http://www.w3.org/2000/svg" viewBox="0 0 220 53" id="smashing">
    <g clip-path="url('#clip0_1_258164')">
      <path opacity="0.05" d="M28.7501 52.0803C42.3529 52.0803 53.3801 50.567 53.3801 48.7003C53.3801 46.8336 42.3529 45.3203 28.7501 45.3203C15.1473 45.3203 4.12012 46.8336 4.12012 48.7003C4.12012 50.567 15.1473 52.0803 28.7501 52.0803Z" fill="black"></path>
      <path d="M195.45 16.1505C195.436 13.7071 196.244 11.3299 197.745 9.40128C199.245 7.47264 201.35 6.10459 203.722 5.51713C206.094 4.92967 208.594 5.15692 210.821 6.16236C213.048 7.16779 214.872 8.89297 216 11.0605L212 12.3605C211.206 11.182 210.062 10.2828 208.729 9.78994C207.396 9.2971 205.942 9.23554 204.572 9.61396C203.203 9.99237 201.986 10.7916 201.095 11.8988C200.205 13.006 199.684 14.3651 199.608 15.7841C199.531 17.2031 199.902 18.6103 200.669 19.8069C201.436 21.0034 202.559 21.9288 203.88 22.4523C205.201 22.9758 206.653 23.071 208.032 22.7243C209.41 22.3777 210.644 21.6068 211.56 20.5205L209.18 20.9105L206.29 18.0205L212.51 17.0205L218.74 16.0205L217.74 22.2405L216.74 28.4605L213.77 25.5005L214.05 23.7905C212.529 25.3155 210.59 26.3552 208.478 26.7779C206.365 27.2007 204.175 26.9875 202.184 26.1654C200.193 25.3433 198.491 23.9492 197.292 22.1594C196.093 20.3696 195.453 18.2646 195.45 16.1105V16.1505ZM69.6004 19.3905C69.5493 20.5621 69.7935 21.7278 70.3104 22.7805C70.7863 23.7079 71.471 24.5124 72.3104 25.1305C73.1881 25.7681 74.179 26.233 75.2304 26.5005C76.3457 26.7999 77.4956 26.9512 78.6504 26.9505C79.9382 26.9747 81.2224 26.8061 82.4604 26.4505C83.4653 26.1667 84.4059 25.6913 85.2304 25.0505C85.9563 24.4699 86.5352 23.7265 86.9204 22.8805C87.3019 22.0283 87.4963 21.1042 87.4904 20.1705C87.5327 19.1406 87.2606 18.1221 86.7104 17.2505C86.2546 16.5176 85.6478 15.8903 84.9304 15.4105C84.2839 14.9685 83.5718 14.631 82.8204 14.4105C82.2819 14.2322 81.7345 14.082 81.1804 13.9605L77.9304 13.1305C77.2714 12.972 76.626 12.7613 76.0004 12.5005C75.6338 12.3537 75.3153 12.1078 75.0804 11.7905C74.91 11.4855 74.8269 11.1395 74.8404 10.7905C74.8256 10.3923 74.9301 9.99886 75.1404 9.66048C75.337 9.3684 75.5883 9.11712 75.8804 8.92048C76.1877 8.72512 76.5258 8.58311 76.8804 8.50048C77.2519 8.42143 77.6306 8.38121 78.0104 8.38048C78.5531 8.3631 79.0961 8.40332 79.6304 8.50048C80.095 8.5873 80.5393 8.76028 80.9404 9.01048C81.3235 9.25553 81.6314 9.60158 81.8304 10.0105C82.0774 10.4706 82.2207 10.9791 82.2504 11.5005H86.7704C86.8061 10.4135 86.5616 9.33565 86.0604 8.37048C85.6204 7.51566 84.9785 6.78109 84.1904 6.23048C83.3632 5.6592 82.4325 5.25497 81.4504 5.04048C80.411 4.7775 79.3426 4.64647 78.2704 4.65048C77.3039 4.65216 76.342 4.78333 75.4104 5.04048C74.4933 5.28226 73.6264 5.6852 72.8504 6.23048C72.0986 6.75805 71.4679 7.43988 71.0004 8.23048C70.5269 9.09687 70.2922 10.0736 70.3204 11.0605C70.2972 11.9251 70.4824 12.7825 70.8604 13.5605C71.2231 14.2228 71.7204 14.8019 72.3204 15.2605C72.9304 15.7296 73.6038 16.11 74.3204 16.3905C75.0795 16.674 75.8541 16.9144 76.6404 17.1105C77.4104 17.3305 78.1804 17.5305 78.9304 17.7005C79.6109 17.8636 80.2792 18.0741 80.9304 18.3305C81.4613 18.5295 81.9474 18.832 82.3604 19.2205C82.5491 19.4002 82.6975 19.6179 82.7958 19.8592C82.8941 20.1006 82.9399 20.3601 82.9304 20.6205C82.9467 21.1019 82.7986 21.5745 82.5104 21.9605C82.2385 22.296 81.8974 22.5689 81.5104 22.7605C81.0863 22.9642 80.6349 23.1057 80.1704 23.1805C79.726 23.2382 79.2785 23.2683 78.8304 23.2705C78.2162 23.2903 77.6018 23.2366 77.0004 23.1105C76.4605 22.9669 75.9472 22.7373 75.4804 22.4305C75.0598 22.104 74.718 21.687 74.4804 21.2105C74.2062 20.6475 74.0724 20.0264 74.0904 19.4005L69.6004 19.3905ZM121.48 10.3905L124.16 18.1905H118.66L121.48 10.3905ZM111.16 26.1905V5.20048H104.58L99.8204 19.8105L94.8204 5.20048H88.2804V26.4405H92.6504L92.7104 11.5005L97.9204 26.4105H101.52L106.79 11.3505V26.4405H115.79L117.46 21.7105H125.4L127 26.4405H131.85L123.89 5.20048H119.1L111.16 26.1905ZM130.36 19.4005C130.312 20.573 130.56 21.7387 131.08 22.7905C131.557 23.7173 132.242 24.5216 133.08 25.1405C133.959 25.7743 134.95 26.2358 136 26.5005C137.116 26.8 138.266 26.9513 139.42 26.9505C140.708 26.9735 141.992 26.805 143.23 26.4505C144.235 26.1667 145.176 25.6913 146 25.0505C146.731 24.4718 147.313 23.7281 147.7 22.8805C148.08 22.028 148.271 21.1036 148.26 20.1705C148.307 19.1415 148.038 18.1227 147.49 17.2505C147.031 16.5169 146.421 15.8897 145.7 15.4105C145.054 14.9683 144.342 14.6308 143.59 14.4105C143.052 14.2315 142.505 14.0813 141.95 13.9605L138.71 13.1305C138.047 12.9622 137.399 12.7415 136.77 12.4705C136.404 12.3232 136.086 12.0775 135.85 11.7605C135.68 11.4555 135.597 11.1095 135.61 10.7605C135.596 10.3623 135.7 9.96886 135.91 9.63048C136.106 9.33775 136.358 9.08632 136.65 8.89048C136.957 8.69477 137.296 8.55274 137.65 8.47048C138.022 8.39143 138.401 8.35121 138.78 8.35048C139.311 8.34585 139.84 8.39612 140.36 8.50048C140.825 8.5873 141.269 8.76028 141.67 9.01048C142.053 9.25632 142.361 9.60215 142.56 10.0105C142.813 10.4697 142.963 10.9779 143 11.5005H147.52C147.553 10.4126 147.305 9.33456 146.8 8.37048C146.361 7.51498 145.719 6.78018 144.93 6.23048C144.103 5.65875 143.173 5.25448 142.19 5.04048C141.146 4.79003 140.074 4.67243 139 4.69048C138.034 4.69216 137.072 4.82333 136.14 5.08048C135.223 5.32226 134.356 5.7252 133.58 6.27048C132.832 6.79844 132.204 7.48033 131.74 8.27048C131.267 9.13687 131.032 10.1136 131.06 11.1005C131.036 11.9651 131.222 12.8228 131.6 13.6005C131.964 14.2625 132.461 14.8415 133.06 15.3005C133.671 15.7684 134.344 16.1487 135.06 16.4305C135.82 16.7133 136.594 16.9537 137.38 17.1505C138.15 17.3705 138.92 17.5705 139.67 17.7405C140.351 17.9033 141.019 18.1138 141.67 18.3705C142.202 18.569 142.688 18.8716 143.1 19.2605C143.287 19.4414 143.433 19.6596 143.529 19.9008C143.626 20.1421 143.671 20.4009 143.66 20.6605C143.675 21.1417 143.527 21.6138 143.24 22.0005C142.969 22.336 142.627 22.6089 142.24 22.8005C141.816 23.004 141.365 23.1454 140.9 23.2205C140.456 23.2782 140.008 23.3083 139.56 23.3105C138.961 23.3101 138.364 23.2396 137.78 23.1005C137.24 22.9573 136.727 22.7276 136.26 22.4205C135.841 22.093 135.499 21.6763 135.26 21.2005C134.987 20.6373 134.853 20.0164 134.87 19.3905L130.36 19.4005ZM149.04 26.4005H153.71V17.2805H162.31V26.4405H167V5.20048H162.33V13.3505H153.73V5.20048H149L149.04 26.4005ZM169.11 26.4005H173.78V5.20048H169.11V26.4005ZM175.92 26.4005H180.29L180.35 12.1805L189.19 26.4005H193.86V5.20048H189.48L189.43 19.5005L180.57 5.20048H175.93L175.92 26.4005Z" fill="#E96033"></path>
      <path d="M36.5702 30.61C34.432 29.018 32.0741 27.7447 29.5702 26.83C27.6857 26.0685 25.8887 25.1062 24.2102 23.96C20.2102 21.1733 18.2102 17.7167 18.2102 13.59C18.1104 11.1046 18.8854 8.66293 20.4002 6.69C20.667 6.35904 20.9542 6.04509 21.2602 5.75L12.7102 7.75C11.5169 8.02616 10.4821 8.76486 9.83331 9.80371C9.18449 10.8426 8.97475 12.0966 9.25019 13.29L16.3302 43.88C16.6065 45.0711 17.3436 46.1042 18.3802 46.7527C19.4168 47.4013 20.6682 47.6125 21.8602 47.34L25.3602 46.5L25.0902 46.43C22.7298 45.7042 20.4562 44.7217 18.3102 43.5L22.0002 35.34C24.9365 37.731 28.6136 39.025 32.4002 39C36.4002 39 38.4002 37.57 38.4002 34.73C38.4196 33.9506 38.2654 33.1766 37.9489 32.464C37.6325 31.7515 37.1615 31.1182 36.5702 30.61Z" fill="#E96033"></path>
      <path d="M55.9108 34.7199L48.8308 4.12988C48.5545 2.93876 47.8173 1.90573 46.7808 1.25717C45.7442 0.60861 44.4928 0.397422 43.3008 0.669885L38.1508 1.85988C38.7441 1.95322 39.3308 2.06322 39.9108 2.18988C42.2191 2.70386 44.4534 3.50686 46.5608 4.57988L43.5608 12.5799C41.3208 10.6599 38.1908 9.69988 34.1908 9.69988C30.6041 9.69988 28.8074 11.1266 28.8008 13.9799C28.84 14.5837 29.0207 15.1698 29.3281 15.6909C29.6356 16.212 30.0613 16.6535 30.5708 16.9799C32.9429 18.4843 35.4794 19.7122 38.1308 20.6399C40.432 21.4848 42.5877 22.6824 44.5208 24.1899C45.2599 24.7799 45.9308 25.4507 46.5208 26.1899C48.2459 28.4367 49.1462 31.2082 49.0708 34.0399C49.1533 36.7736 48.2877 39.4516 46.6208 41.6199L52.4508 40.2699C53.0434 40.1344 53.6033 39.8831 54.0983 39.5304C54.5934 39.1777 55.0138 38.7305 55.3354 38.2147C55.657 37.6989 55.8734 37.1245 55.9721 36.5248C56.0709 35.925 56.05 35.3116 55.9108 34.7199V34.7199Z" fill="#E96033"></path>
      <path d="M72.5 33.5H74.22L78.46 44.44L82.68 33.5H84.4V45.96H83.23V35.18L79 45.96H77.9L73.7 35.18V45.96H72.5V33.5Z" fill="#E96033"></path>
      <path d="M93.8502 33.5H95.1502L100 45.96H98.7102L97.2202 42.08H91.6402L90.1602 45.96H88.9102L93.8502 33.5ZM92.0002 41.07H96.8202L94.4501 34.67L92.0002 41.07Z" fill="#E96033"></path>
      <path d="M115 45.9605H114.16L114 43.6905C113.626 44.4862 113.022 45.152 112.267 45.6027C111.511 46.0534 110.639 46.2685 109.76 46.2205C105.9 46.2205 103.98 43.1305 103.98 39.7205C103.98 36.3105 105.9 33.2205 109.76 33.2205C110.98 33.1326 112.187 33.5113 113.138 34.28C114.088 35.0486 114.711 36.1498 114.88 37.3605H113.71C113.54 36.4501 113.047 35.632 112.321 35.0568C111.595 34.4816 110.686 34.1882 109.76 34.2305C106.52 34.2305 105.14 36.9905 105.14 39.7205C105.14 42.4505 106.51 45.2105 109.76 45.2105C112.47 45.2105 114.05 43.2705 114 40.6305H109.83V39.6305H115V45.9605Z" fill="#E96033"></path>
      <path d="M124.25 33.5H125.55L130.36 45.97H129.11L127.62 42.09H122L120.52 45.97H119.27L124.25 33.5ZM122.4 41.08H127.22L124.85 34.68L122.4 41.08Z" fill="#E96033"></path>
      <path d="M134.31 33.5H143.13V34.5L135.06 44.91H143.3V45.91H133.76V44.91L141.83 34.5H134.31V33.5Z" fill="#E96033"></path>
      <path d="M148.28 33.5H149.45V45.96H148.28V33.5Z" fill="#E96033"></path>
      <path d="M155.42 33.5H156.72L163.86 44.05V33.5H165.03V45.96H163.73L156.59 35.41V45.96H155.42V33.5Z" fill="#E96033"></path>
      <path d="M171 33.5H179.46V34.5H172.16V39.01H179V40.01H172.17V44.94H179.55V45.94H171V33.5Z" fill="#E96033"></path>
    </g>
    <defs>
      <clipPath id="clip0_1_258164">
        <rect width="220" height="52" fill="white" transform="translate(0 0.5)"></rect>
      </clipPath>
    </defs>
  </symbol>
  <symbol fill="none" xmlns="http://www.w3.org/2000/svg" viewBox="0 0 220 25" id="webtoffee">
    <path d="M92.9599 6.93555L89.2463 16.4335L84.7642 6.93555H82.183L78.015 16.6485L74.2147 6.93555H69.3145L76.9693 24.9748L78.4957 24.9772L83.4261 14.3191L88.3806 24.9841H89.9071L97.592 6.93555H92.9599Z" fill="#17449C"></path>
    <path d="M113.519 17.0783L101.449 17.0691C101.748 18.2291 102.322 19.1235 103.164 19.7544C104.008 20.3853 105.055 20.6996 106.302 20.6996C107.991 20.6996 109.587 20.0849 111.089 18.8532L113.029 22.2595C110.994 24.0851 108.703 24.9957 106.161 24.9933C103.457 24.991 101.213 24.0713 99.4335 22.2317C97.6532 20.3923 96.7656 18.116 96.7656 15.4006C96.7679 12.7106 97.6313 10.4413 99.3551 8.59248C101.079 6.74372 103.212 5.81934 105.756 5.81934C108.138 5.82165 110.08 6.63742 111.581 8.26665C113.083 9.89589 113.833 11.9203 113.831 14.3398C113.833 15.2273 113.727 16.1424 113.519 17.0783ZM102.978 10.8526C102.237 11.5182 101.728 12.4195 101.449 13.5541L109.288 13.5588C109.266 12.4241 108.896 11.5228 108.179 10.8549C107.462 10.187 106.596 9.8543 105.578 9.8543C104.587 9.8543 103.718 10.187 102.978 10.8526Z" fill="#17449C"></path>
    <path d="M131.294 8.5575C132.854 10.3716 133.633 12.6617 133.631 15.4256C133.629 18.1895 132.847 20.4774 131.286 22.2915C129.725 24.1033 127.729 25.0092 125.301 25.0092C122.873 25.0069 121.035 24.094 119.788 22.2661L119.786 24.5608L115.485 24.5586L115.503 0L120.184 0.00231095L120.178 8.01439C121.404 6.55849 123.116 5.83286 125.312 5.83286C127.741 5.83517 129.736 6.74337 131.294 8.5575ZM127.612 19.0677C128.456 18.1433 128.878 16.9162 128.881 15.3864C128.881 13.8819 128.454 12.6664 127.598 11.7397C126.743 10.813 125.691 10.3508 124.444 10.3485C123.242 10.3485 122.217 10.7852 121.373 11.6611C120.529 12.537 120.106 13.7895 120.104 15.4164C120.104 17.0687 120.531 18.3236 121.386 19.174C122.241 20.0267 123.259 20.452 124.437 20.4543C125.708 20.4543 126.767 19.9944 127.612 19.0677Z" fill="#17449C"></path>
    <path d="M161.397 8.61805C163.199 10.4576 164.099 12.7223 164.098 15.4122C164.095 18.1022 163.192 20.3715 161.388 22.2227C159.585 24.0737 157.397 24.9958 154.832 24.9935C152.266 24.9912 150.098 24.0714 148.329 22.2319C146.562 20.3924 145.679 18.1161 145.679 15.4007C145.681 12.7108 146.571 10.446 148.353 8.60881C150.135 6.77159 152.309 5.85414 154.875 5.85645C157.422 5.85645 159.594 6.77621 161.397 8.61805ZM151.684 11.8302C150.849 12.7801 150.434 13.9818 150.432 15.4377C150.432 16.8936 150.847 18.0837 151.679 19.0104C152.511 19.9371 153.574 20.3993 154.868 20.4016C156.14 20.4016 157.199 19.9348 158.043 18.9965C158.888 18.0583 159.31 16.8751 159.312 15.4446C159.314 14.0141 158.892 12.8171 158.048 11.8534C157.203 10.8897 156.146 10.409 154.875 10.4067C153.58 10.4067 152.515 10.8805 151.684 11.8302Z" fill="#17449C"></path>
    <path d="M165.894 24.3466L170.416 24.3488L170.425 11.5046L174.076 11.5068L174.079 7.39895L170.427 7.39673L170.428 7.17528C170.428 6.18097 170.676 5.47897 171.167 5.06485C171.659 4.65074 172.418 4.44479 173.445 4.44479C173.675 4.44479 173.92 4.45808 174.179 4.48244L174.181 0.372302C173.583 0.228359 172.958 0.15528 172.309 0.15528C170.322 0.153065 168.757 0.702264 167.617 1.80066C166.477 2.89906 165.906 4.54887 165.906 6.74788L165.894 24.3466Z" fill="#17449C"></path>
    <path d="M175.688 24.3466L180.21 24.3488L180.219 11.5046L183.87 11.5068L183.873 7.39895L180.221 7.39673L180.222 7.17528C180.222 6.18097 180.469 5.47897 180.961 5.06485C181.453 4.65074 182.212 4.44479 183.239 4.44479C183.469 4.44479 183.714 4.45808 183.973 4.48244L183.975 0.372302C183.377 0.228359 182.752 0.15528 182.103 0.15528C180.116 0.153065 178.551 0.702264 177.411 1.80066C176.271 2.89906 175.7 4.54887 175.7 6.74788L175.688 24.3466Z" fill="#17449C"></path>
    <path d="M140.04 10.3554L140.036 17.8243C140.036 18.862 140.289 19.5946 140.798 20.0267C141.307 20.4589 142.093 20.6761 143.156 20.6761C143.572 20.6761 144.035 20.6391 144.544 20.5652L144.541 24.748C143.732 25.0184 142.876 25.1547 141.976 25.1524C139.918 25.1501 138.299 24.577 137.121 23.4284C135.943 22.2799 135.354 20.5582 135.356 18.2634L135.36 10.3508L135.362 6.13093L135.365 0.0253906L140.047 0.0277016L140.044 6.13325L140.04 10.3554Z" fill="#17449C"></path>
    <path d="M141.266 6.97949L145.228 6.9818L145.226 11.2016L141.264 11.1993L141.266 6.97949Z" fill="#17449C"></path>
    <path d="M201.898 17.1403L189.828 17.1311C190.127 18.2911 190.701 19.1854 191.543 19.8164C192.388 20.4473 193.434 20.7615 194.681 20.7615C196.37 20.7615 197.966 20.1468 199.469 18.9151L201.409 22.3214C199.373 24.1471 197.082 25.0576 194.54 25.0553C191.836 25.053 189.592 24.1332 187.812 22.2937C186.032 20.4542 185.145 18.1779 185.145 15.4625C185.147 12.7726 186.009 10.5032 187.732 8.65211C189.456 6.80335 191.589 5.87897 194.133 5.87897C196.514 5.88128 198.457 6.69705 199.958 8.32628C201.461 9.95552 202.21 11.9799 202.207 14.3995C202.212 15.2892 202.108 16.202 201.898 17.1403ZM191.359 10.9145C190.619 11.5801 190.11 12.4814 189.83 13.6161L197.669 13.6207C197.648 12.486 197.277 11.5848 196.56 10.9169C195.843 10.249 194.977 9.9162 193.96 9.9162C192.966 9.9162 192.099 10.249 191.359 10.9145Z" fill="#17449C"></path>
    <path d="M219.977 17.1519L207.907 17.1426C208.205 18.3028 208.779 19.1971 209.621 19.828C210.466 20.4589 211.512 20.7732 212.759 20.7732C214.448 20.7732 216.044 20.1585 217.547 18.9267L219.487 22.3331C217.451 24.1587 215.161 25.0692 212.619 25.067C209.914 25.0646 207.671 24.1448 205.891 22.3054C204.111 20.4658 203.223 18.1895 203.223 15.4742C203.225 12.7842 204.087 10.5148 205.811 8.66378C207.534 6.81501 209.667 5.89062 212.211 5.89062C214.593 5.89294 216.536 6.70871 218.036 8.33795C219.539 9.96719 220.288 11.9916 220.286 14.4111C220.29 15.3008 220.184 16.2137 219.977 17.1519ZM209.435 10.9262C208.695 11.5917 208.186 12.493 207.907 13.6277L215.745 13.6323C215.723 12.4976 215.354 11.5964 214.636 10.9285C213.92 10.2607 213.053 9.92788 212.036 9.92788C211.044 9.92788 210.176 10.2607 209.435 10.9262Z" fill="#17449C"></path>
    <path d="M47.4225 23.5928C47.4225 24.3663 46.8284 25.0003 46.1037 25.0003H36.9087C36.184 25.0003 35.5898 24.3663 35.5898 23.5928V13.7796C35.5898 13.0062 36.184 12.3721 36.9087 12.3721H46.1037C46.8284 12.3721 47.4225 13.0062 47.4225 13.7796V23.5928Z" fill="#07BFDD"></path>
    <path d="M59.405 11.2208C59.405 11.9942 58.8108 12.6283 58.0861 12.6283H48.8911C48.1664 12.6283 47.5723 11.9942 47.5723 11.2208V1.40754C47.5723 0.634087 48.1664 0 48.8911 0H58.0861C58.8108 0 59.405 0.634087 59.405 1.40754V11.2208Z" fill="#007FFF"></path>
    <path d="M23.7975 23.5928C23.7975 24.3663 23.2033 25.0004 22.4787 25.0004H13.2836C12.5589 25.0004 11.9648 24.3663 11.9648 23.5928V13.7796C11.9648 13.0062 12.5589 12.3721 13.2836 12.3721H22.4787C23.2033 12.3721 23.7975 13.0062 23.7975 13.7796V23.5928Z" fill="#1DA5F8"></path>
    <path d="M11.8327 11.2218C11.8327 11.9952 11.2385 12.6293 10.5138 12.6293H1.31885C0.594136 12.6293 0 11.9975 0 11.2218V1.40851C0 0.635063 0.594136 0.000976562 1.31885 0.000976562H10.5138C11.2385 0.000976562 11.8327 0.635063 11.8327 1.40851V11.2218Z" fill="#8CC936"></path>
  </symbol>
  <symbol fill="none" xmlns="http://www.w3.org/2000/svg" viewBox="0 0 39 42" id="well">
    <path d="M20.0255 18.1204V36.4275C20.0257 36.9513 19.9228 37.4701 19.7225 37.9541C19.5221 38.4381 19.2284 38.8779 18.8581 39.2484C18.4877 39.6189 18.0481 39.9128 17.5641 40.1133C17.0802 40.3138 16.5615 40.417 16.0377 40.417V40.417C15.5138 40.417 14.9951 40.3138 14.5112 40.1133C14.0273 39.9128 13.5876 39.6189 13.2173 39.2484C12.8469 38.8779 12.5532 38.4381 12.3529 37.9541C12.1526 37.4701 12.0496 36.9513 12.0498 36.4275V34.0057" stroke="#BF0830" stroke-width="1.5" stroke-linecap="round" stroke-linejoin="round"></path>
    <path d="M1 20.8312C1 20.8312 3.81086 3.99493 20.0255 3.99493C36.2402 3.99493 38 20.8312 38 20.8312C38 20.8312 32.1264 15.2514 25.6667 20.8312C25.6667 20.8312 18.6193 14.1745 13.1364 20.8312C13.1364 20.8312 6.67666 14.6637 1 20.8312Z" stroke="#1A2578" stroke-width="1.5" stroke-linecap="round" stroke-linejoin="round"></path>
    <path d="M20.0254 3.99494V1" stroke="#BF0830" stroke-width="1.5" stroke-linecap="round" stroke-linejoin="round"></path>
  </symbol>
</svg>