<svg width="631" height="642" viewBox="0 0 631 642" fill="none" xmlns="http://www.w3.org/2000/svg">
<path opacity="0.5" d="M316 498.402C445.787 498.402 551 400.196 551 279.053C551 157.91 445.787 59.7036 316 59.7036C186.213 59.7036 81 157.91 81 279.053C81 400.196 186.213 498.402 316 498.402Z" stroke="white" stroke-width="88"/>
<path d="M335.898 292.744L349.502 292.914L349.717 280.024L336.168 278.344L335.898 292.744Z" fill="#BF0830"/>
<path d="M381.701 289.375L395.319 286.926L392.478 274.293L378.559 275.249L381.701 289.375Z" fill="#BF0830"/>
<path d="M359.656 181.195C359.148 194.499 356.943 246.574 352.305 280.607C352.15 281.7 351.558 282.702 350.641 283.427C349.724 284.151 348.546 284.546 347.328 284.538C343.59 284.526 339.872 284.027 336.291 283.057C335.277 282.788 334.385 282.235 333.742 281.477C333.099 280.719 332.739 279.796 332.714 278.841L330.825 175.22C330.821 174.968 330.841 174.716 330.884 174.467L330.971 173.954C331.094 173.289 331.38 172.658 331.806 172.105C332.232 171.552 332.789 171.092 333.436 170.757C334.083 170.423 334.803 170.222 335.546 170.17C336.289 170.119 337.036 170.217 337.732 170.458L356.44 176.867C357.409 177.194 358.241 177.787 358.818 178.563C359.394 179.34 359.688 180.26 359.656 181.195V181.195Z" fill="#1A2578"/>
<path d="M379.344 175.196C379.727 193.785 381.208 212.342 383.781 230.788C386.105 246.975 392.742 263.787 393.817 277.889C393.881 278.798 393.581 279.698 392.971 280.423C392.361 281.148 391.482 281.65 390.496 281.837C386.355 282.651 382.095 282.844 377.885 282.408C377.019 282.326 376.202 282.003 375.547 281.484C374.892 280.966 374.43 280.277 374.225 279.511L359.638 234.893L350.796 189.79L341.318 165.257L379.344 175.196Z" fill="#2836A5"/>
<path d="M349.813 294.452H337.883L333.044 289.751L324.197 294.452H322.294C321.977 294.445 321.667 294.538 321.417 294.714C321.167 294.891 320.992 295.14 320.922 295.42C320.883 295.598 320.889 295.78 320.938 295.955C320.987 296.131 321.079 296.294 321.206 296.433C321.333 296.572 321.494 296.683 321.675 296.76C321.856 296.836 322.053 296.874 322.253 296.873H349.991C350.089 296.873 350.182 296.838 350.252 296.776C350.321 296.714 350.361 296.63 350.362 296.542V294.932C350.361 294.868 350.346 294.804 350.318 294.745C350.29 294.686 350.25 294.633 350.199 294.588C350.147 294.543 350.087 294.508 350.021 294.485C349.955 294.462 349.884 294.45 349.813 294.452V294.452Z" fill="#AE253D"/>
<path d="M349.708 294.466V290.1C349.708 290.1 347.696 287.688 344.64 288.917C344.64 288.917 340.011 291.846 335.949 288.304L325.822 292.31C325.822 292.31 323.045 293.137 322.295 294.466H349.708Z" fill="#1F1587"/>
<path d="M395.967 287.7L384.499 290.642L378.397 287.332L371.353 294.031L369.523 294.499C369.216 294.571 368.945 294.737 368.759 294.97C368.572 295.202 368.48 295.486 368.498 295.773C368.519 295.952 368.583 296.125 368.685 296.28C368.787 296.435 368.925 296.567 369.09 296.669C369.254 296.771 369.441 296.839 369.638 296.868C369.834 296.898 370.035 296.888 370.228 296.841L396.886 289.997C396.933 289.985 396.977 289.964 397.015 289.937C397.053 289.91 397.084 289.876 397.108 289.837C397.131 289.799 397.146 289.757 397.151 289.713C397.156 289.669 397.152 289.625 397.138 289.583L396.639 288.031C396.598 287.907 396.504 287.803 396.378 287.741C396.252 287.679 396.104 287.664 395.967 287.7V287.7Z" fill="#AE253D"/>
<path d="M395.867 287.735L394.494 283.54C394.494 283.54 391.818 281.719 389.261 283.656C389.261 283.656 385.721 287.611 380.703 285.211L372.213 291.559C372.213 291.559 369.798 293.04 369.469 294.505L395.867 287.735Z" fill="#1F1587"/>
<path d="M331.777 118.423C331.777 118.423 325.121 108.397 324.527 106.837C323.186 103.337 319.596 71.1815 319.596 71.1815L330.295 70.4988L336.241 95.8266L344.219 111.621L331.777 118.423Z" fill="#BF0830"/>
<path d="M318.343 60.1667C318.594 60.0874 318.869 60.0971 319.112 60.1938C319.356 60.2905 319.55 60.4672 319.655 60.6881L321.055 63.4977C321.075 63.5419 321.11 63.5788 321.156 63.6028C321.201 63.6268 321.254 63.6364 321.307 63.6301V63.6301C321.344 63.6273 321.379 63.617 321.411 63.6001C321.443 63.5831 321.47 63.5598 321.491 63.532C321.512 63.5042 321.525 63.4725 321.53 63.4394C321.536 63.4062 321.533 63.3724 321.522 63.3405L320.081 58.975C320.038 58.8646 320.024 58.7466 320.04 58.6305C320.057 58.5144 320.103 58.4034 320.176 58.3065C320.248 58.2095 320.345 58.1293 320.458 58.0722C320.571 58.0151 320.697 57.9828 320.826 57.9778V57.9778C321.12 57.9633 321.41 58.0364 321.653 58.186C321.896 58.3355 322.078 58.5531 322.171 58.8054L323.64 63.2536C323.655 63.3038 323.69 63.3474 323.738 63.3769C323.785 63.4064 323.843 63.4198 323.9 63.4149H323.983C324.015 63.4129 324.048 63.4049 324.077 63.3914C324.106 63.3779 324.133 63.3593 324.154 63.3365C324.175 63.3138 324.191 63.2874 324.201 63.2589C324.211 63.2305 324.214 63.2005 324.211 63.1708L323.676 58.0399C323.649 57.8006 323.722 57.5608 323.881 57.3683C324.041 57.1758 324.275 57.0448 324.536 57.0013C324.675 56.9815 324.816 56.9875 324.952 57.0189C325.088 57.0503 325.215 57.1065 325.326 57.184C325.437 57.2615 325.529 57.3586 325.597 57.4695C325.665 57.5804 325.707 57.7027 325.721 57.8288L326.261 62.9929C326.263 63.0225 326.272 63.0514 326.287 63.0778C326.302 63.1042 326.322 63.1276 326.348 63.1465C326.373 63.1655 326.402 63.1796 326.433 63.188C326.465 63.1965 326.498 63.1991 326.53 63.1956L326.796 63.175C326.857 63.1699 326.914 63.1449 326.956 63.1045C326.998 63.0641 327.022 63.0111 327.024 62.9556L327.221 58.1433C327.227 57.9033 327.333 57.6741 327.518 57.502C327.703 57.33 327.953 57.2279 328.218 57.2164C328.359 57.2124 328.499 57.2346 328.63 57.2817C328.761 57.3288 328.88 57.3998 328.979 57.4903C329.078 57.5807 329.155 57.6887 329.206 57.8075C329.257 57.9263 329.281 58.0533 329.275 58.1806C329.275 58.1806 329.412 65.5335 329.54 66.6797L331.827 64.9666C331.913 64.8724 332.019 64.7945 332.138 64.7372C332.257 64.6799 332.387 64.6445 332.522 64.633C332.656 64.6215 332.791 64.634 332.92 64.67C333.049 64.7059 333.169 64.7646 333.273 64.8425V64.8425C333.377 64.9204 333.463 65.0162 333.527 65.1243C333.59 65.2324 333.629 65.3508 333.642 65.4726C333.655 65.5945 333.641 65.7174 333.601 65.8343C333.561 65.9513 333.496 66.06 333.41 66.1542L329.806 71.1817C329.572 71.4383 328.831 71.5045 328.223 71.4258C322.24 72.3569 321.311 72.4562 319.674 72.572L319.285 66.7128C319.172 65.0217 318.721 63.3631 317.954 61.8177L317.757 61.4288C317.698 61.3118 317.666 61.185 317.664 61.0565C317.662 60.9279 317.689 60.8003 317.744 60.6818C317.799 60.5632 317.881 60.4562 317.984 60.3676C318.087 60.2789 318.209 60.2105 318.343 60.1667V60.1667Z" fill="#BF0830"/>
<path d="M392.444 124.602C392.444 124.602 401.062 115.883 401.968 114.464C404.008 111.253 414.209 80.2811 414.209 80.2811L403.843 77.7983L392.737 101.666L381.617 115.842L392.444 124.602Z" fill="#BF0830"/>
<path d="M417.708 69.6639C417.479 69.5427 417.207 69.5047 416.948 69.5577C416.689 69.6107 416.462 69.7507 416.313 69.9494L414.355 72.4735C414.326 72.5134 414.284 72.5436 414.234 72.5593C414.185 72.575 414.131 72.5754 414.081 72.5604V72.5604C414.045 72.5513 414.013 72.5352 413.985 72.5132C413.958 72.4913 413.936 72.4641 413.921 72.4336C413.907 72.403 413.9 72.37 413.902 72.3368C413.903 72.3037 413.913 72.2712 413.93 72.2418L416.249 68.1991C416.314 68.0979 416.352 67.9845 416.359 67.8678C416.367 67.7511 416.345 67.6343 416.295 67.5267C416.244 67.4191 416.166 67.3236 416.068 67.2478C415.969 67.1721 415.853 67.1181 415.727 67.0901V67.0901C415.443 67.0252 415.143 67.0467 414.873 67.1514C414.604 67.2561 414.38 67.4382 414.236 67.6694L411.871 71.8073C411.844 71.8538 411.8 71.8905 411.747 71.9116C411.694 71.9326 411.635 71.9367 411.579 71.9232L411.496 71.8983C411.464 71.8908 411.435 71.8774 411.409 71.8592C411.383 71.841 411.362 71.8183 411.346 71.7924C411.33 71.7665 411.321 71.738 411.317 71.7085C411.314 71.6791 411.317 71.6494 411.327 71.6211L412.914 66.6557C412.992 66.4261 412.971 66.1784 412.854 65.9625C412.738 65.7467 412.535 65.5788 412.287 65.4929C412.155 65.4493 412.015 65.4307 411.874 65.4382C411.734 65.4457 411.596 65.4792 411.471 65.5366C411.345 65.5939 411.234 65.674 411.144 65.7719C411.054 65.8697 410.987 65.9832 410.947 66.1053L409.351 71.0708C409.332 71.1284 409.288 71.177 409.23 71.2063C409.172 71.2357 409.104 71.2434 409.04 71.228L408.784 71.1577C408.726 71.1431 408.675 71.1098 408.642 71.0641C408.61 71.0184 408.596 70.9633 408.605 70.9094L409.415 66.1467C409.457 65.9097 409.399 65.667 409.252 65.4669C409.106 65.2668 408.881 65.124 408.624 65.0667C408.486 65.0392 408.344 65.0374 408.206 65.0615C408.068 65.0856 407.937 65.135 407.821 65.2068C407.704 65.2785 407.606 65.371 407.531 65.4786C407.456 65.5862 407.406 65.7065 407.384 65.8322C407.384 65.8322 405.723 73.0321 405.362 74.1411L403.468 72.0721C403.335 71.8566 403.114 71.6974 402.851 71.6292C402.589 71.561 402.308 71.5893 402.069 71.708V71.708C401.831 71.8275 401.655 72.0274 401.579 72.2639C401.504 72.5004 401.535 72.7543 401.666 72.97L404.164 78.5231C404.342 78.8168 405.051 79.003 405.664 79.032C411.35 80.9603 412.242 81.2168 413.829 81.6058L415.425 75.9162C415.888 74.2748 416.675 72.7229 417.749 71.3356L418.019 70.988C418.099 70.8839 418.155 70.7661 418.183 70.6417C418.211 70.5173 418.21 70.3891 418.181 70.2649C418.152 70.1408 418.095 70.0234 418.013 69.92C417.932 69.8166 417.828 69.7294 417.708 69.6639V69.6639Z" fill="#BF0830"/>
<path d="M361.742 101.062L358.701 108.096C358.701 108.096 357.562 110.442 359.739 111.555L357.132 116.016C356.459 117.141 357.557 117.117 358.659 117.919C359.275 118.37 359.965 118.732 360.704 118.991C363.339 119.922 365.539 118.639 366.143 117.824C366.747 117.009 367.931 112.503 367.931 112.503L368.919 110.434L372.121 102.196L361.742 101.062Z" fill="#BF0830"/>
<path d="M366.582 106.834C366.597 106.84 366.612 106.843 366.628 106.843C366.644 106.843 366.659 106.84 366.674 106.834C366.703 106.823 366.726 106.802 366.738 106.775C366.75 106.749 366.75 106.719 366.738 106.693C366.738 106.693 365.823 104.744 363.993 105.261C363.963 105.27 363.938 105.288 363.922 105.314C363.907 105.339 363.904 105.368 363.913 105.396C363.922 105.423 363.943 105.446 363.971 105.46C363.999 105.473 364.032 105.476 364.062 105.468C365.672 105.009 366.473 106.71 366.505 106.776C366.511 106.79 366.522 106.803 366.536 106.813C366.549 106.823 366.565 106.83 366.582 106.834V106.834Z" fill="#090028"/>
<path d="M362.314 104.642C362.33 104.648 362.347 104.651 362.364 104.651C362.381 104.651 362.399 104.648 362.414 104.642C362.441 104.628 362.461 104.605 362.47 104.578C362.478 104.551 362.475 104.522 362.46 104.497C362.433 104.447 361.733 103.256 360.85 103.545C360.821 103.556 360.797 103.575 360.784 103.601C360.77 103.626 360.768 103.655 360.777 103.682C360.787 103.709 360.809 103.731 360.837 103.743C360.865 103.756 360.898 103.757 360.928 103.748C361.623 103.529 362.245 104.576 362.254 104.596C362.268 104.617 362.289 104.633 362.314 104.642V104.642Z" fill="#090028"/>
<path d="M371.654 102.498L368.799 104.202C368.799 104.202 362.395 104.202 360.529 100.863C358.663 97.524 360.035 96.7254 361.371 95.873C362.029 95.4592 364.504 94.975 366.498 96.7998C367.592 97.7971 369.243 96.5598 370.441 97.8964C371.64 99.2329 372.857 101.252 372.417 101.724C371.978 102.196 371.654 102.498 371.654 102.498Z" fill="#090028"/>
<path d="M371.971 101.463C371.971 101.463 374.556 102.249 374.309 104.707C374.062 107.165 372.612 107.984 372.305 108.63C371.999 109.275 370.576 113.893 367.273 112.354L369.506 104.695L371.967 102.212L371.971 101.463Z" fill="#090028"/>
<path d="M366.957 107.309C366.804 107.663 366.77 108.05 366.86 108.421C366.949 108.792 367.159 109.131 367.462 109.394C367.765 109.658 368.147 109.834 368.561 109.901C368.974 109.967 369.4 109.921 369.785 109.769C370.17 109.616 370.496 109.364 370.722 109.044C370.948 108.723 371.064 108.35 371.055 107.97C371.046 107.59 370.913 107.221 370.672 106.909C370.431 106.598 370.093 106.358 369.702 106.221C369.443 106.129 369.166 106.085 368.888 106.09C368.609 106.095 368.335 106.149 368.08 106.25C367.825 106.351 367.595 106.497 367.402 106.679C367.21 106.86 367.058 107.075 366.957 107.309V107.309Z" fill="#BF0830"/>
<path d="M368.605 109.156C368.785 109.214 368.982 109.218 369.165 109.167C369.348 109.115 369.508 109.011 369.62 108.87C369.741 108.742 369.811 108.581 369.818 108.413C369.826 108.245 369.771 108.08 369.661 107.943C369.542 107.8 369.379 107.692 369.191 107.633C369.004 107.574 368.801 107.567 368.609 107.612C368.76 107.451 368.969 107.344 369.199 107.31C369.529 107.295 369.854 107.387 370.114 107.571C370.126 107.577 370.141 107.579 370.154 107.577C370.168 107.574 370.18 107.567 370.189 107.557C370.198 107.548 370.203 107.535 370.202 107.523C370.202 107.51 370.197 107.498 370.187 107.488C369.908 107.286 369.556 107.186 369.199 107.207C369.039 107.23 368.885 107.284 368.75 107.366C368.614 107.447 368.499 107.554 368.413 107.679L368.289 107.836L368.486 107.757C368.674 107.682 368.884 107.665 369.083 107.711C369.282 107.757 369.459 107.862 369.584 108.01C369.675 108.128 369.721 108.271 369.714 108.415C369.706 108.56 369.646 108.698 369.542 108.808C369.446 108.931 369.308 109.022 369.15 109.066C368.991 109.111 368.82 109.108 368.664 109.056V109.056C368.657 109.054 368.65 109.052 368.642 109.053C368.635 109.053 368.627 109.054 368.621 109.057C368.614 109.059 368.608 109.063 368.603 109.068C368.597 109.073 368.594 109.079 368.591 109.085C368.587 109.092 368.585 109.099 368.585 109.106C368.584 109.113 368.586 109.121 368.589 109.127C368.592 109.134 368.597 109.14 368.602 109.145C368.608 109.15 368.615 109.154 368.623 109.156H368.605Z" fill="#AE253D"/>
<path d="M365.956 111.436C365.956 111.436 364.08 115.371 358.408 113.807L359.739 111.572C359.739 111.572 363.033 113.484 365.956 111.436Z" fill="#AE253D"/>
<path d="M358.801 106.859C358.801 106.859 356.02 111.377 359.455 112.788C364.363 114.803 365.969 112.375 367.181 110.372L369.121 106.015L369.505 104.686C368.995 104.926 368.581 105.305 368.325 105.771C367.771 106.78 366.294 109.495 365.951 109.54C365.457 109.573 359.78 106.673 358.801 106.859Z" fill="#090028"/>
<path d="M362.159 108.051C362.17 108.057 362.182 108.06 362.194 108.06C362.206 108.06 362.218 108.057 362.228 108.051C362.234 108.046 362.239 108.04 362.242 108.033C362.245 108.026 362.247 108.019 362.247 108.012C362.247 108.004 362.245 107.997 362.242 107.99C362.239 107.983 362.234 107.977 362.228 107.972L361.272 107.256L362.644 105.034C362.651 105.022 362.652 105.008 362.648 104.995C362.644 104.982 362.634 104.971 362.621 104.964C362.615 104.96 362.607 104.958 362.599 104.957C362.591 104.956 362.583 104.957 362.575 104.959C362.568 104.961 362.561 104.964 362.554 104.968C362.548 104.973 362.543 104.978 362.539 104.985L361.135 107.281L362.169 108.055L362.159 108.051Z" fill="#AE253D"/>
<path d="M362.593 109.321C362.566 109.321 360.444 108.494 360.444 108.494C360.444 108.494 360.366 109.388 361.153 109.69C361.939 109.992 362.593 109.321 362.593 109.321Z" fill="#FBFDFC"/>
<path d="M330.834 70.9134C330.834 70.9134 336.899 96.0219 336.684 95.7654C336.469 95.5088 347.699 113.728 349.46 114.485C351.221 115.242 375.163 116.554 375.163 116.554L392.115 102.071L403.121 78.2829C405.975 78.3491 414.199 81.8994 414.199 81.8994L403.185 113.36C402.733 114.646 401.958 115.82 400.92 116.79C396.406 120.994 383.717 132.907 382.692 134.806C381.448 137.119 379.71 186.115 379.71 186.115C339.113 185.958 330.23 177.128 330.23 177.128C330.23 177.128 335.083 129.021 335.184 126.534C335.184 126.534 328.638 115.896 326.493 111.779C325.534 110.077 324.67 108.333 323.904 106.553C322.902 104.124 319.051 71.7327 319.051 71.7327C322.413 70.6527 330.834 70.9134 330.834 70.9134Z" fill="#FCE6CF"/>
<g style="mix-blend-mode:multiply">
<g style="mix-blend-mode:multiply" opacity="0.5">
<g style="mix-blend-mode:multiply" opacity="0.5">
<path d="M347.338 182.462C349.959 152.732 361.01 116.372 361.12 116.008L360.425 115.843C360.315 116.207 349.245 152.624 346.615 182.421L347.338 182.462Z" fill="#F7546C"/>
</g>
</g>
</g>
<path d="M361.34 115.871C360.653 116.65 359.888 117.369 359.053 118.019C346.186 129.017 322.546 116.417 327.875 136.407C329.554 133.577 329.737 129.241 333.245 127.333C333.739 127.067 334.283 126.887 334.851 126.803C344.054 125.434 357.04 127.449 361.34 115.871Z" fill="#090028"/>
<path d="M361.518 117.6L360.128 118.299L359.117 117.973L358.719 116.193L360.228 115.287L361.701 115.688L361.518 117.6Z" fill="#090028"/>
<path d="M361.02 114.936L358.458 113.724L357.219 115.375L358.737 117.39L360.773 115.917L361.519 118.019L367.703 116.107L367.374 114.506L361.02 114.936Z" fill="#F7546C"/>
<path d="M379.716 184.137C379.716 184.137 344.247 184.708 330.406 175.224L330.209 177.293C330.209 177.293 335.36 182.122 351.543 184.513C367.727 186.905 379.716 186.102 379.716 186.102V184.137Z" fill="#090028"/>
<path d="M351.024 182.014L350.366 184.344C350.337 184.448 350.263 184.539 350.162 184.595C350.06 184.651 349.938 184.67 349.821 184.646L343.276 183.326C343.214 183.314 343.156 183.291 343.105 183.258C343.054 183.224 343.011 183.182 342.978 183.133C342.946 183.084 342.926 183.03 342.918 182.973C342.91 182.917 342.915 182.859 342.933 182.805L343.687 180.504C343.721 180.403 343.795 180.318 343.895 180.265C343.995 180.212 344.114 180.195 344.227 180.218L350.677 181.505C350.737 181.517 350.795 181.539 350.845 181.572C350.896 181.604 350.938 181.645 350.971 181.693C351.003 181.74 351.025 181.793 351.034 181.848C351.043 181.904 351.04 181.96 351.024 182.014V182.014Z" fill="#BF0830"/>
<path d="M469.324 296.794H302.689C297.548 296.794 293.381 300.564 293.381 305.214V633.578C293.381 638.229 297.548 641.999 302.689 641.999H469.324C474.465 641.999 478.633 638.229 478.633 633.578V305.214C478.633 300.564 474.465 296.794 469.324 296.794Z" fill="#A22641"/>
<path d="M424.305 296.794H257.67C252.529 296.794 248.361 300.564 248.361 305.214V633.578C248.361 638.229 252.529 641.999 257.67 641.999H424.305C429.446 641.999 433.613 638.229 433.613 633.578V305.214C433.613 300.564 429.446 296.794 424.305 296.794Z" fill="#C43F5C"/>
<path d="M266.479 401.08V633.073C266.479 637.997 263.47 641.99 259.764 641.99H139.563C135.853 641.99 132.848 637.997 132.848 633.073V401.08C132.848 396.156 135.853 392.163 139.563 392.163H259.764C263.451 392.163 266.479 396.156 266.479 401.08Z" fill="#0B1249"/>
<path d="M234.003 401.08V633.073C234.003 637.997 230.998 641.99 227.288 641.99H107.086C103.381 641.99 100.371 637.997 100.371 633.073V401.08C100.371 396.156 103.381 392.163 107.086 392.163H227.288C230.998 392.163 234.003 396.156 234.003 401.08Z" fill="#1A2578"/>
<path d="M388.419 617.908V633.074C388.419 637.998 385.217 641.991 381.301 641.991H253.868C249.934 641.991 246.75 637.998 246.75 633.074V617.9C246.75 612.976 249.952 608.983 253.868 608.983H381.301C385.23 608.991 388.419 612.984 388.419 617.908Z" fill="#D9901D"/>
<path d="M353.989 617.908V633.074C353.989 637.998 350.787 641.991 346.872 641.991H219.438C215.509 641.991 212.32 637.998 212.32 633.074V617.9C212.32 612.976 215.522 608.983 219.438 608.983H346.872C350.819 608.991 353.989 612.984 353.989 617.908Z" fill="#F4BA5E"/>
<path d="M62.1731 392.554C64.5254 392.323 66.8204 391.746 68.9676 390.847L73.2905 394.317L76.4071 392.117L79.522 389.918L76.8411 385.282C78.3249 383.616 79.4987 381.743 80.3162 379.735L86.0868 379.425L86.5694 375.876L87.052 372.328L81.5377 370.759C81.2853 368.631 80.6502 366.555 79.6577 364.612L83.4931 360.701L81.0618 357.883L78.6406 355.066L73.5167 357.491C71.6743 356.148 69.6017 355.087 67.3808 354.349L67.0356 349.129L63.1148 348.692L59.1873 348.255L57.4531 353.242C55.1016 353.47 52.8067 354.042 50.6586 354.937L46.3357 351.467L43.2191 353.667L40.1026 355.866L42.7835 360.503C41.2986 362.169 40.1252 364.044 39.31 366.053L33.5393 366.364L33.0568 369.912L32.5625 373.46L38.0768 375.029C38.3298 377.157 38.9653 379.234 39.9585 381.177L36.1264 385.087L38.5577 387.905L40.9889 390.723L46.1145 388.305C47.9565 389.65 50.0291 390.714 52.2504 391.454L52.5855 396.674L56.508 397.11L60.4305 397.547L62.1731 392.554ZM45.952 377.66C44.9097 375.181 44.7038 372.477 45.3604 369.892C46.0169 367.306 47.5064 364.955 49.6405 363.135C51.7745 361.316 54.4572 360.109 57.3491 359.669C60.2411 359.229 63.2125 359.574 65.8874 360.662C68.5622 361.749 70.8204 363.53 72.3763 365.779C73.9322 368.028 74.7159 370.643 74.6283 373.295C74.5406 375.947 73.5856 378.515 71.8839 380.676C70.1823 382.836 67.8104 384.492 65.0685 385.433C61.394 386.694 57.3164 386.583 53.7319 385.126C50.1474 383.668 47.3491 380.983 45.952 377.66V377.66Z" fill="#D95F76"/>
<path d="M601.487 387.827C603.586 388.257 605.749 388.374 607.891 388.174L610.48 392.312L613.878 391.249L617.277 390.19L616.49 385.485C618.311 384.448 619.932 383.148 621.289 381.637L626.357 382.907L627.93 379.986L629.504 377.06L625.273 374.238C625.748 372.339 625.878 370.382 625.657 368.445L630.231 366.103L629.056 363.029L627.885 359.954L622.684 360.666C621.536 359.018 620.099 357.551 618.43 356.321L619.834 351.736L616.605 350.313L613.371 348.89L610.251 352.721C608.152 352.29 605.989 352.171 603.847 352.37L601.258 348.232L597.859 349.295L594.461 350.359L595.248 355.059C593.425 356.098 591.803 357.399 590.445 358.912L585.376 357.637L583.803 360.563L582.229 363.488L586.465 366.31C585.988 368.209 585.857 370.166 586.076 372.103L581.502 374.445L582.677 377.519L583.853 380.594L589.049 379.882C590.198 381.53 591.636 382.996 593.308 384.223L591.881 388.808L595.115 390.231L598.349 391.654L601.487 387.827ZM592.389 370.671C592.302 368.259 593.009 365.878 594.418 363.829C595.828 361.78 597.878 360.155 600.308 359.16C602.739 358.164 605.441 357.844 608.073 358.237C610.705 358.631 613.149 359.723 615.096 361.373C617.042 363.023 618.404 365.159 619.009 367.509C619.614 369.86 619.435 372.32 618.494 374.578C617.554 376.837 615.894 378.792 613.725 380.197C611.556 381.603 608.975 382.394 606.308 382.472C604.536 382.527 602.769 382.265 601.109 381.701C599.449 381.138 597.928 380.283 596.633 379.187C595.339 378.091 594.296 376.774 593.564 375.313C592.833 373.852 592.427 372.275 592.37 370.671H592.389Z" fill="#D95F76"/>
<path d="M136.531 293.509C139.595 295.16 142.938 296.347 146.425 297.022L148.168 304.743L154.115 304.644L160.061 304.541L161.479 296.762C164.935 295.968 168.225 294.668 171.218 292.913L178.486 297.262L182.603 293.381L186.72 289.5L181.642 283.094C183.465 280.32 184.777 277.295 185.526 274.14L194.061 272.567L193.947 267.188L193.837 261.809L185.238 260.53C184.361 257.402 182.924 254.425 180.984 251.717L185.791 245.142L181.5 241.418L177.205 237.694L170.124 242.291C167.06 240.64 163.718 239.453 160.23 238.778L158.538 231.003L152.591 231.106L146.645 231.21L145.227 238.985C141.771 239.78 138.482 241.08 135.488 242.833L128.22 238.488L124.103 242.369L119.986 246.251L125.064 252.656C123.241 255.43 121.93 258.455 121.185 261.61L112.645 263.183L112.759 268.562L112.873 273.941L121.468 275.224C122.347 278.352 123.784 281.329 125.722 284.038L120.915 290.613L125.21 294.337L129.501 298.061L136.531 293.509ZM131.879 262.264C133.106 258.423 135.564 254.996 138.943 252.419C142.322 249.841 146.47 248.227 150.863 247.782C155.256 247.337 159.696 248.08 163.622 249.917C167.548 251.755 170.783 254.604 172.919 258.105C175.055 261.606 175.995 265.601 175.621 269.585C175.247 273.569 173.575 277.364 170.817 280.488C168.059 283.613 164.339 285.928 160.127 287.14C155.914 288.352 151.399 288.407 147.153 287.298C141.458 285.81 136.65 282.337 133.786 277.642C130.921 272.948 130.236 267.416 131.879 262.264V262.264Z" fill="#D95F76"/>
<path d="M436.816 195.346C447.625 195.235 472.952 195.346 494.748 198.082C503.773 199.224 512.098 192.611 512.501 183.86C512.67 180.28 511.623 176.056 508.489 171.185C496.436 152.433 472.074 168.744 471.653 177.972C471.653 177.972 467.939 163.903 453.553 165.678C439.167 167.453 442.762 187.886 442.762 187.886C442.762 187.886 438.238 186.748 434.913 188.693C431.587 190.638 433.005 195.388 436.816 195.346Z" fill="white"/>
<path d="M121.358 167.255C132.158 166.874 157.462 166.336 179.35 168.546C188.407 169.46 196.526 162.645 196.668 153.89C196.723 150.306 195.547 146.111 192.272 141.319C179.652 122.872 155.793 139.784 155.651 149.019C155.651 149.019 151.534 135.025 137.185 137.181C122.835 139.337 127.121 159.645 127.121 159.645C127.121 159.645 122.547 158.623 119.299 160.647C116.052 162.67 117.566 167.387 121.358 167.255Z" fill="white"/>
<path d="M224.598 246.076C236.889 245.195 266.873 243.436 284.978 245.703C285.556 245.777 286.145 245.69 286.666 245.454C287.188 245.217 287.617 244.843 287.898 244.38C288.179 243.917 288.297 243.388 288.237 242.863C288.177 242.339 287.942 241.843 287.563 241.441C286.314 240.142 284.105 239.058 280.244 238.959C280.244 238.959 283.652 223.752 267.409 222.465C250.713 221.125 250.644 237.08 250.644 237.08C250.644 237.08 240.805 228.804 236.189 239.199C236.189 239.199 225.847 235.218 221.236 240.32C220.751 240.858 220.451 241.514 220.375 242.205C220.299 242.896 220.449 243.592 220.808 244.206C221.167 244.82 221.718 245.325 222.392 245.658C223.066 245.99 223.833 246.136 224.598 246.076Z" fill="white"/>
<path d="M589.831 452.362V632.723C589.831 637.846 586.885 642 583.254 642H465.49C461.858 642 458.912 637.862 458.912 632.723V452.362C458.912 447.239 461.858 443.085 465.49 443.085H583.254C586.885 443.085 589.831 447.239 589.831 452.362Z" fill="#1A2578"/>
<path d="M558.031 452.362V632.723C558.031 637.846 555.09 642 551.454 642H433.671C430.04 642 427.094 637.862 427.094 632.723V452.362C427.094 447.239 430.04 443.085 433.671 443.085H551.435C555.072 443.085 558.031 447.239 558.031 452.362Z" fill="#2836A5"/>
<path d="M173.397 516.67V580.89C173.397 585.814 170.278 589.807 166.426 589.807H41.6274C37.7759 589.807 34.6562 585.814 34.6562 580.89V516.67C34.6562 511.746 37.7759 507.753 41.6274 507.753H166.426C170.278 507.753 173.397 511.746 173.397 516.67Z" fill="#A22641"/>
<path d="M139.683 516.398V580.618C139.683 585.542 136.563 589.535 132.711 589.535H7.91254C4.06103 589.535 0.941406 585.542 0.941406 580.618V516.398C0.941406 511.474 4.06103 507.481 7.91254 507.481H132.711C136.563 507.481 139.683 511.474 139.683 516.398Z" fill="#C43F5C"/>
<path d="M190.069 324.061C190.069 324.061 191.409 333.922 189.845 334.36C188.281 334.799 193.925 345.491 196.67 339.057C197.635 336.81 194.255 324.161 190.028 322.232C185.801 320.304 190.069 324.061 190.069 324.061Z" fill="#090028"/>
<path d="M190.013 321.524C190.013 321.524 193.856 330.288 192.964 332.187C192.771 332.536 192.494 332.842 192.152 333.08C191.811 333.319 191.414 333.485 190.992 333.565L192.515 338.874L185.228 339.66L181.016 324.54C181.016 324.54 182.049 320.353 182.095 320.506C182.141 320.659 190.013 321.524 190.013 321.524Z" fill="#FF6160"/>
<path d="M189.839 329.559C189.827 329.561 189.815 329.558 189.804 329.552C189.794 329.546 189.787 329.537 189.784 329.526C189.784 329.493 189.784 329.46 189.784 329.448C190.054 329.303 190.109 328.802 190.122 328.62C189.649 328.451 189.269 328.119 189.066 327.697C188.858 327.237 188.804 326.732 188.91 326.245C188.91 326.216 188.947 326.203 188.97 326.216C188.984 326.224 188.994 326.236 189 326.25C189.006 326.265 189.006 326.28 189.002 326.294C188.909 326.75 188.96 327.221 189.148 327.652C189.247 327.852 189.389 328.032 189.566 328.182C189.742 328.331 189.95 328.448 190.177 328.525H190.223V328.579C190.223 328.608 190.223 329.328 189.834 329.522L189.839 329.559Z" fill="#AE253D"/>
<path d="M191.496 335.374L190.993 333.565C190.993 333.565 187.562 334.157 185.156 333.445C185.156 333.445 188.656 335.254 191.496 335.374Z" fill="#AE253D"/>
<path d="M184.359 327.557C184.344 327.563 184.328 327.566 184.311 327.566C184.295 327.566 184.279 327.563 184.263 327.557C184.248 327.55 184.235 327.54 184.224 327.527C184.213 327.515 184.205 327.501 184.2 327.486C184.195 327.471 184.194 327.455 184.196 327.44C184.199 327.424 184.204 327.409 184.213 327.396C184.213 327.396 185.444 325.488 187.246 326.237C187.276 326.251 187.3 326.275 187.312 326.304C187.323 326.333 187.323 326.366 187.31 326.394C187.303 326.409 187.292 326.422 187.279 326.433C187.266 326.443 187.251 326.452 187.234 326.457C187.218 326.463 187.2 326.465 187.182 326.464C187.165 326.463 187.147 326.459 187.132 326.452C185.553 325.794 184.488 327.445 184.442 327.516C184.422 327.539 184.392 327.554 184.359 327.557V327.557Z" fill="#090028"/>
<path d="M189.556 326.117C189.538 326.124 189.52 326.128 189.501 326.128C189.482 326.128 189.463 326.124 189.446 326.117C189.418 326.099 189.399 326.071 189.393 326.041C189.387 326.01 189.394 325.978 189.414 325.952C189.451 325.906 190.329 324.764 191.221 325.162C191.236 325.168 191.25 325.178 191.261 325.189C191.272 325.201 191.281 325.214 191.287 325.229C191.292 325.244 191.294 325.259 191.293 325.274C191.292 325.29 191.288 325.305 191.28 325.319C191.273 325.333 191.262 325.345 191.249 325.355C191.237 325.365 191.222 325.373 191.206 325.378C191.19 325.383 191.172 325.385 191.155 325.384C191.138 325.383 191.122 325.379 191.106 325.373C190.429 325.07 189.638 326.08 189.629 326.088C189.608 326.104 189.583 326.114 189.556 326.117Z" fill="#090028"/>
<path d="M188.219 330.477C188.26 330.477 190.812 330.184 190.812 330.184C190.812 330.184 190.593 331.169 189.646 331.276C188.699 331.384 188.219 330.477 188.219 330.477Z" fill="#FBFDFC"/>
<path d="M186.984 322.36L184.697 320.568C184.697 320.568 187.872 321.54 187.661 321.652C187.406 321.863 187.179 322.101 186.984 322.36V322.36Z" fill="#FF6160"/>
<path d="M181.573 322.443C181.573 322.443 182.945 325.724 192.094 324.483C192.094 324.483 192.862 319.025 185.914 318.748C178.966 318.471 179.556 323.113 179.679 323.043C179.803 322.973 181.573 322.443 181.573 322.443Z" fill="#090028"/>
<path d="M183.403 324.053C182.816 325.471 182.342 326.926 181.985 328.406C181.985 328.406 188.696 341.941 182.443 342.441L181.363 342.661C176.007 343.741 176.963 332.498 175.595 326.937C174.744 323.453 178.481 318.926 182.068 320.391C185.654 321.856 183.403 324.053 183.403 324.053Z" fill="#090028"/>
<path d="M183.97 329.808C184.07 330.165 184.05 330.541 183.914 330.888C183.778 331.235 183.531 331.537 183.204 331.757C182.878 331.977 182.487 332.105 182.08 332.124C181.674 332.143 181.27 332.052 180.921 331.864C180.571 331.675 180.291 331.397 180.116 331.065C179.941 330.732 179.879 330.36 179.937 329.996C179.996 329.632 180.173 329.291 180.445 329.018C180.718 328.744 181.074 328.55 181.468 328.459C181.73 328.399 182.003 328.386 182.271 328.421C182.538 328.457 182.796 328.539 183.028 328.665C183.261 328.79 183.463 328.955 183.625 329.152C183.787 329.348 183.904 329.571 183.97 329.808V329.808Z" fill="#FF6160"/>
<path d="M182.136 331.423C181.953 331.46 181.761 331.443 181.59 331.373C181.419 331.302 181.278 331.183 181.189 331.034C181.089 330.896 181.042 330.732 181.057 330.568C181.072 330.404 181.147 330.249 181.271 330.128C181.403 330.003 181.572 329.917 181.757 329.878C181.942 329.84 182.136 329.852 182.314 329.913C182.193 329.752 182.013 329.634 181.806 329.581C181.492 329.526 181.165 329.579 180.892 329.73C180.877 329.739 180.859 329.742 180.842 329.739C180.825 329.736 180.81 329.727 180.8 329.714C180.79 329.701 180.787 329.685 180.79 329.669C180.794 329.654 180.804 329.64 180.818 329.631C181.115 329.463 181.472 329.404 181.816 329.466C181.969 329.506 182.111 329.575 182.232 329.669C182.352 329.764 182.449 329.881 182.516 330.012L182.625 330.198L182.424 330.09C182.254 330.003 182.057 329.968 181.862 329.99C181.668 330.011 181.487 330.089 181.344 330.21C181.242 330.313 181.18 330.443 181.168 330.581C181.155 330.718 181.193 330.856 181.276 330.972C181.352 331.1 181.473 331.203 181.621 331.263C181.768 331.322 181.933 331.337 182.09 331.303C182.105 331.302 182.12 331.307 182.133 331.315C182.145 331.323 182.154 331.334 182.158 331.348C182.163 331.361 182.162 331.375 182.156 331.388C182.15 331.401 182.14 331.412 182.127 331.419L182.136 331.423Z" fill="#AE253D"/>
<path d="M190.014 319.902C190.014 319.902 193.897 322.203 195.425 330.888L191.075 322.931L190.014 319.902Z" fill="#090028"/>
<path d="M203.228 449.286L191.473 445.959L195.777 433.496L208.009 435.349L203.228 449.286Z" fill="#FF6160"/>
<path d="M199.536 414.382L204.984 404.365L193.258 399.145L187.81 409.162L199.536 414.382Z" fill="#FF6160"/>
<path d="M184.953 396.2C185.223 396.2 195.195 400.193 195.195 400.193L198.397 402.071C198.397 402.071 193.539 431.992 192.638 439.983C192.638 439.983 199.669 444.468 206.786 444.629C206.786 444.629 221.479 398.306 221.479 392.422C221.479 386.538 190.232 372.598 190.232 372.598L176.015 380.021C176.015 380.021 154.649 381.61 149.736 384.622C144.824 387.635 187.876 405.278 187.876 405.278L184.953 396.2Z" fill="#FCE6CF"/>
<path d="M195.936 399.076C195.936 399.076 171.816 386.066 163.528 384.039C155.239 382.011 149.283 383.724 148.382 386.108C147.481 388.491 146.58 395.157 148.382 397.358C150.185 399.56 181.642 410.078 188.851 411.87C188.851 411.853 195.268 405.109 195.936 399.076Z" fill="#FCE6CF"/>
<path d="M148.566 385.934C148.532 385.94 148.498 385.94 148.465 385.934C148.411 385.909 148.37 385.867 148.351 385.815C148.331 385.763 148.334 385.707 148.36 385.657C148.986 384.511 151.26 383.464 155.121 382.545C158.672 381.754 162.274 381.163 165.907 380.778C165.961 380.778 171.533 380.162 171.853 380.365C171.903 380.395 171.938 380.442 171.95 380.495C171.962 380.549 171.95 380.605 171.917 380.65C171.887 380.688 171.845 380.716 171.797 380.73C171.748 380.744 171.696 380.744 171.647 380.729C170.504 380.572 150.656 382.347 148.749 385.827C148.73 385.857 148.704 385.883 148.672 385.901C148.64 385.92 148.604 385.931 148.566 385.934Z" fill="#090028"/>
<path d="M193.531 405.548C193.487 405.547 193.445 405.536 193.408 405.515C193.357 405.485 193.321 405.439 193.308 405.385C193.295 405.331 193.306 405.276 193.339 405.229C194.658 403.308 195.475 401.14 195.727 398.89C185.104 392.674 173.909 387.297 162.266 382.819C162.219 382.793 162.184 382.753 162.167 382.705C162.15 382.658 162.153 382.606 162.175 382.56C162.196 382.515 162.236 382.477 162.285 382.456C162.335 382.434 162.391 382.429 162.445 382.442C182.219 390.093 195.955 398.53 196.093 398.617L196.198 398.679V398.795C195.969 401.159 195.123 403.439 193.728 405.449C193.707 405.479 193.678 405.504 193.644 405.522C193.609 405.539 193.571 405.548 193.531 405.548V405.548Z" fill="#090028"/>
<path d="M166.561 384.441C166.526 384.44 166.491 384.433 166.46 384.42C166.428 384.406 166.4 384.386 166.378 384.362C165.657 383.623 164.813 382.99 163.875 382.488C163.83 382.458 163.798 382.413 163.786 382.363C163.774 382.313 163.784 382.261 163.812 382.216C163.841 382.172 163.886 382.139 163.94 382.123C163.994 382.108 164.053 382.111 164.104 382.132C165.092 382.66 165.982 383.326 166.739 384.106C166.776 384.149 166.792 384.204 166.784 384.258C166.777 384.312 166.746 384.362 166.698 384.395C166.659 384.424 166.611 384.44 166.561 384.441V384.441Z" fill="#090028"/>
<path d="M216.178 414.006H216.123C216.064 413.994 216.014 413.96 215.982 413.914C215.95 413.867 215.94 413.811 215.954 413.758C216.004 413.58 220.675 396.089 221.255 393.069C221.814 390.172 214.943 385.939 214.852 385.898C214.823 385.884 214.798 385.866 214.778 385.843C214.758 385.82 214.743 385.793 214.735 385.765C214.728 385.736 214.726 385.707 214.732 385.678C214.738 385.649 214.75 385.622 214.768 385.598C214.787 385.574 214.81 385.553 214.838 385.538C214.865 385.523 214.896 385.513 214.928 385.509C214.96 385.506 214.993 385.508 215.024 385.517C215.055 385.525 215.083 385.539 215.108 385.559C215.4 385.737 222.289 389.986 221.681 393.139C221.1 396.164 216.425 413.671 216.375 413.828C216.368 413.874 216.345 413.915 216.31 413.948C216.274 413.98 216.228 414 216.178 414.006V414.006Z" fill="#090028"/>
<path d="M201.242 403.835C201.198 403.836 201.154 403.824 201.118 403.802L195.569 400.595C195.544 400.581 195.522 400.562 195.504 400.54C195.487 400.518 195.474 400.492 195.468 400.466C195.462 400.439 195.461 400.411 195.467 400.385C195.473 400.358 195.484 400.332 195.501 400.31C195.517 400.287 195.537 400.267 195.562 400.252C195.586 400.237 195.613 400.226 195.642 400.22C195.671 400.214 195.701 400.214 195.73 400.218C195.759 400.223 195.787 400.233 195.812 400.248L201.365 403.454C201.416 403.484 201.452 403.531 201.465 403.584C201.477 403.638 201.466 403.694 201.434 403.74C201.414 403.77 201.385 403.794 201.352 403.811C201.318 403.827 201.28 403.836 201.242 403.835V403.835Z" fill="#090028"/>
<path d="M206.785 444.837H206.758C206.346 444.788 196.635 443.567 192.481 440.141L192.395 440.066V439.959L196.589 411.821L197.833 401.82C197.835 401.793 197.844 401.766 197.858 401.742C197.872 401.718 197.891 401.696 197.915 401.679C197.939 401.662 197.966 401.65 197.995 401.643C198.024 401.635 198.055 401.634 198.085 401.638C198.145 401.644 198.2 401.672 198.237 401.714C198.275 401.757 198.293 401.811 198.286 401.866L197.042 411.875L192.866 439.897C196.982 443.186 206.707 444.411 206.803 444.423C206.833 444.426 206.862 444.435 206.889 444.448C206.915 444.462 206.938 444.48 206.956 444.501C206.975 444.523 206.988 444.548 206.995 444.574C207.003 444.601 207.005 444.628 207 444.655C206.993 444.703 206.968 444.748 206.928 444.781C206.889 444.814 206.839 444.834 206.785 444.837Z" fill="#090028"/>
<path d="M151.841 397.743C151.793 397.743 151.746 397.728 151.709 397.701C149.11 395.972 149.129 394.478 149.133 394.416C149.133 394.389 149.139 394.362 149.151 394.337C149.163 394.312 149.181 394.29 149.202 394.271C149.224 394.252 149.25 394.238 149.278 394.229C149.307 394.219 149.337 394.216 149.367 394.217C149.396 394.218 149.426 394.224 149.453 394.235C149.48 394.246 149.505 394.261 149.525 394.281C149.546 394.301 149.562 394.324 149.572 394.349C149.583 394.374 149.587 394.401 149.586 394.428C149.586 394.449 149.586 395.786 151.978 397.37C152.017 397.396 152.045 397.433 152.06 397.474C152.074 397.516 152.073 397.56 152.058 397.601C152.043 397.642 152.014 397.678 151.975 397.704C151.936 397.729 151.889 397.743 151.841 397.743Z" fill="#090028"/>
<path d="M154.16 397.354C154.123 397.353 154.087 397.344 154.055 397.329C151.205 395.964 150.986 394.482 150.976 394.433C150.973 394.406 150.975 394.379 150.983 394.353C150.99 394.327 151.004 394.303 151.022 394.282C151.04 394.26 151.063 394.243 151.089 394.23C151.115 394.216 151.144 394.208 151.173 394.205C151.233 394.199 151.293 394.214 151.341 394.247C151.389 394.281 151.42 394.329 151.429 394.383C151.429 394.408 151.663 395.728 154.27 396.977C154.323 397.004 154.362 397.049 154.38 397.101C154.397 397.153 154.393 397.21 154.366 397.259C154.344 397.29 154.314 397.315 154.277 397.332C154.241 397.348 154.201 397.356 154.16 397.354Z" fill="#090028"/>
<path d="M192.812 355.249L188.37 338.383H176.276C174.991 338.383 173.22 339.149 173.147 339.182C168.289 341.52 154.932 354.836 155.6 363.227C156.204 370.845 168.326 369.33 180.406 371.089L183.091 360.989L178.723 359.929L192.812 355.249Z" fill="#D95F76"/>
<path d="M188.805 357.74V338.383H200.904C202.189 338.383 203.959 339.149 204.032 339.182C208.89 341.52 223.916 355.258 223.244 363.649C222.636 371.267 208.465 370.961 201.823 372.815L198.132 360.736L198.456 360.124L188.805 357.74Z" fill="#D95F76"/>
<path d="M208.414 360.389L208.263 381.492C208.263 381.492 187.135 384.984 168.326 380.458C167.868 380.346 169.208 363.008 169.208 363.008C169.208 363.008 169.208 359.648 171.171 358.606C173.133 357.563 189.129 351.157 189.509 351.157C189.889 351.157 208.414 360.389 208.414 360.389Z" fill="#D95F76"/>
<path d="M188.159 344.251C188.22 344.251 188.278 344.23 188.321 344.191C188.364 344.152 188.388 344.099 188.388 344.045C188.388 343.99 188.364 343.937 188.321 343.898C188.278 343.859 188.22 343.838 188.159 343.838C181.216 343.424 178.951 339.141 178.928 339.096C178.916 339.071 178.898 339.049 178.877 339.03C178.855 339.012 178.829 338.998 178.801 338.988C178.773 338.979 178.743 338.975 178.713 338.976C178.683 338.978 178.654 338.985 178.627 338.996C178.571 339.019 178.528 339.06 178.507 339.112C178.486 339.163 178.487 339.22 178.512 339.269C178.535 339.315 180.905 343.821 188.118 344.235L188.159 344.251Z" fill="#090028"/>
<path d="M195.813 338.383H180.512C180.512 338.383 183.256 342.716 188.562 342.699C190.991 342.691 193.585 341.884 195.813 338.383Z" fill="#FF6160"/>
<path d="M186.384 366.301C185.415 365.411 186.311 364.282 186.311 364.282C185.95 362.933 186.348 362.345 186.348 362.345C186.348 362.345 190.433 363.442 192.752 364.216C194.06 364.038 194.522 363.458 194.522 363.458L194.554 363.508C194.581 362.486 194.613 361.199 194.613 361.058C194.613 360.81 195.043 360.421 195.72 361.195C196.433 362.116 197.094 363.069 197.701 364.05L201.081 362.254L203.826 370.857C203.826 370.857 195.629 371.908 194.366 371.987C193.104 372.065 188.713 371.134 187.404 370.153C186.096 369.173 186.38 368.3 186.38 368.3C186.109 368.025 185.959 367.668 185.96 367.3C185.961 366.931 186.112 366.575 186.384 366.301Z" fill="#F78C63"/>
<path d="M195.295 360.607V363.284C195.006 363.634 194.618 363.906 194.172 364.072C193.726 364.238 193.238 364.292 192.761 364.228L191.494 363.814L192.491 359.941L195.295 360.607Z" fill="#AE253D"/>
<path d="M189.088 365.602C189.121 365.602 189.152 365.593 189.178 365.575C189.205 365.558 189.224 365.534 189.235 365.507C189.241 365.489 189.244 365.471 189.242 365.453C189.24 365.435 189.235 365.417 189.225 365.401C189.216 365.384 189.203 365.37 189.187 365.358C189.172 365.347 189.154 365.338 189.134 365.333C188.186 365.011 187.268 364.619 186.39 364.162C186.354 364.144 186.313 364.139 186.273 364.148C186.234 364.157 186.2 364.18 186.179 364.212C186.169 364.227 186.163 364.245 186.161 364.263C186.159 364.28 186.161 364.299 186.166 364.316C186.172 364.333 186.181 364.349 186.193 364.363C186.206 364.377 186.221 364.389 186.239 364.398C187.133 364.869 188.071 365.269 189.043 365.594L189.088 365.602Z" fill="#AE253D"/>
<path d="M189.089 367.343C189.124 367.344 189.159 367.333 189.187 367.312C189.214 367.292 189.233 367.263 189.24 367.232C189.246 367.195 189.237 367.158 189.214 367.128C189.191 367.098 189.156 367.077 189.116 367.07C188.187 366.896 187.293 366.596 186.463 366.181C186.428 366.162 186.386 366.157 186.347 366.167C186.307 366.176 186.274 366.199 186.253 366.23C186.233 366.261 186.227 366.299 186.238 366.334C186.248 366.368 186.273 366.398 186.307 366.416C187.163 366.852 188.09 367.163 189.052 367.339L189.089 367.343Z" fill="#AE253D"/>
<path d="M188.75 369.33C188.786 369.329 188.821 369.316 188.848 369.294C188.875 369.271 188.892 369.241 188.896 369.208C188.899 369.175 188.89 369.142 188.869 369.115C188.848 369.088 188.817 369.069 188.782 369.061C187.965 368.879 187.184 368.583 186.467 368.184C186.433 368.165 186.392 368.158 186.353 368.166C186.314 368.174 186.279 368.195 186.257 368.225C186.246 368.24 186.239 368.257 186.235 368.275C186.231 368.293 186.232 368.311 186.236 368.329C186.24 368.347 186.248 368.363 186.26 368.378C186.271 368.393 186.286 368.406 186.303 368.415C187.049 368.835 187.864 369.143 188.718 369.33H188.75Z" fill="#AE253D"/>
<path d="M198.652 362.412L203.304 361.365C203.304 361.365 205.93 367.253 205.93 367.448C205.93 367.642 204.617 372.827 204.453 372.827C203.87 372.384 203.317 371.91 202.797 371.408L198.652 362.412Z" fill="#4CB7D8"/>
<path d="M207.189 358.577L209.476 358.246C209.548 358.234 209.612 358.197 209.655 358.143C209.697 358.089 209.715 358.022 209.705 357.956C209.692 357.89 209.652 357.832 209.592 357.793C209.532 357.754 209.457 357.739 209.384 357.749L207.45 358.031L203.127 352.014C203.108 351.986 203.083 351.962 203.053 351.943C203.024 351.924 202.99 351.911 202.955 351.904C202.919 351.897 202.882 351.897 202.847 351.903C202.811 351.909 202.777 351.922 202.747 351.94C202.717 351.957 202.691 351.98 202.67 352.007C202.65 352.034 202.635 352.064 202.627 352.096C202.62 352.128 202.619 352.161 202.626 352.193C202.632 352.225 202.645 352.256 202.665 352.283L207.189 358.577Z" fill="#090028"/>
<path d="M206.347 343.887C206.31 343.886 206.274 343.878 206.242 343.863C206.209 343.848 206.181 343.826 206.159 343.8C204.439 341.561 202.957 341.557 202.957 341.557C202.897 341.557 202.838 341.535 202.796 341.496C202.753 341.458 202.729 341.405 202.729 341.35C202.729 341.295 202.753 341.243 202.796 341.204C202.838 341.165 202.897 341.143 202.957 341.143C203.04 341.143 204.686 341.172 206.521 343.56C206.538 343.582 206.55 343.607 206.556 343.633C206.563 343.66 206.563 343.687 206.557 343.714C206.552 343.74 206.541 343.766 206.524 343.788C206.507 343.811 206.486 343.83 206.461 343.845C206.428 343.869 206.389 343.883 206.347 343.887V343.887Z" fill="#090028"/>
<path d="M205.857 345.985C205.815 345.985 205.773 345.974 205.737 345.955C205.701 345.935 205.671 345.907 205.651 345.873C204.334 343.473 202.875 343.237 202.861 343.233C202.8 343.225 202.746 343.196 202.709 343.152C202.672 343.108 202.656 343.052 202.664 342.997C202.673 342.942 202.705 342.893 202.754 342.859C202.803 342.826 202.864 342.812 202.925 342.819C202.994 342.819 204.627 343.072 206.063 345.683C206.076 345.707 206.084 345.734 206.086 345.761C206.088 345.788 206.084 345.815 206.074 345.841C206.064 345.867 206.049 345.891 206.029 345.911C206.009 345.931 205.985 345.948 205.958 345.96C205.927 345.976 205.893 345.985 205.857 345.985Z" fill="#090028"/>
<path d="M193.008 362.777C192.972 362.786 192.934 362.782 192.901 362.767C192.868 362.752 192.842 362.726 192.829 362.695C192.815 362.664 192.815 362.629 192.828 362.598C192.84 362.566 192.865 362.54 192.898 362.525C193.754 362.033 194.565 361.48 195.322 360.869C195.337 360.857 195.355 360.848 195.374 360.842C195.393 360.837 195.413 360.834 195.433 360.835C195.453 360.837 195.472 360.841 195.49 360.849C195.508 360.857 195.524 360.868 195.537 360.882C195.551 360.895 195.561 360.911 195.567 360.928C195.574 360.946 195.576 360.964 195.575 360.982C195.574 361 195.569 361.017 195.56 361.034C195.551 361.05 195.539 361.064 195.524 361.076C194.755 361.702 193.928 362.269 193.054 362.769L193.008 362.777Z" fill="#AE253D"/>
<path d="M193.392 364.481C193.357 364.488 193.321 364.483 193.289 364.468C193.257 364.453 193.232 364.428 193.218 364.399C193.203 364.365 193.203 364.328 193.219 364.294C193.234 364.261 193.264 364.234 193.301 364.221C194.171 363.876 194.98 363.415 195.697 362.851C195.712 362.839 195.729 362.829 195.748 362.823C195.767 362.817 195.787 362.814 195.807 362.815C195.827 362.816 195.846 362.82 195.865 362.828C195.883 362.835 195.899 362.846 195.912 362.859C195.926 362.873 195.936 362.888 195.943 362.905C195.95 362.922 195.953 362.94 195.952 362.958C195.952 362.976 195.947 362.994 195.938 363.01C195.93 363.027 195.918 363.042 195.903 363.054C195.161 363.64 194.323 364.118 193.42 364.473L193.392 364.481Z" fill="#AE253D"/>
<path d="M194.175 366.365C194.141 366.371 194.106 366.366 194.076 366.352C194.045 366.337 194.02 366.314 194.006 366.286C193.997 366.27 193.993 366.252 193.992 366.234C193.992 366.215 193.995 366.197 194.002 366.18C194.01 366.163 194.021 366.148 194.034 366.135C194.048 366.122 194.065 366.111 194.084 366.104C194.842 365.773 195.54 365.338 196.151 364.813C196.165 364.8 196.181 364.789 196.2 364.782C196.218 364.774 196.238 364.771 196.259 364.771C196.279 364.771 196.299 364.774 196.317 364.782C196.336 364.789 196.352 364.8 196.366 364.813C196.38 364.826 196.392 364.841 196.399 364.858C196.407 364.874 196.411 364.892 196.411 364.91C196.411 364.928 196.407 364.946 196.399 364.963C196.392 364.98 196.38 364.995 196.366 365.008C195.728 365.554 195 366.006 194.207 366.348L194.175 366.365Z" fill="#AE253D"/>
<path d="M173.393 358.439L171.074 358.546C171.001 358.549 170.929 358.525 170.874 358.48C170.82 358.435 170.786 358.373 170.782 358.306C170.78 358.273 170.785 358.24 170.798 358.209C170.81 358.178 170.829 358.15 170.854 358.126C170.878 358.101 170.908 358.082 170.941 358.068C170.975 358.054 171.01 358.047 171.047 358.046L173.009 357.955L175.859 351.259C175.891 351.204 175.944 351.162 176.008 351.14C176.073 351.118 176.144 351.119 176.208 351.141C176.272 351.164 176.324 351.207 176.355 351.262C176.386 351.318 176.394 351.382 176.376 351.442L173.393 358.439Z" fill="#090028"/>
<path d="M183.092 360.997L180.699 371.341C180.699 371.341 175.777 367.721 175.777 367.324C175.777 366.926 177.337 362.106 177.502 362.015C177.667 361.924 183.092 360.997 183.092 360.997Z" fill="#4CB7D8"/>
<path d="M180.858 371.628H180.616C176.337 371.25 172.147 370.288 168.188 368.773C168.154 368.76 168.124 368.741 168.099 368.718C168.073 368.695 168.053 368.667 168.04 368.637C168.026 368.606 168.019 368.574 168.02 368.541C168.02 368.508 168.027 368.476 168.041 368.446C168.055 368.416 168.076 368.388 168.102 368.365C168.128 368.342 168.158 368.324 168.192 368.312C168.225 368.3 168.261 368.293 168.297 368.294C168.334 368.294 168.369 368.301 168.403 368.313C172.232 369.77 176.275 370.712 180.405 371.111L182.455 361.341L173.11 358.445C173.04 358.423 172.984 358.377 172.952 358.317C172.92 358.257 172.916 358.189 172.94 358.126C172.965 358.063 173.015 358.012 173.081 357.983C173.147 357.955 173.223 357.951 173.293 357.973L183.091 361.006L180.858 371.628Z" fill="#090028"/>
<path d="M199.871 371.628H200.113C204.392 371.25 208.582 370.288 212.542 368.773C212.575 368.76 212.605 368.741 212.631 368.718C212.656 368.695 212.676 368.667 212.69 368.637C212.703 368.606 212.71 368.574 212.71 368.541C212.709 368.508 212.702 368.476 212.688 368.446C212.674 368.416 212.653 368.388 212.627 368.365C212.602 368.342 212.571 368.324 212.538 368.312C212.504 368.3 212.468 368.293 212.432 368.294C212.396 368.294 212.36 368.301 212.327 368.313C208.498 369.77 204.454 370.712 200.324 371.111L198.274 361.341L207.62 358.445C207.689 358.423 207.745 358.377 207.777 358.317C207.809 358.257 207.813 358.189 207.789 358.126C207.765 358.063 207.714 358.012 207.648 357.983C207.582 357.955 207.506 357.951 207.437 357.973L197.639 361.006L199.871 371.628Z" fill="#090028"/>
<path d="M212.627 459.32L189.299 449.183L191.54 444.966C191.54 444.966 194.312 443.679 196.343 445.835C196.343 445.835 198.946 449.973 203.968 448.512L210.729 455.592C210.729 455.592 213.391 457.884 212.627 459.32Z" fill="#E2F2F1"/>
<path d="M212.001 460.812L188.406 450.553C188.358 450.532 188.315 450.503 188.279 450.467C188.244 450.431 188.216 450.389 188.199 450.343C188.181 450.298 188.173 450.249 188.176 450.201C188.179 450.153 188.193 450.106 188.216 450.062L188.937 448.704C188.984 448.616 189.067 448.549 189.169 448.517C189.271 448.484 189.383 448.49 189.48 448.532L213.075 458.79C213.317 458.895 213.502 459.083 213.591 459.312C213.68 459.541 213.664 459.792 213.548 460.011L213.35 460.384C213.234 460.602 213.026 460.77 212.773 460.85C212.521 460.931 212.243 460.917 212.001 460.812Z" fill="#090028"/>
<path d="M168.656 382.811H210.793C212.18 382.811 213.305 381.793 213.305 380.539V360.015C213.305 358.76 212.18 357.743 210.793 357.743H168.656C167.269 357.743 166.144 358.76 166.144 360.015V380.539C166.144 381.793 167.269 382.811 168.656 382.811Z" fill="#2A1968"/>
<path d="M187.359 368.164C187.359 367.826 187.47 367.497 187.677 367.216C187.884 366.936 188.178 366.718 188.523 366.589C188.867 366.459 189.246 366.426 189.612 366.491C189.977 366.557 190.313 366.72 190.577 366.958C190.84 367.196 191.02 367.5 191.092 367.831C191.165 368.162 191.128 368.504 190.985 368.816C190.842 369.127 190.601 369.394 190.291 369.581C189.981 369.768 189.617 369.868 189.244 369.868C188.996 369.869 188.751 369.825 188.522 369.74C188.293 369.654 188.085 369.529 187.91 369.37C187.735 369.212 187.596 369.024 187.502 368.817C187.407 368.61 187.359 368.388 187.359 368.164V368.164Z" fill="white"/>
<g filter="url(#filter0_d_404_14238)">
<path d="M545.375 406.259L541.592 407.736L537.383 409.54C537.383 409.54 530.851 410.566 530.755 410.55L531.3 411.427C523.194 412.333 497.642 413.28 493.448 413.707C490.918 413.959 488.489 416.806 486.957 419.024L489.034 420.294C489.034 420.294 511.347 419.405 511.301 419.831C511.301 419.963 510.661 421.966 509.682 424.589C523.464 425.417 542.763 425.342 546.344 420.203C549.286 415.991 546.418 409.941 545.375 406.259Z" fill="white"/>
<path d="M459.297 496.315L476.254 496.521L476.496 482.184L459.608 480.293L459.297 496.315Z" fill="white"/>
<path d="M511.424 445.725C511.424 445.725 526.02 445.945 536.248 445.626C539.533 445.527 542.456 445.734 544.185 445.386C551.307 443.954 553.059 423.848 544.976 411.53C536.893 399.212 508.602 437.036 508.602 437.036L511.424 445.725Z" fill="#BF0830"/>
<path d="M485.012 496.857L501.964 497.068L502.211 482.726L485.323 480.835L485.012 496.857Z" fill="white"/>
<path d="M495.707 418.817C495.707 418.817 459.854 420.886 458.82 424.635C457.786 428.384 454.822 468.202 457.036 485.188C457.036 485.188 470.64 486.037 477.163 484.609L478.75 443.189L489.486 442.072L514.086 415.321L495.707 418.817Z" fill="#890421"/>
<path d="M512.254 417.926C512.254 417.926 484.602 424.985 483.569 428.73C482.535 432.474 479.589 468.01 481.808 485.004C481.808 485.004 496.445 485.762 502.94 484.334L504.692 445.26L511 445.459L526.301 421.108L512.254 417.926Z" fill="#BF0830"/>
<path d="M494.843 485.738C501.307 485.738 503.612 484.861 503.722 484.816L503.864 484.758L505.561 445.448L502.889 446.586L503.1 447L505.03 446.172L503.379 484.443C502.679 484.662 499.326 485.536 491.408 485.205V485.656C492.652 485.718 493.801 485.738 494.843 485.738Z" fill="#090028"/>
<path d="M500.903 477.265C501.594 474.857 501.791 451.378 501.818 450.369H501.311C501.311 450.613 501.105 474.782 500.428 477.145L500.903 477.265Z" fill="#090028"/>
<path d="M475.21 444.071C478.485 443.111 482.986 442.966 483.045 442.966V442.515C482.999 442.515 478.421 442.664 475.072 443.641L475.21 444.071Z" fill="#090028"/>
<path d="M467.833 485.654C470.98 485.68 474.122 485.403 477.205 484.827L477.393 484.785L478.994 442.902L476.949 444.392L477.26 444.743L478.454 443.874L476.903 484.425C473.757 484.989 470.554 485.25 467.348 485.203V485.654H467.833Z" fill="#090028"/>
<path d="M474.78 478.137C475.466 474.5 474.812 449.892 474.78 448.845H474.281C474.281 449.102 474.963 474.459 474.281 478.055L474.78 478.137Z" fill="#090028"/>
<path d="M522.407 446.147C528.774 446.147 536.409 445.952 544.995 445.365L544.958 444.918C519.383 446.66 502.23 444.918 502.061 444.918L502.006 445.365C502.116 445.377 509.764 446.147 522.407 446.147Z" fill="#090028"/>
<path d="M513.66 405.592C513.166 405.592 493.305 413.313 493.305 413.313L497.307 420.24L508.455 418.026L513.66 405.592Z" fill="#2A1968"/>
<path d="M542.428 373.391C542.428 373.391 550.872 373.122 554.906 375.191C560.921 378.274 558.776 395.934 558.776 395.934C558.776 395.934 553.667 393.41 553.356 392.57C553.045 391.73 542.428 373.391 542.428 373.391Z" fill="#2A1968"/>
<path d="M544.478 411.724H544.446L538.235 413.011C538.174 413.024 538.11 413.014 538.057 412.984C538.005 412.954 537.967 412.907 537.953 412.852C537.939 412.797 537.95 412.739 537.983 412.692C538.016 412.644 538.069 412.61 538.129 412.598L544.346 411.311C544.375 411.305 544.406 411.304 544.435 411.308C544.465 411.313 544.494 411.323 544.519 411.338C544.545 411.352 544.567 411.371 544.584 411.394C544.601 411.416 544.614 411.441 544.62 411.468C544.637 411.519 544.631 411.574 544.605 411.621C544.579 411.669 544.533 411.706 544.478 411.724V411.724Z" fill="#090028"/>
<path d="M547.726 408.388L543.943 409.87L539.735 411.674C539.735 411.674 533.203 412.7 533.107 412.679L533.651 413.561C525.546 414.467 499.994 415.415 495.799 415.837C493.27 416.093 490.841 418.936 489.309 421.158L491.385 422.428C491.385 422.428 513.698 421.539 513.653 421.961C513.653 422.097 513.008 424.1 512.033 426.723C525.811 427.551 545.11 427.476 548.696 422.337C551.628 418.112 548.769 412.063 547.726 408.388Z" fill="#F9B59D"/>
<path d="M550.602 374.769C545.804 374.169 533.138 373.756 533.138 373.756C533.138 373.756 531.459 374.169 531.994 373.929C518.011 376.164 516.465 385.544 516.465 385.544L509.635 412.656L502.038 413.028C499.581 417.245 501.383 428.611 501.383 428.611L538.183 432.364C538.183 432.364 546.138 433.548 552.867 425.744C557.313 420.58 558.813 404.727 558.813 393.146C558.827 393.146 558.063 375.7 550.602 374.769Z" fill="#2A1968"/>
<path d="M447.531 395.764H482.57L494.788 423.914H459.754L447.531 395.764Z" fill="#FCE6CF"/>
<path d="M494.788 423.914H492.963L480.74 395.764H482.57L494.788 423.914Z" fill="#F3CBC2"/>
<path d="M470.44 408.939C470.925 410.234 470.568 411.512 469.644 411.798C468.72 412.083 467.576 411.264 467.092 409.969C466.607 408.674 466.963 407.399 467.887 407.114C468.811 406.828 469.955 407.648 470.44 408.939Z" fill="#E2F2F1"/>
<path d="M506.37 421.631H493.283V423.906H506.37C506.704 423.906 507.024 423.787 507.26 423.573C507.496 423.36 507.628 423.07 507.628 422.769C507.628 422.467 507.496 422.177 507.26 421.964C507.024 421.75 506.704 421.631 506.37 421.631Z" fill="#F3CBC2"/>
<path d="M503.057 422.419H494.787V422.775H503.057V422.419Z" fill="#E23E3D"/>
<path d="M538.235 413.127C538.19 413.139 538.142 413.139 538.097 413.127C538.067 413.121 538.039 413.11 538.014 413.094C537.989 413.078 537.968 413.057 537.952 413.033C537.937 413.01 537.926 412.983 537.922 412.956C537.918 412.929 537.92 412.901 537.928 412.874C537.965 412.729 541.812 397.936 543.449 388.63C543.454 388.603 543.464 388.577 543.48 388.553C543.496 388.53 543.517 388.509 543.541 388.493C543.566 388.477 543.594 388.465 543.624 388.459C543.654 388.453 543.684 388.452 543.714 388.457C543.775 388.466 543.829 388.496 543.865 388.541C543.901 388.586 543.916 388.642 543.907 388.697C542.269 398.019 538.417 412.825 538.376 412.973C538.369 413.008 538.351 413.039 538.327 413.066C538.302 413.093 538.27 413.114 538.235 413.127V413.127Z" fill="#090028"/>
<path d="M514.433 412.884C514.383 412.899 514.329 412.899 514.278 412.884C514.22 412.866 514.172 412.828 514.144 412.779C514.116 412.73 514.11 412.672 514.127 412.619C514.186 412.454 519.891 396.068 521.084 390.415C521.096 390.361 521.13 390.312 521.181 390.28C521.231 390.248 521.294 390.236 521.354 390.246C521.415 390.257 521.469 390.289 521.504 390.335C521.539 390.382 521.553 390.439 521.542 390.494C520.343 396.179 514.63 412.582 514.571 412.747C514.561 412.778 514.544 412.807 514.52 412.83C514.496 412.854 514.466 412.872 514.433 412.884Z" fill="#090028"/>
<path d="M537.63 381.7L537.081 381.741C537.056 381.743 537.03 381.741 537.006 381.734C536.982 381.727 536.959 381.716 536.94 381.701C536.921 381.685 536.905 381.667 536.894 381.646C536.883 381.625 536.877 381.603 536.876 381.58C536.874 381.557 536.877 381.534 536.885 381.512C536.893 381.491 536.905 381.47 536.922 381.453C536.939 381.436 536.959 381.422 536.981 381.411C537.004 381.401 537.029 381.395 537.054 381.394C545.054 380.885 546.541 375.601 546.555 375.53C546.564 375.485 546.592 375.446 546.633 375.419C546.674 375.393 546.724 375.382 546.774 375.39C546.799 375.393 546.823 375.4 546.844 375.412C546.866 375.423 546.885 375.438 546.899 375.456C546.914 375.474 546.925 375.495 546.931 375.517C546.937 375.539 546.938 375.562 546.934 375.584C546.925 375.642 545.448 380.967 537.63 381.7Z" fill="#090028"/>
<path d="M512.8 408.974C512.749 408.992 512.692 408.993 512.64 408.976C512.588 408.96 512.544 408.926 512.517 408.883L510.957 406.466V406.383L516.217 385.508C516.659 383.569 517.599 381.752 518.962 380.203C521.098 377.687 525.311 374.489 533.252 373.533C533.313 373.526 533.375 373.541 533.424 373.575C533.473 373.609 533.505 373.66 533.513 373.715C533.517 373.742 533.516 373.77 533.508 373.797C533.501 373.823 533.487 373.848 533.469 373.87C533.451 373.892 533.428 373.911 533.401 373.925C533.375 373.938 533.346 373.947 533.316 373.951C525.54 374.886 521.423 377.998 519.346 380.439C518.022 381.942 517.1 383.7 516.652 385.578V385.578L511.414 406.379L512.883 408.655C512.898 408.679 512.908 408.706 512.912 408.734C512.916 408.761 512.914 408.789 512.906 408.816C512.898 408.843 512.884 408.868 512.865 408.891C512.846 408.913 512.823 408.931 512.796 408.945L512.8 408.974Z" fill="#090028"/>
<path d="M504.571 409.052C504.514 409.071 504.451 409.07 504.395 409.047C504.34 409.025 504.296 408.984 504.274 408.933C504.262 408.907 504.256 408.88 504.256 408.852C504.256 408.824 504.262 408.797 504.274 408.771C504.286 408.746 504.303 408.723 504.325 408.704C504.347 408.684 504.373 408.669 504.402 408.659L511.117 406.235C511.174 406.215 511.238 406.217 511.294 406.24C511.351 406.262 511.395 406.303 511.419 406.355C511.441 406.406 511.441 406.464 511.417 406.515C511.393 406.566 511.347 406.607 511.291 406.628L504.576 409.048L504.571 409.052Z" fill="#090028"/>
<path d="M502.037 413.029C502.037 413.029 499.608 418.214 501.383 428.612L510.266 424.3L507.627 416.534L502.037 413.029Z" fill="#2A1968"/>
<path d="M546.256 413.313C546.228 413.317 546.198 413.317 546.17 413.313C545.836 413.313 512.961 412.411 502.202 413.213C501.937 413.851 500.725 417.153 501.063 423.194C501.065 423.222 501.061 423.249 501.05 423.275C501.04 423.301 501.025 423.325 501.004 423.345C500.984 423.366 500.959 423.382 500.931 423.394C500.904 423.406 500.874 423.412 500.843 423.413C500.782 423.416 500.722 423.396 500.676 423.359C500.63 423.322 500.601 423.27 500.596 423.215C500.212 416.371 501.758 413.069 501.827 412.932L501.882 412.816H502.019C512.65 411.989 545.849 412.895 546.183 412.903C546.214 412.904 546.244 412.911 546.272 412.922C546.3 412.934 546.325 412.95 546.346 412.971C546.366 412.991 546.383 413.015 546.393 413.041C546.404 413.067 546.409 413.095 546.407 413.122C546.407 413.164 546.392 413.205 546.365 413.239C546.338 413.273 546.3 413.299 546.256 413.313V413.313Z" fill="#090028"/>
<path d="M531.226 357.986L530.965 367.135C530.965 367.135 530.745 370.073 533.577 370.508L532.936 374.418C532.815 375.123 532.971 375.845 533.377 376.457C533.784 377.07 534.414 377.534 535.159 377.769C536.021 378.041 536.924 378.189 537.835 378.208C541.088 378.287 542.913 376.139 543.215 375.026C543.517 373.913 542.853 368.641 542.853 368.641L543.027 366.051L542.945 356.013L531.226 357.986Z" fill="white"/>
<path d="M540.246 368.161C540.246 368.161 539.912 373.081 533.105 373.391L533.563 370.495C533.563 370.495 537.963 371.409 540.246 368.161Z" fill="#E8EBF8"/>
<path d="M538.938 362.97C538.955 362.971 538.973 362.968 538.989 362.962C539.006 362.957 539.021 362.948 539.034 362.937C539.059 362.914 539.073 362.882 539.073 362.85C539.073 362.817 539.059 362.786 539.034 362.763C539.034 362.763 537.204 360.98 535.461 362.18C535.436 362.203 535.422 362.234 535.422 362.266C535.422 362.299 535.436 362.33 535.461 362.353C535.486 362.376 535.52 362.388 535.555 362.388C535.59 362.388 535.624 362.376 535.649 362.353C537.19 361.29 538.787 362.842 538.851 362.908C538.858 362.924 538.87 362.938 538.886 362.949C538.901 362.959 538.919 362.967 538.938 362.97V362.97Z" fill="#090028"/>
<path d="M543.645 361.793L540.704 362.273L540.164 362.757C540.164 362.757 540.544 358.329 541.12 357.469C541.696 356.608 543.645 361.793 543.645 361.793Z" fill="#090028"/>
<path d="M533.376 362.104C533.396 362.104 533.416 362.1 533.434 362.093C533.452 362.086 533.468 362.076 533.482 362.062C533.507 362.039 533.521 362.008 533.521 361.975C533.521 361.943 533.507 361.912 533.482 361.888C533.427 361.847 532.164 360.817 531.327 361.429C531.311 361.439 531.297 361.451 531.287 361.466C531.277 361.481 531.27 361.497 531.267 361.514C531.264 361.532 531.266 361.549 531.271 361.566C531.276 361.583 531.285 361.598 531.297 361.612C531.309 361.625 531.325 361.636 531.342 361.644C531.359 361.652 531.378 361.656 531.397 361.657C531.416 361.657 531.435 361.654 531.453 361.648C531.471 361.642 531.487 361.632 531.501 361.619C532.155 361.139 533.285 362.062 533.299 362.07C533.32 362.088 533.348 362.1 533.376 362.104V362.104Z" fill="#090028"/>
<path d="M539.548 363.349C539.535 363.785 539.666 364.215 539.923 364.584C540.18 364.952 540.553 365.244 540.993 365.421C541.434 365.599 541.923 365.654 542.398 365.58C542.873 365.506 543.313 365.307 543.663 365.006C544.013 364.706 544.256 364.319 544.363 363.893C544.469 363.468 544.434 363.024 544.261 362.617C544.089 362.209 543.786 361.858 543.393 361.606C542.999 361.354 542.532 361.213 542.05 361.202C541.729 361.193 541.41 361.242 541.111 361.346C540.812 361.45 540.538 361.606 540.306 361.805C540.073 362.005 539.886 362.244 539.756 362.509C539.626 362.774 539.555 363.059 539.548 363.349V363.349Z" fill="white"/>
<path d="M542.373 364.644C542.594 364.642 542.808 364.577 542.984 364.457C543.16 364.337 543.289 364.169 543.352 363.977C543.427 363.796 543.433 363.597 543.368 363.413C543.303 363.228 543.172 363.069 542.995 362.96C542.806 362.844 542.583 362.783 542.355 362.783C542.127 362.783 541.904 362.844 541.715 362.96C541.806 362.732 541.986 362.543 542.222 362.43C542.566 362.297 542.952 362.284 543.306 362.393C543.323 362.398 543.342 362.397 543.358 362.39C543.374 362.383 543.387 362.371 543.393 362.355C543.397 362.348 543.399 362.34 543.399 362.331C543.398 362.323 543.396 362.315 543.392 362.308C543.388 362.3 543.383 362.294 543.376 362.288C543.369 362.283 543.361 362.279 543.352 362.277C542.962 362.157 542.537 362.172 542.158 362.318C541.996 362.402 541.855 362.516 541.744 362.652C541.633 362.788 541.554 362.943 541.513 363.108L541.449 363.319L541.628 363.171C541.799 363.024 542.019 362.933 542.253 362.912C542.487 362.891 542.723 362.941 542.922 363.055C543.071 363.15 543.182 363.287 543.236 363.445C543.291 363.603 543.287 363.772 543.224 363.928C543.173 364.095 543.063 364.243 542.91 364.349C542.757 364.454 542.57 364.511 542.378 364.511V364.511C542.363 364.515 542.35 364.522 542.341 364.533C542.332 364.544 542.327 364.557 542.327 364.571C542.327 364.585 542.332 364.598 542.341 364.609C542.35 364.62 542.363 364.628 542.378 364.631L542.373 364.644Z" fill="#AE253D"/>
<path d="M534.703 365.844C534.717 365.845 534.731 365.842 534.744 365.835C534.756 365.828 534.766 365.818 534.771 365.806C534.776 365.791 534.775 365.775 534.767 365.76C534.76 365.746 534.746 365.734 534.73 365.728L533.358 365.289L533.87 362.393C533.866 362.38 533.858 362.368 533.846 362.359C533.834 362.351 533.819 362.347 533.804 362.347C533.789 362.347 533.774 362.351 533.762 362.359C533.75 362.368 533.741 362.38 533.738 362.393L533.207 365.372L534.662 365.844H534.703Z" fill="#AE253D"/>
<path d="M535.7 367.064C535.659 367.064 533.02 366.936 533.02 366.936C533.02 366.936 533.321 367.933 534.3 367.979C535.279 368.024 535.7 367.064 535.7 367.064Z" fill="#FBFDFC"/>
<path d="M543.645 361.793C543.645 361.793 544.592 357.515 543.188 355.88C541.783 354.246 533.518 351.25 532.484 352.024C531.45 352.798 532.434 353.799 532.434 353.799C532.434 353.799 529.108 352.748 528.276 355.417C527.443 358.086 534.611 359.398 538.947 358.243C540.899 358.931 542.549 360.178 543.645 361.793V361.793Z" fill="#090028"/>
<path d="M544.592 431.74C544.09 431.912 543.579 432.06 543.059 432.182C541.465 432.6 539.797 432.732 538.147 432.571C538.116 432.567 538.087 432.557 538.061 432.542C538.035 432.527 538.012 432.508 537.994 432.485C537.976 432.463 537.964 432.437 537.957 432.41C537.95 432.383 537.949 432.355 537.955 432.327C537.966 432.273 537.999 432.225 538.049 432.192C538.098 432.16 538.159 432.146 538.22 432.153C539.815 432.302 541.427 432.173 542.968 431.773C545.507 431.16 549.253 429.592 552.679 425.616C556.983 420.621 558.557 405.253 558.593 393.609C558.587 393.579 558.588 393.547 558.596 393.517C558.604 393.486 558.62 393.458 558.642 393.434C558.664 393.41 558.691 393.39 558.722 393.377C558.754 393.364 558.788 393.357 558.822 393.357C558.857 393.357 558.891 393.364 558.922 393.377C558.953 393.39 558.981 393.41 559.003 393.434C559.025 393.458 559.04 393.486 559.049 393.517C559.057 393.547 559.058 393.579 559.051 393.609C559.01 405.319 557.413 420.799 553.04 425.884C550.168 429.211 547.053 430.895 544.592 431.74Z" fill="#090028"/>
<path d="M477.438 498.365L463.043 500.793L456.026 496.023L446.53 503.558L444.243 503.947C443.855 504.005 443.502 504.184 443.242 504.452C442.983 504.719 442.834 505.06 442.821 505.416C442.816 505.639 442.867 505.86 442.969 506.064C443.071 506.267 443.222 506.448 443.411 506.592C443.6 506.736 443.822 506.841 444.06 506.898C444.299 506.955 444.549 506.963 444.792 506.922L478.271 501.278C478.388 501.257 478.491 501.195 478.559 501.106C478.626 501.017 478.652 500.908 478.632 500.802L478.225 498.828C478.208 498.751 478.174 498.677 478.124 498.612C478.075 498.546 478.012 498.49 477.939 498.447C477.866 498.404 477.784 498.375 477.698 498.36C477.612 498.346 477.524 498.348 477.438 498.365V498.365Z" fill="#A22641"/>
<path d="M477.313 498.402L476.211 493.056C476.211 493.056 473.178 490.512 469.807 492.643C469.807 492.643 464.963 497.169 459.145 493.66L447.933 500.629C447.933 500.629 444.791 502.205 444.219 503.984L477.313 498.402Z" fill="#100E68"/>
<path d="M502.843 498.392L488.296 499.935L481.641 494.75L471.61 501.706L469.286 501.95C468.894 501.986 468.527 502.144 468.248 502.395C467.969 502.647 467.795 502.978 467.753 503.332C467.734 503.555 467.769 503.779 467.856 503.988C467.943 504.197 468.08 504.386 468.258 504.541C468.436 504.696 468.649 504.814 468.883 504.885C469.117 504.957 469.365 504.98 469.611 504.954L503.433 501.363C503.552 501.349 503.66 501.294 503.734 501.209C503.809 501.124 503.843 501.016 503.831 500.908L503.57 498.913C503.56 498.836 503.534 498.761 503.492 498.692C503.45 498.624 503.394 498.564 503.326 498.516C503.259 498.467 503.181 498.431 503.098 498.41C503.015 498.389 502.928 498.383 502.843 498.392V498.392Z" fill="#D95F76"/>
<path d="M502.714 498.421L502.015 493.017C502.015 493.017 499.179 490.294 495.647 492.214C495.647 492.214 490.474 496.435 484.934 492.582L473.224 498.847C473.224 498.847 469.972 500.229 469.268 501.971L502.714 498.421Z" fill="#1F1587"/>
</g>
<path d="M104.275 477.198L107.646 478.514L111.392 480.124C111.392 480.124 117.215 481.038 117.298 481.017L116.813 481.804C124.036 482.611 146.797 483.459 150.534 483.831C152.785 484.059 154.953 486.591 156.316 488.569L154.486 489.703C154.486 489.703 134.607 488.908 134.648 489.289C134.648 489.409 135.22 491.197 136.093 493.53C123.816 494.271 106.621 494.201 103.429 489.624C100.794 485.888 103.346 480.484 104.275 477.198Z" fill="white"/>
<path d="M181.493 557.911L166.389 558.097L166.174 545.324L181.218 543.64L181.493 557.911Z" fill="white"/>
<path d="M134.519 512.369C134.519 512.369 121.519 512.563 112.403 512.282C109.48 512.191 106.877 512.377 105.336 512.067C98.9911 510.792 97.4267 492.884 104.631 481.91C111.836 470.936 137.035 504.627 137.035 504.627L134.519 512.369Z" fill="#0B1249"/>
<path d="M158.05 557.911L142.946 558.097L142.73 545.324L157.775 543.64L158.05 557.911Z" fill="white"/>
<path d="M148.522 488.394C148.522 488.394 180.459 490.239 181.383 493.574C182.307 496.909 184.946 532.383 182.97 547.515C182.97 547.515 170.853 548.268 165.057 546.998L163.644 510.101L154.079 509.108L132.164 485.278L148.522 488.394Z" fill="#2836A5"/>
<path d="M133.175 487.849C133.175 487.849 157.807 494.134 158.726 497.473C159.646 500.812 162.276 532.463 160.3 547.595C160.3 547.595 147.268 548.27 141.472 546.999L139.912 512.192L134.291 512.369L120.664 490.679L133.175 487.849Z" fill="#0B1249"/>
<path d="M166.781 510.888C163.863 510.035 159.842 509.907 159.801 509.903V509.489C159.842 509.489 163.918 509.622 166.905 510.495L166.781 510.888Z" fill="#090028"/>
<path d="M173.356 547.93C170.551 547.953 167.751 547.706 165.003 547.194L164.839 547.161L163.416 509.849L165.246 511.178L164.967 511.488L163.901 510.714L165.273 546.838C168.076 547.338 170.929 547.569 173.786 547.529V547.943L173.356 547.93Z" fill="#090028"/>
<path d="M167.161 541.234C166.548 537.995 167.129 516.072 167.161 515.141H167.618C167.618 515.369 167.01 537.957 167.618 541.156L167.161 541.234Z" fill="#090028"/>
<path d="M132.535 476.613C132.993 476.613 150.667 483.491 150.667 483.491L147.104 489.66L137.173 487.69L132.535 476.613Z" fill="#C43F5C"/>
<path d="M106.896 447.931C106.896 447.931 99.3711 447.691 95.7804 449.532C90.4194 452.28 92.3314 468.008 92.3314 468.008C92.3314 468.008 96.8828 465.761 97.1618 465.012C97.4408 464.263 106.896 447.931 106.896 447.931Z" fill="#C43F5C"/>
<path d="M105.066 482.076H105.093L110.628 483.218C110.655 483.224 110.682 483.225 110.709 483.221C110.736 483.218 110.762 483.209 110.785 483.196C110.808 483.183 110.828 483.165 110.843 483.145C110.859 483.125 110.87 483.102 110.875 483.077C110.881 483.053 110.882 483.029 110.877 483.005C110.873 482.98 110.863 482.957 110.849 482.936C110.834 482.916 110.815 482.898 110.793 482.884C110.771 482.869 110.746 482.859 110.72 482.854L105.185 481.708C105.135 481.702 105.085 481.712 105.043 481.737C105.001 481.761 104.97 481.799 104.956 481.842C104.942 481.885 104.945 481.932 104.965 481.973C104.985 482.014 105.021 482.048 105.066 482.068V482.076Z" fill="#090028"/>
<path d="M102.184 479.096L105.551 480.416L109.302 482.021C109.302 482.021 115.12 482.936 115.202 482.919L114.722 483.701C121.94 484.529 144.702 485.356 148.439 485.733C150.694 485.96 152.857 488.493 154.221 490.471L152.391 491.6C152.391 491.6 132.511 490.81 132.552 491.187C132.552 491.307 133.129 493.09 133.998 495.428C121.721 496.169 104.526 496.098 101.338 491.522C98.6985 487.769 101.251 482.377 102.184 479.096Z" fill="#F9B59D"/>
<path d="M99.6176 449.155C103.895 448.621 115.17 448.253 115.17 448.253C115.17 448.253 116.666 448.604 116.19 448.406C128.65 450.396 130.027 458.75 130.027 458.75L136.106 482.899L142.876 483.23C145.067 486.987 143.457 497.113 143.457 497.113L110.678 500.456C110.678 500.456 103.593 501.511 97.5958 494.559C93.6345 489.958 92.2852 475.84 92.2852 465.52C92.2897 465.524 92.9712 449.991 99.6176 449.155Z" fill="#C43F5C"/>
<path d="M191.437 467.859H160.226L149.34 492.934H180.55L191.437 467.859Z" fill="#090028"/>
<path d="M149.34 492.934H150.968L161.855 467.859H160.226L149.34 492.934Z" fill="#030014"/>
<path d="M171.032 479.597C170.602 480.748 170.918 481.885 171.741 482.142C172.564 482.399 173.571 481.666 174.028 480.512C174.486 479.357 174.147 478.223 173.324 477.967C172.5 477.71 171.466 478.439 171.032 479.597Z" fill="#E2F2F1"/>
<path d="M139.02 490.907H150.68V492.934H139.02C138.724 492.933 138.44 492.826 138.231 492.636C138.022 492.446 137.904 492.189 137.904 491.92V491.92C137.904 491.652 138.022 491.395 138.231 491.205C138.44 491.015 138.724 490.908 139.02 490.907V490.907Z" fill="#030014"/>
<path d="M141.975 491.925H149.34V491.607H141.975V491.925Z" fill="#090028"/>
<path d="M110.637 483.322C110.676 483.333 110.718 483.333 110.756 483.322C110.783 483.317 110.808 483.307 110.83 483.293C110.852 483.278 110.871 483.26 110.886 483.24C110.9 483.219 110.91 483.196 110.914 483.172C110.919 483.147 110.918 483.123 110.912 483.099C110.875 482.966 107.449 469.791 105.995 461.499C105.985 461.451 105.954 461.408 105.91 461.379C105.865 461.351 105.811 461.339 105.757 461.346C105.73 461.349 105.703 461.358 105.68 461.371C105.656 461.383 105.636 461.4 105.62 461.42C105.604 461.441 105.592 461.463 105.586 461.487C105.579 461.512 105.578 461.537 105.583 461.561C107.047 469.862 110.473 483.049 110.509 483.181C110.514 483.213 110.529 483.243 110.551 483.268C110.574 483.293 110.604 483.312 110.637 483.322V483.322Z" fill="#916D47"/>
<path d="M131.839 483.107C131.883 483.119 131.931 483.119 131.976 483.107C132.002 483.099 132.026 483.087 132.046 483.071C132.067 483.055 132.084 483.036 132.097 483.014C132.109 482.992 132.116 482.968 132.118 482.943C132.12 482.919 132.117 482.894 132.108 482.871C132.058 482.726 126.976 468.136 125.915 463.092C125.91 463.067 125.9 463.044 125.885 463.024C125.87 463.003 125.851 462.985 125.828 462.971C125.806 462.958 125.78 462.948 125.754 462.943C125.727 462.938 125.699 462.938 125.673 462.943C125.646 462.947 125.62 462.956 125.597 462.97C125.574 462.983 125.555 463.001 125.539 463.021C125.524 463.042 125.513 463.065 125.508 463.089C125.503 463.113 125.503 463.138 125.508 463.162C126.574 468.227 131.665 482.838 131.715 482.982C131.724 483.01 131.74 483.036 131.761 483.057C131.782 483.079 131.809 483.096 131.839 483.107V483.107Z" fill="#090028"/>
<path d="M111.178 455.329C111.338 455.329 111.498 455.358 111.667 455.366C111.712 455.369 111.756 455.355 111.79 455.329C111.824 455.303 111.846 455.266 111.85 455.226C111.853 455.184 111.838 455.143 111.808 455.112C111.778 455.08 111.736 455.06 111.69 455.056C104.559 454.605 103.237 449.884 103.228 449.838C103.224 449.818 103.216 449.798 103.203 449.781C103.191 449.763 103.175 449.748 103.157 449.736C103.138 449.724 103.117 449.716 103.094 449.711C103.072 449.707 103.049 449.706 103.026 449.71C102.982 449.716 102.942 449.738 102.916 449.77C102.889 449.803 102.878 449.844 102.885 449.884C102.894 449.933 104.211 454.68 111.178 455.329Z" fill="#090028"/>
<path d="M133.293 479.626C133.339 479.641 133.39 479.641 133.435 479.625C133.481 479.61 133.52 479.581 133.545 479.543L134.917 477.387V477.317L130.224 458.722C129.824 456.993 128.98 455.374 127.758 453.996C125.856 451.753 122.1 448.907 115.028 448.054C115.001 448.051 114.974 448.052 114.947 448.058C114.921 448.065 114.896 448.076 114.874 448.091C114.853 448.106 114.834 448.124 114.821 448.146C114.807 448.167 114.798 448.191 114.795 448.215C114.791 448.24 114.793 448.265 114.8 448.289C114.807 448.313 114.819 448.335 114.835 448.355C114.852 448.374 114.873 448.391 114.896 448.403C114.92 448.416 114.946 448.423 114.973 448.427C121.894 449.254 125.558 452.031 127.415 454.22C128.595 455.557 129.417 457.123 129.817 458.796V458.796L134.483 477.329L133.174 479.353C133.147 479.396 133.14 479.447 133.153 479.495C133.167 479.542 133.201 479.584 133.247 479.609L133.293 479.626Z" fill="#090028"/>
<path d="M140.627 479.681C140.678 479.698 140.734 479.696 140.784 479.676C140.834 479.656 140.873 479.619 140.892 479.573C140.912 479.527 140.911 479.477 140.889 479.432C140.868 479.387 140.828 479.351 140.778 479.333L134.799 477.198C134.748 477.18 134.691 477.181 134.641 477.2C134.591 477.219 134.551 477.256 134.529 477.301C134.519 477.324 134.514 477.349 134.514 477.373C134.514 477.398 134.519 477.422 134.53 477.445C134.541 477.468 134.556 477.488 134.576 477.505C134.595 477.523 134.618 477.536 134.644 477.545L140.627 479.705V479.681Z" fill="#090028"/>
<path d="M142.881 483.234C142.881 483.234 145.044 487.857 143.462 497.117L135.553 493.277L137.904 486.359L142.881 483.234Z" fill="#C43F5C"/>
<path d="M103.489 483.492C103.514 483.498 103.541 483.498 103.566 483.492C103.864 483.492 133.153 482.689 142.736 483.405C142.973 483.976 144.053 486.914 143.751 492.293C143.749 492.343 143.768 492.391 143.805 492.429C143.841 492.466 143.893 492.488 143.948 492.492C143.975 492.493 144.002 492.489 144.027 492.481C144.053 492.472 144.076 492.459 144.096 492.443C144.116 492.426 144.132 492.406 144.144 492.384C144.155 492.362 144.162 492.338 144.163 492.314C144.506 486.219 143.129 483.277 143.074 483.152L143.024 483.053H142.9C133.427 482.321 103.855 483.123 103.562 483.132C103.515 483.136 103.472 483.153 103.438 483.182C103.404 483.211 103.381 483.25 103.374 483.291C103.366 483.333 103.375 483.376 103.397 483.413C103.42 483.45 103.455 483.479 103.498 483.496L103.489 483.492Z" fill="#916D47"/>
<path d="M116.875 434.205L117.108 442.357C117.108 442.357 117.305 444.972 114.78 445.361L115.357 448.845C115.461 449.473 115.321 450.114 114.96 450.659C114.598 451.203 114.038 451.617 113.376 451.828C112.61 452.078 111.806 452.217 110.993 452.242C108.097 452.308 106.473 450.38 106.203 449.404C105.934 448.427 106.524 443.718 106.524 443.718L106.368 441.413L106.441 432.467L116.875 434.205Z" fill="white"/>
<path d="M108.844 443.267C108.844 443.267 109.141 447.649 115.207 447.926L114.781 445.356C114.781 445.356 110.875 446.163 108.844 443.267Z" fill="#D9D9D9"/>
<path d="M110.01 438.645C109.987 438.645 109.964 438.639 109.944 438.628C109.925 438.616 109.909 438.6 109.899 438.581C109.889 438.562 109.885 438.541 109.888 438.52C109.89 438.499 109.9 438.479 109.914 438.463C109.914 438.463 111.547 436.87 113.116 437.941C113.137 437.963 113.148 437.99 113.148 438.018C113.148 438.046 113.137 438.073 113.116 438.094C113.093 438.114 113.063 438.125 113.032 438.125C113 438.125 112.97 438.114 112.947 438.094C111.575 437.147 110.148 438.508 110.088 438.587C110.081 438.601 110.071 438.614 110.057 438.624C110.043 438.634 110.027 438.641 110.01 438.645Z" fill="#090028"/>
<path d="M105.816 437.599L108.437 438.013L108.918 438.426C108.918 438.426 108.579 434.483 108.067 433.718C107.555 432.952 105.816 437.599 105.816 437.599Z" fill="#090028"/>
<path d="M114.963 437.888C114.946 437.889 114.929 437.886 114.914 437.88C114.898 437.875 114.884 437.866 114.872 437.855C114.85 437.833 114.838 437.805 114.838 437.776C114.838 437.747 114.85 437.719 114.872 437.698C114.922 437.66 116.047 436.742 116.793 437.284C116.816 437.305 116.829 437.333 116.829 437.362C116.829 437.392 116.816 437.42 116.793 437.441C116.782 437.451 116.769 437.459 116.754 437.465C116.74 437.47 116.724 437.473 116.708 437.473C116.693 437.473 116.677 437.47 116.663 437.465C116.648 437.459 116.635 437.451 116.624 437.441C116.043 437.027 115.032 437.834 115.023 437.855C115.008 437.872 114.987 437.883 114.963 437.888Z" fill="#090028"/>
<path d="M112.462 439.03C112.464 439.116 112.427 439.2 112.362 439.262C112.296 439.325 112.206 439.362 112.11 439.365C112.037 439.367 111.966 439.35 111.904 439.316C111.842 439.281 111.793 439.23 111.763 439.17C111.733 439.11 111.723 439.044 111.736 438.979C111.748 438.914 111.781 438.854 111.831 438.806C111.881 438.758 111.946 438.725 112.017 438.711C112.088 438.697 112.162 438.702 112.23 438.726C112.298 438.75 112.356 438.792 112.397 438.846C112.439 438.9 112.461 438.964 112.462 439.03V439.03Z" fill="#1A2578"/>
<path d="M116.301 438.611C116.303 438.676 116.283 438.739 116.245 438.794C116.207 438.849 116.151 438.892 116.086 438.918C116.021 438.944 115.948 438.952 115.878 438.941C115.808 438.93 115.742 438.901 115.69 438.856C115.639 438.812 115.603 438.754 115.587 438.691C115.571 438.628 115.577 438.562 115.602 438.502C115.628 438.442 115.673 438.389 115.731 438.352C115.789 438.315 115.859 438.294 115.93 438.292C115.978 438.291 116.025 438.299 116.069 438.314C116.113 438.33 116.154 438.353 116.188 438.382C116.223 438.412 116.25 438.447 116.27 438.487C116.289 438.526 116.3 438.568 116.301 438.611V438.611Z" fill="#1A2578"/>
<path d="M109.466 438.984C109.477 439.373 109.361 439.756 109.132 440.085C108.903 440.414 108.571 440.674 108.179 440.832C107.786 440.991 107.35 441.04 106.927 440.974C106.503 440.908 106.11 440.731 105.798 440.463C105.487 440.195 105.27 439.85 105.175 439.471C105.08 439.091 105.111 438.695 105.266 438.332C105.42 437.969 105.689 437.656 106.04 437.431C106.392 437.207 106.808 437.082 107.238 437.072C107.814 437.059 108.372 437.253 108.789 437.611C109.207 437.97 109.45 438.463 109.466 438.984V438.984Z" fill="white"/>
<path d="M106.945 440.135C106.749 440.134 106.559 440.076 106.403 439.969C106.246 439.863 106.132 439.713 106.076 439.544C106.009 439.382 106.004 439.205 106.062 439.04C106.12 438.876 106.238 438.734 106.396 438.637C106.564 438.534 106.763 438.479 106.966 438.479C107.169 438.479 107.367 438.534 107.535 438.637C107.452 438.435 107.289 438.267 107.078 438.166C106.772 438.048 106.429 438.035 106.113 438.128C106.105 438.132 106.097 438.135 106.088 438.136C106.08 438.136 106.071 438.135 106.063 438.133C106.055 438.13 106.047 438.126 106.041 438.12C106.035 438.115 106.03 438.108 106.027 438.101C106.024 438.094 106.023 438.086 106.023 438.078C106.024 438.07 106.027 438.063 106.031 438.056C106.035 438.049 106.041 438.043 106.048 438.038C106.055 438.034 106.063 438.031 106.071 438.029C106.418 437.921 106.797 437.934 107.133 438.066C107.278 438.14 107.405 438.241 107.504 438.362C107.604 438.483 107.673 438.622 107.709 438.77L107.764 438.96L107.608 438.824C107.456 438.693 107.26 438.613 107.052 438.594C106.843 438.575 106.633 438.62 106.456 438.72C106.322 438.805 106.222 438.928 106.173 439.07C106.125 439.211 106.129 439.363 106.186 439.502C106.233 439.651 106.331 439.782 106.468 439.875C106.604 439.968 106.77 440.019 106.941 440.019V440.019C106.948 440.019 106.956 440.02 106.964 440.022C106.971 440.024 106.978 440.028 106.984 440.032C106.99 440.037 106.995 440.043 106.998 440.049C107.002 440.055 107.004 440.062 107.005 440.069C107.005 440.077 107.004 440.084 107.002 440.091C106.999 440.098 106.995 440.104 106.989 440.11C106.983 440.115 106.977 440.12 106.969 440.123C106.962 440.126 106.953 440.127 106.945 440.127V440.135Z" fill="#AE253D"/>
<path d="M113.802 441.198C113.789 441.198 113.776 441.195 113.766 441.188C113.755 441.181 113.747 441.172 113.743 441.16C113.738 441.147 113.74 441.133 113.747 441.121C113.753 441.108 113.765 441.099 113.779 441.094L114.978 440.68L114.52 438.115C114.519 438.108 114.519 438.101 114.521 438.094C114.523 438.087 114.526 438.08 114.531 438.074C114.536 438.069 114.542 438.064 114.549 438.06C114.555 438.056 114.563 438.054 114.571 438.053C114.587 438.05 114.604 438.054 114.617 438.062C114.631 438.071 114.641 438.084 114.644 438.098L115.101 440.755L113.807 441.169L113.802 441.198Z" fill="#AE253D"/>
<path d="M112.896 442.291L115.284 442.179C115.284 442.179 115.014 443.069 114.141 443.11C113.267 443.152 112.896 442.291 112.896 442.291Z" fill="#A9A9A9"/>
<path d="M105.816 437.598C105.816 437.598 104.974 433.787 106.227 432.331C107.481 430.874 114.841 428.193 115.765 428.896C116.689 429.6 115.81 430.477 115.81 430.477C115.81 430.477 118.77 429.538 119.511 431.917C120.252 434.296 113.866 435.463 110.006 434.433C108.264 435.046 106.793 436.158 105.816 437.598V437.598Z" fill="#090028"/>
<path d="M196.715 561.346H166.273V555.731C166.273 555.731 168.487 553.033 171.859 554.411C171.859 554.411 176.959 557.684 181.464 553.724L192.626 558.202C192.626 558.202 196.715 559.439 196.715 561.346Z" fill="#C43F5C"/>
<path d="M196.825 563.316H166.05C165.92 563.316 165.795 563.269 165.703 563.186C165.612 563.103 165.56 562.99 165.56 562.873V561.069C165.56 560.951 165.612 560.839 165.703 560.756C165.795 560.673 165.92 560.626 166.05 560.626H196.825C196.984 560.626 197.142 560.654 197.289 560.709C197.436 560.764 197.57 560.845 197.682 560.947C197.795 561.049 197.884 561.17 197.945 561.303C198.006 561.436 198.037 561.578 198.037 561.722V562.24C198.031 562.527 197.901 562.801 197.674 563.002C197.447 563.203 197.142 563.316 196.825 563.316V563.316Z" fill="#0B1249"/>
<path d="M172.965 561.346H142.523V555.731C142.523 555.731 144.737 553.033 148.109 554.411C148.109 554.411 153.209 557.684 157.714 553.724L168.88 558.202C168.88 558.202 172.965 559.439 172.965 561.346Z" fill="#C43F5C"/>
<path d="M173.067 563.316H142.292C142.162 563.316 142.037 563.269 141.946 563.186C141.854 563.103 141.802 562.99 141.802 562.873V561.069C141.802 560.951 141.854 560.839 141.946 560.756C142.037 560.673 142.162 560.626 142.292 560.626H173.067C173.389 560.626 173.697 560.741 173.924 560.947C174.152 561.153 174.279 561.432 174.279 561.722V562.24C174.273 562.527 174.143 562.801 173.916 563.002C173.69 563.203 173.385 563.316 173.067 563.316V563.316Z" fill="#1A2578"/>
<path opacity="0.2" d="M510.64 109.649C518.726 109.649 525.281 103.531 525.281 95.9841C525.281 88.4369 518.726 82.3187 510.64 82.3187C502.555 82.3187 496 88.4369 496 95.9841C496 103.531 502.555 109.649 510.64 109.649Z" stroke="#BF0830" stroke-width="10"/>
<path opacity="0.3" d="M114.5 206.681C118.642 206.681 122 203.547 122 199.681C122 195.814 118.642 192.68 114.5 192.68C110.358 192.68 107 195.814 107 199.681C107 203.547 110.358 206.681 114.5 206.681Z" stroke="#6258C4" stroke-width="5"/>
<path opacity="0.3" d="M579.5 296.236C583.642 296.236 587 293.102 587 289.236C587 285.37 583.642 282.235 579.5 282.235C575.358 282.235 572 285.37 572 289.236C572 293.102 575.358 296.236 579.5 296.236Z" stroke="#74BBFB" stroke-width="5"/>
<g opacity="0.84" filter="url(#filter1_b_404_14238)">
<path d="M216 478.66C215.496 479.69 214.45 480.343 213.304 480.343H178.806C176.587 480.343 175.136 478.018 176.111 476.025L186.002 455.792C186.506 454.762 187.551 454.11 188.697 454.11H223.194C225.413 454.11 226.864 456.434 225.89 458.427L216 478.66Z" fill="white" fill-opacity="0.46"/>
</g>
<g opacity="0.84" filter="url(#filter2_b_404_14238)">
<path d="M217 479.565C216.496 480.595 215.45 481.248 214.304 481.248H179.806C177.587 481.248 176.136 478.923 177.111 476.93L187.002 456.697C187.506 455.667 188.551 455.014 189.697 455.014H224.194C226.413 455.014 227.864 457.339 226.89 459.332L217 479.565Z" fill="white" fill-opacity="0.27"/>
</g>
<path d="M198.67 462.534L192.459 462.46L195.219 470.455L201.428 470.529L198.67 462.534Z" fill="#0056A7"/>
<path d="M195.18 470.224L195.275 470.449L201.484 470.522L199.454 464.907L195.18 470.224Z" fill="#2E3191"/>
<path d="M211.831 455.974L195.277 470.45L201.486 470.524L218.042 456.048L211.831 455.974Z" fill="#0056A7"/>
<path d="M194.473 472.631L200.505 472.701L198.818 477.29L192.785 477.218L194.473 472.631Z" fill="#0056A7"/>
<g filter="url(#filter3_bd_404_14238)">
<path d="M356.817 414.436C358.655 418.23 362.5 420.639 366.715 420.639H471.662C474.614 420.639 476.549 417.552 475.262 414.895L442.321 346.909C441.653 345.529 440.254 344.653 438.721 344.653H329.383C326.431 344.653 324.496 347.741 325.784 350.397L356.817 414.436Z" fill="#E2738B" fill-opacity="0.61" shape-rendering="crispEdges"/>
</g>
<g filter="url(#filter4_b_404_14238)">
<path d="M353.817 417.15C355.655 420.944 359.5 423.353 363.715 423.353H468.662C471.614 423.353 473.549 420.266 472.262 417.609L439.321 349.623C438.653 348.243 437.254 347.367 435.721 347.367H326.383C323.431 347.367 321.496 350.455 322.784 353.111L353.817 417.15Z" fill="#E2738B" fill-opacity="0.61"/>
</g>
<path d="M420.564 396.645C420.988 397.512 420.672 398.233 419.862 398.248L409.553 398.44C408.752 398.44 407.726 397.758 407.301 396.892L401.89 385.892C401.465 385.025 401.782 384.303 402.595 384.285L412.9 384.097C413.702 384.097 414.728 384.778 415.153 385.645L420.564 396.645Z" fill="#07BFDD"/>
<path d="M427.166 382.53C427.591 383.397 427.274 384.118 426.464 384.133L416.156 384.325C415.354 384.325 414.328 383.643 413.903 382.773L408.496 371.777C408.067 370.91 408.384 370.185 409.198 370.17L419.502 369.982C420.304 369.982 421.33 370.663 421.755 371.53L427.166 382.53Z" fill="#007FFF"/>
<path d="M394.083 397.135C394.512 398.001 394.195 398.726 393.382 398.741L383.077 398.929C382.275 398.929 381.249 398.248 380.824 397.381L375.413 386.381C374.989 385.514 375.305 384.793 376.115 384.778L386.424 384.586C387.225 384.586 388.247 385.268 388.676 386.134L394.083 397.135Z" fill="#1DA5F8"/>
<path d="M373.858 383.517C374.287 384.384 373.971 385.109 373.157 385.123L362.852 385.315C362.051 385.315 361.025 384.634 360.6 383.764L355.189 372.763C354.764 371.897 355.081 371.175 355.89 371.161L366.195 370.969C366.997 370.969 368.027 371.654 368.452 372.52L373.858 383.517Z" fill="#8CC936"/>
<path d="M347 44.6204C319.066 33.6787 311.5 12.2744 311.5 0C309.418 27.5903 289.5 40.2547 277 45.6824C304 51.7196 309.366 77.5859 312.082 90.9124C315 61.0606 335 45.6824 347 44.6204Z" fill="#F1C21C"/>
<defs>
<filter id="filter0_d_404_14238" x="431.82" y="346.899" width="134.327" height="173.049" filterUnits="userSpaceOnUse" color-interpolation-filters="sRGB">
<feFlood flood-opacity="0" result="BackgroundImageFix"/>
<feColorMatrix in="SourceAlpha" type="matrix" values="0 0 0 0 0 0 0 0 0 0 0 0 0 0 0 0 0 0 127 0" result="hardAlpha"/>
<feOffset dx="-2" dy="4"/>
<feGaussianBlur stdDeviation="4.5"/>
<feComposite in2="hardAlpha" operator="out"/>
<feColorMatrix type="matrix" values="0 0 0 0 0 0 0 0 0 0 0 0 0 0 0 0 0 0 0.25 0"/>
<feBlend mode="normal" in2="BackgroundImageFix" result="effect1_dropShadow_404_14238"/>
<feBlend mode="normal" in="SourceGraphic" in2="effect1_dropShadow_404_14238" result="shape"/>
</filter>
<filter id="filter1_b_404_14238" x="171.802" y="450.11" width="58.3965" height="34.2334" filterUnits="userSpaceOnUse" color-interpolation-filters="sRGB">
<feFlood flood-opacity="0" result="BackgroundImageFix"/>
<feGaussianBlur in="BackgroundImageFix" stdDeviation="2"/>
<feComposite in2="SourceAlpha" operator="in" result="effect1_backgroundBlur_404_14238"/>
<feBlend mode="normal" in="SourceGraphic" in2="effect1_backgroundBlur_404_14238" result="shape"/>
</filter>
<filter id="filter2_b_404_14238" x="172.802" y="451.014" width="58.3965" height="34.2334" filterUnits="userSpaceOnUse" color-interpolation-filters="sRGB">
<feFlood flood-opacity="0" result="BackgroundImageFix"/>
<feGaussianBlur in="BackgroundImageFix" stdDeviation="2"/>
<feComposite in2="SourceAlpha" operator="in" result="effect1_backgroundBlur_404_14238"/>
<feBlend mode="normal" in="SourceGraphic" in2="effect1_backgroundBlur_404_14238" result="shape"/>
</filter>
<filter id="filter3_bd_404_14238" x="321.378" y="342.653" width="158.289" height="85.9865" filterUnits="userSpaceOnUse" color-interpolation-filters="sRGB">
<feFlood flood-opacity="0" result="BackgroundImageFix"/>
<feGaussianBlur in="BackgroundImageFix" stdDeviation="1"/>
<feComposite in2="SourceAlpha" operator="in" result="effect1_backgroundBlur_404_14238"/>
<feColorMatrix in="SourceAlpha" type="matrix" values="0 0 0 0 0 0 0 0 0 0 0 0 0 0 0 0 0 0 127 0" result="hardAlpha"/>
<feOffset dy="4"/>
<feGaussianBlur stdDeviation="2"/>
<feComposite in2="hardAlpha" operator="out"/>
<feColorMatrix type="matrix" values="0 0 0 0 0 0 0 0 0 0 0 0 0 0 0 0 0 0 0.25 0"/>
<feBlend mode="normal" in2="effect1_backgroundBlur_404_14238" result="effect2_dropShadow_404_14238"/>
<feBlend mode="normal" in="SourceGraphic" in2="effect2_dropShadow_404_14238" result="shape"/>
</filter>
<filter id="filter4_b_404_14238" x="320.378" y="345.367" width="154.289" height="79.9865" filterUnits="userSpaceOnUse" color-interpolation-filters="sRGB">
<feFlood flood-opacity="0" result="BackgroundImageFix"/>
<feGaussianBlur in="BackgroundImageFix" stdDeviation="1"/>
<feComposite in2="SourceAlpha" operator="in" result="effect1_backgroundBlur_404_14238"/>
<feBlend mode="normal" in="SourceGraphic" in2="effect1_backgroundBlur_404_14238" result="shape"/>
</filter>
</defs>
</svg>
