<svg width="42" height="40" viewBox="0 0 42 40" fill="none" xmlns="http://www.w3.org/2000/svg">
<path d="M14.3741 29.4625H1V39.1559H14.3741V29.4625Z" stroke="#1A2578" stroke-width="1.5" stroke-linecap="round" stroke-linejoin="round"/>
<path d="M27.8706 23.9412H14.374V39.1557H27.8706V23.9412Z" stroke="#1A2578" stroke-width="1.5" stroke-linecap="round" stroke-linejoin="round"/>
<path d="M40.9998 17.7847H27.8706V39.1558H40.9998V17.7847Z" stroke="#1A2578" stroke-width="1.5" stroke-linecap="round" stroke-linejoin="round"/>
<path d="M23.7662 4.23511H6.75439V17.7863H23.7662V4.23511Z" stroke="#BF0830" stroke-width="1.5" stroke-linecap="round" stroke-linejoin="round"/>
<path d="M6.75439 4.23511V8.13101C6.75439 8.64676 6.95928 9.14138 7.32397 9.50607C7.68866 9.87076 8.18328 10.0756 8.69903 10.0756H21.8233C22.3387 10.0752 22.8329 9.87013 23.1973 9.50548C23.5616 9.14084 23.7662 8.64647 23.7662 8.13101V4.23511H6.75439Z" stroke="#BF0830" stroke-width="1.5" stroke-linecap="round" stroke-linejoin="round"/>
<path d="M12.5967 12.1774V10.0756" stroke="#BF0830" stroke-width="1.5" stroke-linecap="round" stroke-linejoin="round"/>
<path d="M18.0796 12.1774V10.0756" stroke="#BF0830" stroke-width="1.5" stroke-linecap="round" stroke-linejoin="round"/>
<path d="M11.7759 4.23512V0.954895H18.7964V4.23512" stroke="#BF0830" stroke-width="1.5" stroke-linecap="round" stroke-linejoin="round"/>
</svg>
